<?xml version="1.0" standalone="no"?>
<!DOCTYPE svg PUBLIC "-//W3C//DTD SVG 1.1//EN" "http://www.w3.org/Graphics/SVG/1.1/DTD/svg11.dtd" >
<svg>
<metadata>
Created by FontForge 20120731 at Thu Nov 20 00:18:40 2014
 By Orthosie Webhosting
Copyright (c) 2011 by vernon adams. All rights reserved.
</metadata>
<defs>
<font id="AntonRegular" horiz-adv-x="1000" >
  <font-face 
    font-family="AntonRegular"
    font-weight="400"
    font-stretch="normal"
    units-per-em="2048"
    panose-1="2 0 5 3 0 0 0 0 0 0"
    ascent="1638"
    descent="-410"
    x-height="1500"
    cap-height="1593"
    bbox="-188 -674 3000 2408"
    underline-thickness="102"
    underline-position="-205"
    unicode-range="U+0020-FB02"
  />
<missing-glyph horiz-adv-x="539" 
 />
    <glyph glyph-name=".notdef" horiz-adv-x="539" 
 />
    <glyph glyph-name=".null" horiz-adv-x="0" 
 />
    <glyph glyph-name="nonmarkingreturn" horiz-adv-x="682" 
 />
    <glyph glyph-name="space" unicode=" " horiz-adv-x="480" 
 />
    <glyph glyph-name="exclam" unicode="!" horiz-adv-x="508" 
d="M75 1593h358l-70 -1154h-218zM75 1v298h358v-298h-358z" />
    <glyph glyph-name="quotedbl" unicode="&#x22;" horiz-adv-x="863" 
d="M307 957h-176l-100 636h352zM747 957h-176l-100 636h352z" />
    <glyph glyph-name="numbersign" unicode="#" horiz-adv-x="1150" 
d="M115 886v232h155l93 475h284l-93 -475h166l93 475h284l-93 -475h93v-232h-138l-28 -145h108v-232h-154l-99 -509h-283l99 509h-167l-99 -509h-283l99 509h-95v232h140l28 145h-110zM509 886l-28 -145h166l28 145h-166z" />
    <glyph glyph-name="dollar" unicode="$" horiz-adv-x="982" 
d="M402 -113v149q-188 22 -269 132.5t-81 319.5v55h348v-42q0 -154 94 -154q39 0 61.5 30t22.5 79q0 35 -62 104l-288 289q-158 158 -158 343q0 135 89.5 237t242.5 129v121h173v-118q166 -21 257.5 -137.5t91.5 -318.5h-357l-2 85q-2 28 -26.5 48.5t-55.5 20.5
q-35 0 -59.5 -21.5t-24.5 -55.5q0 -50 99 -148l280 -276q74 -73 112.5 -163.5t38.5 -181.5q0 -94 -39 -174t-120.5 -136t-194.5 -69v-147h-173z" />
    <glyph glyph-name="percent" unicode="%" horiz-adv-x="2186" 
d="M1741 -18q-75 0 -142.5 24t-124.5 72t-90.5 131.5t-33.5 192.5v363q0 209 100 313.5t291 104.5t291.5 -104.5t100.5 -313.5v-363q0 -109 -33.5 -192.5t-90.5 -131.5t-124.5 -72t-143.5 -24zM1834 343v486q0 23 -0.5 35t-5.5 32.5t-14 31.5t-27.5 19.5t-45.5 8.5
q-26 0 -44.5 -8.5t-28 -19.5t-14.5 -31t-5.5 -33t-0.5 -35v-486q0 -47 29.5 -73t63.5 -26t63.5 26t29.5 73zM994 0h-323l540 1767h324zM444 528q-75 0 -142.5 24t-124.5 72t-90.5 131.5t-33.5 192.5v363q0 209 100 313.5t291 104.5t291.5 -104.5t100.5 -313.5v-363
q0 -109 -33.5 -192.5t-90.5 -131.5t-124.5 -72t-143.5 -24zM537 889v486q0 23 -0.5 35t-5.5 32.5t-14 31.5t-27.5 19.5t-45.5 8.5q-26 0 -44.5 -8.5t-28 -19.5t-14.5 -31t-5.5 -33t-0.5 -35v-486q0 -47 29.5 -73t63.5 -26t63.5 26t29.5 73z" />
    <glyph glyph-name="ampersand" unicode="&#x26;" horiz-adv-x="1010" 
d="M30 386q0 46 1 74t5.5 74t13.5 79t26.5 77t42 80t62.5 75.5t87 75.5q-43 85 -71.5 177.5t-28.5 163.5q0 154 100 237t248 83q65 0 125 -18.5t110 -55t80 -97.5t30 -138q0 -210 -235 -398l63 -149q59 152 172 235l139 -217q-117 -93 -197 -312l179 -432h-340l-37 97
q-45 -56 -113 -87t-141 -31q-62 0 -118 23.5t-102 70.5t-73.5 127.5t-27.5 185.5zM336 423v-10q0 -33 1 -53.5t7 -54.5t22 -52t41 -18q21 0 39.5 10.5t28.5 23.5t19 30.5t11 24t3 10.5l-122 291l-12 -19q-13 -18 -25.5 -68.5t-12.5 -114.5zM492 1273q0 -54 43 -163l17 18
q18 19 35.5 60t17.5 85q0 63 -59 63q-25 0 -39.5 -18.5t-14.5 -44.5z" />
    <glyph glyph-name="quotesingle" unicode="'" horiz-adv-x="424" 
d="M308 957h-176l-100 636h352z" />
    <glyph glyph-name="parenleft" unicode="(" horiz-adv-x="619" 
d="M575 268v-285q-71 3 -140 24t-137 66.5t-119 110t-83 162.5t-32 216v589q0 283 131 427t380 151v-267q-23 -4 -42.5 -11.5t-33 -15.5t-24 -23t-17.5 -24.5t-11.5 -30t-6.5 -29.5t-3 -33t-1 -30.5v-31.5v-783q0 -75 39.5 -120.5t99.5 -61.5z" />
    <glyph glyph-name="parenright" unicode=")" horiz-adv-x="620" 
d="M45 268q60 16 99.5 61.5t39.5 120.5v783v31.5t-1 30.5t-3 33t-6.5 29.5t-11.5 30t-17.5 24.5t-24 23t-33 15.5t-42.5 11.5v267q249 -7 380 -151t131 -427v-589q0 -118 -32 -216t-83 -162.5t-119 -110t-137 -66.5t-140 -24v285z" />
    <glyph glyph-name="asterisk" unicode="*" horiz-adv-x="946" 
d="M162 1480l238 -179l-43 292h232l-35 -286l230 173l116 -200l-275 -109l275 -117l-116 -200l-231 182l36 -295h-232l44 302l-239 -189l-116 200l274 117l-274 109z" />
    <glyph glyph-name="plus" unicode="+" horiz-adv-x="752" 
d="M52 509v232h208v208h232v-208h208v-232h-208v-208h-232v208h-208z" />
    <glyph glyph-name="comma" unicode="," horiz-adv-x="493" 
d="M58 1v298h374v-289l-102 -245h-211l66 236h-127z" />
    <glyph glyph-name="hyphen" unicode="-" horiz-adv-x="646" 
d="M65 509v232h516v-232h-516z" />
    <glyph glyph-name="period" unicode="." horiz-adv-x="475" 
d="M59 1v298h358v-298h-358z" />
    <glyph glyph-name="slash" unicode="/" horiz-adv-x="851" 
d="M411 0h-363l410 1767h364z" />
    <glyph glyph-name="zero" unicode="0" horiz-adv-x="1074" 
d="M71 482v627q0 249 119 373.5t346 124.5q229 0 348 -124.5t119 -373.5v-627q0 -105 -26.5 -190.5t-71.5 -142t-105.5 -95t-126 -55.5t-136.5 -17t-136.5 17t-126 55.5t-105.5 95t-71.5 142t-26.5 190.5zM624 447v704q0 26 -0.5 41.5t-5.5 39t-13.5 37t-25.5 23.5t-42 10
t-42 -10t-25.5 -23.5t-13.5 -37t-5.5 -39t-0.5 -41.5v-704q0 -56 27.5 -86.5t59.5 -30.5t59.5 30.5t27.5 86.5z" />
    <glyph glyph-name="one" unicode="1" horiz-adv-x="710" 
d="M330 1593h283v-1593h-373v1160q-12 -6 -32.5 -15t-78 -24t-107.5 -15v273q28 0 77 15t102 41t91 68t38 90z" />
    <glyph glyph-name="two" unicode="2" horiz-adv-x="1029" 
d="M54 0v82q0 71 14 147q21 110 67 202.5t107 174.5t132.5 157.5t142.5 150.5q42 45 66 100t24 126q0 67 -20.5 106.5t-74.5 39.5q-88 0 -88 -152v-149h-370l-4 45q1 135 19.5 242.5t70 181.5t142 113.5t235.5 39.5q112 0 198 -32.5t144.5 -92.5t89 -145t30.5 -191
q0 -108 -36.5 -203t-93.5 -173q-46 -65 -95 -117.5t-96.5 -103.5t-91.5 -105.5t-79 -121.5h480v-322h-913z" />
    <glyph glyph-name="three" unicode="3" horiz-adv-x="1034" 
d="M494 -19q-111 0 -194.5 24.5t-139 77t-83.5 133.5t-28 194v154h361v-155q0 -22 3 -42.5t13.5 -36t30.5 -24.5t54 -9q25 0 42 6.5t28 25.5t16 54t5 93q0 45 -7.5 86.5t-24.5 72.5t-46 49.5t-72 18.5q-11 0 -19.5 -0.5t-14.5 -1.5v307q89 0 138 38t49 132q0 115 -86 115
q-37 0 -56.5 -11t-28 -28t-9.5 -38t-1 -42v-52h-364l-2 60q-1 115 29 196t88.5 132t144.5 74t197 23q107 0 191 -25.5t141.5 -78t87.5 -132.5t30 -189q0 -55 -6.5 -105.5t-24.5 -92.5t-50 -74.5t-84 -50.5q67 -32 102 -74.5t50 -93.5t16 -108t1 -118q0 -114 -25.5 -204
t-82.5 -152t-148 -95t-221 -33z" />
    <glyph glyph-name="four" unicode="4" horiz-adv-x="1066" 
d="M1009 575v-305h-70v-271h-369v271h-542v267l353 1055h558v-1017h70zM372 575h198v724z" />
    <glyph glyph-name="five" unicode="5" horiz-adv-x="1039" 
d="M536 -24q-105 0 -193 23.5t-151.5 72.5t-99.5 124t-36 177v184h366v-86q0 -64 9.5 -99.5t23.5 -52.5t30.5 -20.5t30.5 -3.5q54 0 73.5 35t19.5 98v216q0 30 -2.5 58.5t-12 52t-27.5 39t-49 18.5q-100 0 -100 -131h-323v912h839v-333h-505l1 -212q53 49 174 49
q77 0 135.5 -22.5t101 -60.5t71 -89t45 -108.5t23.5 -118.5t7 -119q0 -77 -7 -151.5t-25.5 -141.5t-51 -124t-82.5 -98t-120 -64.5t-165 -23.5z" />
    <glyph glyph-name="six" unicode="6" horiz-adv-x="1067" 
d="M547 -21q-89 0 -160 15t-120.5 39.5t-85 65t-56.5 83.5t-33 102.5t-16 115t-4 127.5v347v4q0 105 1 158t10 144.5t27 140.5t53 112.5t85.5 95t129 55t179.5 23.5q75 0 152.5 -21t145.5 -61t110.5 -106t42.5 -147v-185h-369v35.5t-0.5 48t-5 47.5t-13.5 45.5t-26.5 30.5
t-42.5 13q-30 0 -51 -9.5t-31.5 -21.5t-16 -32t-6 -31t-0.5 -29v-289l6 11q6 10 20 25q15 15 36 29.5t57 25t78 10.5q202 0 282.5 -114t80.5 -365q0 -95 -10.5 -168.5t-40 -145.5t-79.5 -119t-133 -76t-196 -29zM446 573v-154q0 -126 88 -126q54 0 73 50q13 34 13 132v79
q0 140 -81 140q-93 0 -93 -121z" />
    <glyph glyph-name="seven" unicode="7" horiz-adv-x="920" 
d="M95 1q10 120 33 234.5t55.5 225.5t74 218.5t88.5 213.5q34 72 59 125t42.5 92t29.5 65.5t20 45.5t12.5 31.5t7.5 23.5h-497v317h888v-255q-6 -48 -25.5 -99.5t-46.5 -110t-60.5 -125.5t-67.5 -145q-34 -81 -68.5 -171t-64 -194.5t-51.5 -226t-31 -265.5h-153h-106h-69
h-40.5h-20h-9.5z" />
    <glyph glyph-name="eight" unicode="8" horiz-adv-x="1056" 
d="M528 299q96 0 96 169q0 54 -1.5 102t-10.5 83t-28.5 55.5t-55.5 20.5t-55.5 -20.5t-28.5 -55.5t-10.5 -83t-1.5 -102q0 -169 96 -169zM528 1608q112 0 197.5 -23.5t144 -75t88.5 -132.5t30 -196q0 -37 -2 -81.5t-15.5 -87.5t-44 -80t-87.5 -59q57 -25 87.5 -62
t44.5 -85.5t16.5 -107.5t2.5 -128q0 -132 -25 -228t-80.5 -158t-143.5 -92t-213 -30t-213 30t-143.5 92t-80.5 158t-25 228q0 69 2.5 128t16.5 107.5t44.5 85.5t87.5 62q-57 22 -87.5 59t-44 80t-15.5 87.5t-2 81.5q0 115 30 196t88.5 132.5t144 75t197.5 23.5zM528 1314
q-28 0 -46 -15t-28.5 -37.5t-14.5 -49t-4 -50.5q0 -163 93 -163t93 163q0 24 -4 50.5t-14.5 49t-28.5 37.5t-46 15z" />
    <glyph glyph-name="nine" unicode="9" horiz-adv-x="1065" 
d="M530 -18q-90 0 -175 21.5t-151 66.5t-106 113.5t-40 162.5v130h372l-1 -59q0 -20 7 -37.5t19 -31t28.5 -21t34.5 -7.5q16 0 32.5 6.5t30 20.5t21.5 34.5t8 49.5v225q-35 -38 -88 -58t-107 -20q-81 0 -139 18t-97.5 50t-62.5 76t-35.5 97t-16 113t-3.5 123q0 76 8.5 146
t29.5 131.5t55.5 112t87 86t124.5 55.5t167 20q139 0 228.5 -41t141 -115.5t71 -178t19.5 -228.5v-336q0 -84 -4 -170t-19 -166.5t-44.5 -151.5t-81 -123.5t-128.5 -83t-186 -30.5zM441 1046q1 -37 3.5 -69t11 -55t26 -35t49.5 -9q90 0 90 151v102q0 76 -18.5 118.5
t-69.5 42.5q-29 0 -47 -13.5t-28 -35t-14 -49t-4.5 -54.5t0.5 -52t1 -42z" />
    <glyph glyph-name="colon" unicode=":" horiz-adv-x="531" 
d="M86 237v298h358v-298h-358zM86 976v298h358v-298h-358z" />
    <glyph glyph-name="semicolon" unicode=";" horiz-adv-x="544" 
d="M87 236v298h374v-289l-102 -245h-211l66 236h-127zM87 976v298h358v-298h-358z" />
    <glyph glyph-name="less" unicode="&#x3c;" horiz-adv-x="710" 
d="M53 545v414l570 341v-359l-342 -192l342 -191v-358z" />
    <glyph glyph-name="equal" unicode="=" horiz-adv-x="690" 
d="M88 509v232h514v-232h-514zM88 892v224h514v-224h-514z" />
    <glyph glyph-name="greater" unicode="&#x3e;" horiz-adv-x="711" 
d="M658 545l-570 -345v358l342 191l-342 192v359l570 -341v-414z" />
    <glyph glyph-name="question" unicode="?" horiz-adv-x="1041" 
d="M523 1690q86 0 155.5 -16t118 -43t84.5 -68.5t57 -86.5t33.5 -103.5t17 -112.5t4.5 -120q0 -121 -29 -220t-89 -177t-161.5 -121t-238.5 -43v-170h-333v416q83 0 146 4t112.5 15t83.5 24.5t58.5 38.5t38.5 50.5t22 67.5t10.5 82t2.5 101q0 76 -19.5 119.5t-73.5 43.5
q-14 0 -24 -1.5t-24.5 -12t-23.5 -29t-15.5 -55t-6.5 -88.5v-146h-366v254q0 198 125.5 297.5t334.5 99.5zM131 1v298h358v-298h-358z" />
    <glyph glyph-name="at" unicode="@" horiz-adv-x="1842" 
d="M834 718q0 -72 21 -110t59 -38q22 0 38 12t24 31t11 37t3 37v285q-33 0 -57.5 -6.5t-41.5 -15.5t-28 -29.5t-17 -35.5t-8.5 -48.5t-3 -54t-0.5 -64.5zM1163 224l44 -261q-187 -27 -325 -27q-424 0 -626.5 198.5t-202.5 591.5q0 152 23.5 276.5t66 217.5t108 163.5
t144.5 117.5t180.5 76t209.5 41t239 12q164 0 296.5 -44t219 -117.5t145 -173.5t83.5 -206.5t25 -221.5q0 -290 -108.5 -444.5t-307.5 -154.5q-152 0 -238.5 54t-122.5 172q-60 -168 -256 -168q-51 0 -95.5 21t-83 64.5t-60.5 122.5t-22 184q0 245 80.5 368t218.5 123
q105 0 213 -95l40 112h261v-605q0 -55 25 -89.5t56 -34.5q50 0 82 115t32 276q0 71 -13 135t-47 128t-86 110t-138 75t-196 29q-63 0 -109.5 -2t-105.5 -9t-102 -20t-91.5 -37t-83 -56.5t-67.5 -81.5t-53 -110.5t-32.5 -144t-12.5 -181.5q0 -154 33 -256.5t102 -159
t159.5 -79t222.5 -22.5q111 0 276 18z" />
    <glyph glyph-name="A" unicode="A" horiz-adv-x="947" 
d="M750 1593l176 -1593h-340l-25 240h-178l-22 -240h-342l180 1593h551zM487 1294h-32l-47 -764h126z" />
    <glyph glyph-name="B" unicode="B" horiz-adv-x="988" 
d="M87 0v1593h477q187 0 277 -82.5t90 -281.5v-17v-52t-3.5 -53t-10 -56.5t-19.5 -50.5t-32 -49t-48 -37t-67 -27q55 -13 94 -45t59 -67.5t31.5 -87.5t13.5 -87t2 -84q0 -126 -17.5 -216t-60.5 -160.5t-119.5 -105t-189.5 -34.5h-477zM431 745v-462q24 -2 35 -2
q137 0 137 118v199q0 76 -25.5 111.5t-81.5 35.5h-65zM431 993h72q26 0 42.5 11t23.5 31.5t9 37t2 39.5v158q0 76 -75 76h-74v-353z" />
    <glyph glyph-name="C" unicode="C" horiz-adv-x="993" 
d="M937 686v-301q0 -208 -118 -305.5t-330 -97.5q-188 0 -306 107.5t-118 305.5v739q0 237 104.5 354.5t327.5 117.5q91 0 168 -22.5t136.5 -66.5t93.5 -115.5t34 -164.5v-281h-348v185q0 143 -84 143q-50 0 -66 -31.5t-16 -87.5v-753q0 -49 22.5 -85t59.5 -36q34 0 59 26.5
t25 94.5v274h356z" />
    <glyph glyph-name="D" unicode="D" horiz-adv-x="1020" 
d="M87 0v1593h485q197 0 287.5 -100.5t91.5 -275.5l4 -744q0 -239 -93.5 -356t-301.5 -117h-473zM441 1311v-1020q3 1 12 1q6 0 22.5 -1t26.5 -1q101 0 101 85v786q0 87 -27.5 119.5t-95.5 32.5q-11 0 -39 -2z" />
    <glyph glyph-name="E" unicode="E" horiz-adv-x="862" 
d="M87 0v1593h704v-309h-346v-311h332v-299h-332v-363h369v-311h-727z" />
    <glyph glyph-name="F" unicode="F" horiz-adv-x="824" 
d="M87 0v1593h704v-311h-350v-252h332v-307h-332v-723h-354z" />
    <glyph glyph-name="G" unicode="G" horiz-adv-x="1003" 
d="M796 0l-60 135q-94 -153 -290 -153q-381 0 -381 493v690q0 113 30 197t73.5 129.5t106.5 72.5t114.5 34.5t111.5 7.5q74 0 134 -10.5t103.5 -32.5t76.5 -49.5t54.5 -68t35 -80t20.5 -95t9.5 -103.5t2.5 -113h-336v126q0 38 -8 63t-22.5 35.5t-26.5 14t-27 3.5
q-30 0 -48.5 -8t-29 -20t-15.5 -43.5t-6 -59.5t-1 -88v-616q0 -35 2.5 -59t11.5 -52t29.5 -42.5t52.5 -14.5q53 0 70.5 41.5t17.5 134.5v184h-94v275h426v-928h-137z" />
    <glyph glyph-name="H" unicode="H" horiz-adv-x="1040" 
d="M437 723v-723h-350v1593h350v-569h166v569h350v-1593h-350v723h-166z" />
    <glyph glyph-name="I" unicode="I" horiz-adv-x="514" 
d="M87 0v1593h340v-1593h-340z" />
    <glyph glyph-name="J" unicode="J" horiz-adv-x="965" 
d="M454 -18q-84 0 -160.5 24t-137 69t-96.5 117t-36 160v400h348v-349q0 -43 19 -70.5t59 -27.5q80 0 80 139q0 11 -0.5 28.5t-0.5 23.5v1097h355v-1194q0 -192 -121 -304.5t-309 -112.5z" />
    <glyph glyph-name="K" unicode="K" horiz-adv-x="982" 
d="M599 1593h354l-197 -729l238 -864h-365l-192 772v-772h-350v1593h348v-637z" />
    <glyph glyph-name="L" unicode="L" horiz-adv-x="809" 
d="M87 0v1593h352v-1282h362v-311h-714z" />
    <glyph glyph-name="M" unicode="M" horiz-adv-x="1546" 
d="M935 0h-316l-194 1149v-1149h-338v1593h536l148 -831l147 831h541v-1593h-342v1149z" />
    <glyph glyph-name="N" unicode="N" horiz-adv-x="1038" 
d="M951 1593v-1593h-344l-176 797v-797h-344v1593h362l162 -762v762h340z" />
    <glyph glyph-name="O" unicode="O" 
d="M66 430v759q0 199 107.5 308.5t323.5 112.5q222 -3 329.5 -112.5t107.5 -308.5v-759q0 -97 -24.5 -176.5t-74.5 -141.5t-135.5 -96t-196.5 -31q-117 -3 -202.5 31t-135.5 96t-74.5 141.5t-24.5 176.5zM500 297q19 0 33.5 7.5t23 23t13.5 29.5t7 37.5t2.5 36t0.5 34.5v8
v640q0 6 0.5 24t0 27t-1 26.5t-3 27t-6 24t-9.5 22t-14 16t-20 12t-27 3.5q-21 0 -36.5 -7t-24.5 -22.5t-15 -28t-8 -37t-2 -35v-35.5v-7v-6v-640q0 -22 0.5 -35t2.5 -38t7.5 -40.5t14.5 -32.5t24.5 -25.5t36.5 -8.5z" />
    <glyph glyph-name="P" unicode="P" horiz-adv-x="960" 
d="M87 0v1593h465q92 0 161 -24t122 -78t80.5 -149.5t27.5 -231.5q0 -117 -16.5 -200.5t-56.5 -148.5t-113.5 -97.5t-180.5 -32.5h-143v-631h-346zM433 1303v-385h20q28 0 42.5 1.5t34 7t29 18t19.5 34t13.5 55.5t3.5 82q0 105 -27.5 146t-95.5 41h-39z" />
    <glyph glyph-name="Q" unicode="Q" horiz-adv-x="1001" 
d="M500 -18q-114 0 -199 32t-135.5 91.5t-75 137.5t-24.5 175v768q0 199 108 309.5t327 110.5q217 0 325 -110.5t108 -309.5v-768q0 -196 -98 -309l151 -89l-119 -190l-280 162q-68 -10 -88 -10zM500 299q44 0 63 42q17 36 17 134v635v23.5v27t-1 26t-3.5 28t-6 23.5
t-10 22.5t-14.5 16t-20 12t-27 3.5t-27.5 -3.5t-21 -12t-15 -16.5t-10 -22.5t-6 -23.5t-3.5 -27t-1 -25.5v-26v-21.5v-635q0 -22 0.5 -35t2.5 -38t7.5 -40.5t14.5 -32.5t24.5 -25.5t36.5 -8.5z" />
    <glyph glyph-name="R" unicode="R" horiz-adv-x="997" 
d="M443 725v-725h-356v1593h540q83 0 142 -22.5t93 -59t53.5 -97t25.5 -121t6 -146.5q0 -45 -1.5 -73.5t-11 -72t-26.5 -72.5t-51.5 -57t-83.5 -43q49 -9 81 -33.5t46 -60.5t19 -66.5t5 -68.5q0 -395 -4 -600h-344v621q0 37 -7.5 59t-28 31.5t-39.5 11.5t-58 2zM445 1298
v-297h88q70 0 70 146q0 97 -27.5 124t-111.5 27h-19z" />
    <glyph glyph-name="S" unicode="S" horiz-adv-x="951" 
d="M502 -18q-245 0 -349.5 112t-104.5 346v156h348v-143q0 -154 84 -154q39 0 61.5 30t22.5 79q0 64 -17.5 108t-53 83.5t-116.5 109.5l-149 129q-180 155 -180 350q0 212 108.5 315.5t298.5 103.5h9h53t126 -22.5t137 -75t90 -146t30 -228.5h-357l-2 96q-1 27 -23 48
t-49 21q-35 0 -59.5 -21.5t-24.5 -55.5q0 -68 99 -148l213 -172q52 -42 90.5 -85.5t61 -86t36.5 -77t19.5 -75t6.5 -61t1 -53.5q0 -84 -11 -152.5t-39 -132t-73.5 -106t-118 -67.5t-168.5 -25z" />
    <glyph glyph-name="T" unicode="T" horiz-adv-x="811" 
d="M20 1593h770v-307h-209v-1286h-352v1286h-209v307z" />
    <glyph glyph-name="U" unicode="U" horiz-adv-x="1020" 
d="M82 422v1171h342v-1140v-7q0 -26 0.5 -41t5 -41t13 -41t25.5 -26.5t42 -11.5q21 0 36.5 7t24.5 21.5t14.5 28t7.5 36t2.5 34.5t0.5 34v7v1140h342v-1171q0 -216 -103.5 -328t-322.5 -111q-223 -1 -326.5 111t-103.5 328z" />
    <glyph glyph-name="V" unicode="V" horiz-adv-x="932" 
d="M706 0h-480l-217 1593h355l99 -1056l105 1056h355z" />
    <glyph glyph-name="W" unicode="W" horiz-adv-x="1431" 
d="M455 588l99 1005h328l94 -1005l94 1005h348l-192 -1593h-422l-88 768l-84 -768h-429l-189 1593h344z" />
    <glyph glyph-name="X" unicode="X" horiz-adv-x="952" 
d="M477 623l-114 -623h-357l189 846l-150 747h344l91 -544l81 544h345l-150 -747l188 -846h-356z" />
    <glyph glyph-name="Y" unicode="Y" horiz-adv-x="859" 
d="M596 0h-332v524l-281 1069h349l98 -540l98 540h348l-280 -1069v-524z" />
    <glyph glyph-name="Z" unicode="Z" horiz-adv-x="886" 
d="M34 0v303l422 981h-383v309h774v-297l-430 -989h413v-307h-796z" />
    <glyph glyph-name="bracketleft" unicode="[" horiz-adv-x="699" 
d="M448 1312v-1031h202v-281h-554v1593h554v-281h-202z" />
    <glyph glyph-name="backslash" unicode="\" horiz-adv-x="851" 
d="M440 0l-411 1767h364l410 -1767h-363z" />
    <glyph glyph-name="bracketright" unicode="]" horiz-adv-x="699" 
d="M251 1312h-202v281h554v-1593h-554v281h202v1031z" />
    <glyph glyph-name="asciicircum" unicode="^" horiz-adv-x="970" 
d="M689 1355l241 -923h-359l-86 595l-86 -595h-359l241 923h408z" />
    <glyph glyph-name="underscore" unicode="_" horiz-adv-x="671" 
d="M10 -232v232h651v-232h-651z" />
    <glyph glyph-name="grave" unicode="`" horiz-adv-x="650" 
d="M526 1553l-475 94v347l475 -218v-223z" />
    <glyph glyph-name="a" unicode="a" horiz-adv-x="1004" 
d="M41 430q0 199 59 299q51 86 177 145q64 30 286 106v3q0 32 -0.5 52t-1 45t-1.5 40t-3 33t-4.5 27.5t-7 21t-10 17.5t-12.5 11t-16.5 7t-20.5 2q-74 0 -74 -82v-101h-348q-1 17 -1 49q0 214 101.5 313.5t339.5 99.5q77 0 149 -21.5t134 -64t99.5 -117.5t37.5 -172v-1143
h-356v156q-18 -66 -83 -120t-140 -54q-54 0 -95 9.5t-82 38.5t-67.5 77.5t-43 130t-16.5 192.5zM406 570v-175q0 -133 80 -133q22 0 38 12t24 31t11 37t3 37v395q-92 -37 -124 -86.5t-32 -117.5z" />
    <glyph glyph-name="b" unicode="b" horiz-adv-x="1044" 
d="M452 160v-160h-368v1769h368v-342q90 92 200 92q21 0 36.5 -0.5t43 -4.5t48 -11.5t47.5 -21.5t47 -34t41 -51t34 -70t21.5 -93.5t8.5 -118.5v-723q0 -79 -14 -143t-35.5 -105.5t-52.5 -73t-59 -47.5t-61 -25.5t-53.5 -12t-40.5 -2.5q-145 0 -211 178zM452 1085v-628
q0 -113 22.5 -153.5t67.5 -40.5q44 0 59 38t15 156v624q0 93 -19 125.5t-57 32.5q-39 0 -63.5 -32t-24.5 -122z" />
    <glyph glyph-name="c" unicode="c" horiz-adv-x="1004" 
d="M59 492v462q0 304 105 434t353 130q193 0 314 -102t121 -281v-256h-365v237q0 56 -16.5 89.5t-63.5 33.5q-88 0 -88 -125v-727q0 -46 20 -84.5t66 -38.5q13 0 25.5 5t27 17t23 38.5t8.5 64.5l-2 225h365v-235q0 -185 -119.5 -291t-310.5 -106q-88 0 -159 17t-118.5 44.5
t-82.5 69.5t-54.5 84t-31 96.5t-14.5 99t-3 99.5z" />
    <glyph glyph-name="d" unicode="d" horiz-adv-x="1036" 
d="M64 477l4 676q0 72 19 136.5t56 116t97.5 82t136.5 30.5q143 0 217 -99v348h358v-1767h-358v159q-38 -101 -94.5 -139t-128.5 -38q-52 0 -94.5 9.5t-73 30t-54 45t-38.5 61.5t-24.5 72.5t-14.5 85t-6.5 92t-1.5 99.5zM422 1083v-563v-26v-34v-4v-4q0 -188 86 -188
q16 0 28.5 6t21.5 18.5t15.5 24.5t10.5 33t6.5 35.5t3 39t1 36t0 35t-0.5 28.5v563q0 23 -2.5 45t-10.5 49.5t-26 44.5t-45 17q-28 0 -47 -14t-27 -39.5t-11 -48.5t-3 -54z" />
    <glyph glyph-name="e" unicode="e" 
d="M494 -18q-80 0 -145 16.5t-109.5 43t-77 67t-51.5 82.5t-30.5 96t-15 100t-3.5 102v603q0 207 118.5 316.5t331.5 109.5q432 0 432 -426v-109q0 -203 -4 -279h-520v-210q0 -10 -0.5 -32.5t-0.5 -34.5q0 -36 3 -61.5t11 -52t26.5 -40t46.5 -13.5q29 0 47 20.5t25.5 59
t9.5 68.5t2 75q0 88 -2 96h356v-85q0 -125 -19 -213t-67.5 -158.5t-138.5 -105.5t-225 -35zM508 1249q-28 0 -47 -14.5t-28 -43.5t-12 -59.5t-3 -74.5q0 -21 1 -63t1 -63h168v156q0 162 -80 162z" />
    <glyph glyph-name="f" unicode="f" horiz-adv-x="574" 
d="M107 0v1161h-65q0 47 4 273h61v102q0 242 242 242q115 0 184 -29v-221q-22 5 -33 5q-28 0 -36.5 -19t-8.5 -61v-19h78v-277h-71v-1157h-355z" />
    <glyph glyph-name="g" unicode="g" horiz-adv-x="1040" 
d="M470 -220q-147 0 -243.5 24.5t-186.5 99.5l121 207q131 -78 262 -78q82 0 126 52t44 146v83q-44 -154 -229 -154q-79 0 -138.5 31t-93.5 85t-50.5 121t-16.5 146v563q0 117 21 198.5t62 127.5t93.5 66t122.5 20q36 0 68 -8t65 -27.5t58.5 -58t37.5 -93.5v169h365v-1246
q0 -137 -31.5 -230t-96 -146t-151 -75.5t-209.5 -22.5zM505 1243q-27 0 -44.5 -12t-24 -35.5t-8 -38.5t-1.5 -41v-534q0 -28 2 -47.5t9 -47t25 -42.5t46 -15q84 0 84 152v534q0 43 -23.5 85t-64.5 42z" />
    <glyph glyph-name="h" unicode="h" horiz-adv-x="1059" 
d="M84 0v1767h368v-416q58 168 219 168q142 0 225 -91.5t83 -272.5v-1155h-359v1034q0 6 0.5 23.5t0.5 27.5q0 158 -89 158q-26 0 -53 -25.5t-27 -82.5v-1135h-368z" />
    <glyph glyph-name="i" unicode="i" horiz-adv-x="526" 
d="M84 0v1501h358v-1501h-358zM84 1593v176h358v-176h-358z" />
    <glyph glyph-name="j" unicode="j" horiz-adv-x="550" 
d="M113 1500h358v-1334q0 -169 -67.5 -255.5t-214.5 -86.5q-115 0 -152 26v240q16 -5 33 -5q25 0 34 17.5t9 53.5v1344zM113 1593v176h358v-176h-358z" />
    <glyph glyph-name="k" unicode="k" horiz-adv-x="1017" 
d="M84 0v1769h354v-786l172 517h371l-225 -652l286 -848h-381l-223 707v-707h-354z" />
    <glyph glyph-name="l" unicode="l" horiz-adv-x="532" 
d="M448 0h-364v1767h364v-1767z" />
    <glyph glyph-name="m" unicode="m" horiz-adv-x="1575" 
d="M84 1501h350v-175q13 50 35 86.5t46.5 56.5t56 32t57.5 15t57 3q46 0 90 -13t88 -49.5t65 -91.5q47 85 106.5 119.5t148.5 34.5q67 0 119.5 -17t86 -49.5t56 -71t33 -89.5t14.5 -96t4 -100l-4 -1096h-361v1102q0 145 -73 145q-28 0 -48.5 -17.5t-30.5 -45.5t-14 -54.5
t-4 -52.5v-1077h-358v1059v18.5v24t-0.5 26t-2.5 28t-5 26t-8.5 25t-12.5 18.5t-17.5 13.5t-23.5 4.5q-29 0 -49.5 -18t-31 -48t-15 -59t-4.5 -59v-1059h-350v1501z" />
    <glyph glyph-name="n" unicode="n" horiz-adv-x="1045" 
d="M84 0v1501h358v-172q22 97 81.5 143t144.5 46q141 0 219 -88.5t78 -272.5v-1157h-353v1120q0 47 -19 83t-61 36q-26 0 -44 -14.5t-26.5 -33t-13.5 -48.5t-5.5 -46t-0.5 -42v-1055h-358z" />
    <glyph glyph-name="o" unicode="o" horiz-adv-x="1018" 
d="M509 -18q-448 0 -448 467v602q0 215 120 341t328 126q209 0 329 -126t120 -341v-602q0 -235 -114.5 -351t-334.5 -116zM425 1108v-733q0 -60 23.5 -87.5t60.5 -27.5t60.5 27.5t23.5 87.5v733q0 131 -84 131t-84 -131z" />
    <glyph glyph-name="p" unicode="p" horiz-adv-x="1037" 
d="M446 -186h-364v1686h364v-81q81 99 215 99q72 0 127.5 -23t90 -62t56 -97t30 -121t8.5 -140v-549v-5q0 -72 -1 -109.5t-7 -104.5t-17.5 -104t-35 -85.5t-57 -73.5t-85.5 -43.5t-119 -18.5q-135 0 -205 77v-245zM446 1079v-657q0 -81 19.5 -120.5t66.5 -39.5q42 0 60 40.5
t18 135.5v637q0 23 -0.5 33t-2 33.5t-6.5 36t-13.5 28t-23 22.5t-34.5 7q-84 0 -84 -156z" />
    <glyph glyph-name="q" unicode="q" horiz-adv-x="1039" 
d="M591 -186v276q-39 -53 -93.5 -80.5t-111.5 -27.5q-67 0 -119 16t-85.5 38.5t-56.5 66t-34.5 77.5t-17.5 96.5t-7 99t-1 106.5v5v588q0 77 8.5 140t30 121t56 97t89.5 62t127 23q135 0 215 -99v81h365v-1686h-365zM591 1079q0 156 -84 156q-20 0 -34.5 -7t-23 -22.5
t-13.5 -28t-6.5 -36t-2 -33.5t-0.5 -33v-637q0 -95 18 -135.5t60 -40.5q48 0 67 39.5t19 120.5v657z" />
    <glyph glyph-name="r" unicode="r" horiz-adv-x="945" 
d="M84 0v1500h358v-167q30 103 84 144t137 41q100 0 176 -61.5t76 -178.5v-502h-350v359q0 27 -2.5 45.5t-16 35.5t-38.5 17q-26 0 -46 -23t-20 -63v-1147h-358z" />
    <glyph glyph-name="s" unicode="s" horiz-adv-x="974" 
d="M559 1053l-2 57q0 20 -3 40t-11 41.5t-24 34.5t-38 13q-37 0 -56.5 -21t-19.5 -59q0 -80 64 -127l221 -162q66 -49 114 -103t72.5 -98.5t39 -95.5t17.5 -83t3 -72q0 -215 -121.5 -325.5t-329.5 -110.5q-444 0 -444 452l2 119h358l2 -176q0 -36 8.5 -59.5t23.5 -33.5
t27.5 -13t28.5 -3q72 0 72 117q0 30 -1 43.5t-7.5 40t-21 46.5t-42 49t-69.5 61l-191 147q-62 48 -100.5 93.5t-56 96t-22.5 91t-5 104.5q0 115 66 199t164.5 123t213.5 39q211 0 323.5 -107t112.5 -330v-28h-368z" />
    <glyph glyph-name="t" unicode="t" horiz-adv-x="569" 
d="M101 1761h348v-319h64v-273h-64v-844q0 -19 1 -30t4 -23.5t11.5 -18t21.5 -5.5t26 4v-244q-76 -26 -191 -26q-58 0 -99.5 15.5t-64.5 38t-36.5 58t-17 66.5t-3.5 71v938h-55v273h55v319z" />
    <glyph glyph-name="u" unicode="u" horiz-adv-x="1046" 
d="M606 1500h356v-1500h-358v160q-42 -106 -96.5 -142t-134.5 -36q-76 0 -131 22.5t-86 57t-48.5 90t-22.5 107.5t-5 124v1117h360v-1045q0 -114 13.5 -152.5t66.5 -38.5q20 0 35.5 7.5t24 23.5t14 31t7.5 39.5t2.5 38.5t0.5 39v12z" />
    <glyph glyph-name="v" unicode="v" horiz-adv-x="904" 
d="M657 0h-414l-241 1500h359l74 -759l12 -243l14 245l83 757h358z" />
    <glyph glyph-name="w" unicode="w" horiz-adv-x="1444" 
d="M902 1500l84 -917l92 917h357l-216 -1500h-406l-93 921l-89 -921h-406l-216 1500h357l89 -917l87 917h360z" />
    <glyph glyph-name="x" unicode="x" horiz-adv-x="982" 
d="M488 684l-121 -684h-350l164 843l-128 658h348l88 -512l88 512h354l-127 -667l150 -834h-351z" />
    <glyph glyph-name="y" unicode="y" horiz-adv-x="905" 
d="M31 -186v227h112q56 0 76.5 14t20.5 48q0 19 -5 52l-231 1346h353l66 -680l24 -332l28 332l80 680h355l-278 -1515q-4 -28 -11.5 -51t-15 -40t-20.5 -30t-23 -21.5t-28 -14.5t-29.5 -9t-34 -4.5t-35.5 -1.5h-39h-365z" />
    <glyph glyph-name="z" unicode="z" horiz-adv-x="878" 
d="M32 0v272l413 922h-374v306h770v-306l-402 -893h377v-301h-784z" />
    <glyph glyph-name="braceleft" unicode="{" horiz-adv-x="698" 
d="M161 1225q0 191 126 291t365 107v-267q-48 -3 -78.5 -11.5t-42.5 -22t-15 -23.5t-3 -27q0 -93 -8 -162t-19 -111.5t-37 -81t-45 -58.5t-61 -57q41 -36 61 -56t45.5 -58t36.5 -80t19 -110t8 -160q-1 -15 0 -22t8 -21t20.5 -21t41.5 -14.5t69 -10.5v-267q-239 7 -365 104
t-126 284v17v57.5t-1 47t-2.5 41t-5 32.5t-8.5 29t-13 21.5t-17.5 18.5t-23.5 13.5t-30.5 13t-37.5 8.5v267q27 5 46 10.5t34.5 16.5t25 18.5t16.5 27t10 32.5t5 45t2 53.5v68.5v17z" />
    <glyph glyph-name="bar" unicode="|" horiz-adv-x="509" 
d="M414 -84h-319v1767h319v-1767z" />
    <glyph glyph-name="braceright" unicode="}" horiz-adv-x="699" 
d="M538 1225v-17v-68.5t2 -53.5t5 -45t10 -32.5t16.5 -27t25 -18.5t34.5 -16.5t46 -10.5v-267q-21 -4 -37.5 -8.5t-30.5 -13t-23.5 -13.5t-17.5 -18.5t-13 -21.5t-8.5 -29t-5 -32.5t-2.5 -41t-1 -47v-57.5v-17q0 -187 -126 -284t-365 -104v267q41 3 69 10.5t41.5 14.5
t20.5 21t7.5 21t0.5 22q0 92 8 160t19 110t36.5 80t45.5 58t61 56q-42 37 -61 57t-45 58.5t-37 81t-19 111.5t-8 162q0 17 -3 27t-15 23.5t-42.5 22t-78.5 11.5v267q239 -7 365 -107t126 -291z" />
    <glyph glyph-name="asciitilde" unicode="~" horiz-adv-x="959" 
d="M332 886q-44 0 -78 -79l-242 116q121 299 330 299q45 0 96.5 -27t100 -54t86.5 -27q44 0 79 79l242 -116q-123 -301 -332 -301q-41 0 -82.5 17t-70.5 38t-64.5 38t-64.5 17z" />
    <glyph glyph-name="uni00A0" unicode="&#xa0;" horiz-adv-x="480" 
 />
    <glyph glyph-name="exclamdown" unicode="&#xa1;" horiz-adv-x="506" 
d="M74 1l70 1154h218l70 -1154h-358zM74 1593h358v-298h-358v298z" />
    <glyph glyph-name="cent" unicode="&#xa2;" horiz-adv-x="1014" 
d="M434 -113v100q-71 8 -128 29.5t-95.5 50.5t-67 70t-44 80.5t-25 90.5t-12 92t-2.5 92v462q0 278 86.5 409t287.5 151v93h173v-96q157 -22 251.5 -120.5t94.5 -255.5v-256h-365v237q0 56 -16.5 89.5t-63.5 33.5q-88 0 -88 -125v-727q0 -46 20 -84.5t66 -38.5q13 0 25.5 5
t27 17t23 38.5t8.5 64.5l-2 225h365v-235q0 -163 -94.5 -266t-251.5 -125v-101h-173z" />
    <glyph glyph-name="sterling" unicode="&#xa3;" horiz-adv-x="1006" 
d="M64 673v232h135l-14 59q-14 60 -27.5 140t-13.5 120q0 91 24.5 160t64 110.5t95.5 68t112 36t121 9.5q61 0 111 -9.5t104 -40.5t90.5 -82t60 -140.5t23.5 -210.5h-319q0 96 -12.5 141.5t-51.5 45.5q-17 0 -27.5 -5.5t-16.5 -12.5t-8.5 -26.5t-3 -34t-0.5 -47.5v-13
q0 -46 56 -268h284v-232h-249l11 -132q-3 -51 -19.5 -96t-35 -71t-41.5 -47.5t-32 -27t-14 -8.5h470v-291h-882v281q106 63 141 124t35 163q0 66 -9 105h-162z" />
    <glyph glyph-name="currency" unicode="&#xa4;" horiz-adv-x="1015" 
d="M507 545q-124 0 -216 53l-89 -89l-149 150l91 91q-53 98 -53 214q0 117 52 214l-90 90l149 150l87 -88q97 55 218 55q120 0 218 -54l87 87l150 -149l-90 -90q54 -97 54 -215t-54 -216l90 -90l-150 -149l-89 88q-93 -52 -216 -52zM507 1186q-98 0 -153 -66t-55 -156
q0 -91 55 -157t153 -66t153.5 67t55.5 158q0 93 -55 156.5t-154 63.5z" />
    <glyph glyph-name="yen" unicode="&#xa5;" horiz-adv-x="969" 
d="M181 475v224h92l-235 894h349l98 -540l98 540h348l-234 -894h88v-224h-134v-67h134v-232h-134v-176h-332v176h-138v232h138v67h-138z" />
    <glyph glyph-name="brokenbar" unicode="&#xa6;" horiz-adv-x="513" 
d="M416 -84h-319v760h319v-760zM416 923h-319v760h319v-760z" />
    <glyph glyph-name="section" unicode="&#xa7;" horiz-adv-x="954" 
d="M569 324q0 15 -13.5 30.5t-42 32t-55.5 30t-73 35t-74 36.5q-112 57 -174 138t-62 169q0 132 138 236q-138 101 -138 244q0 139 111 235.5t295 96.5q199 0 304 -92.5t105 -293.5h-305q-4 125 -93 125q-44 0 -70 -23t-26 -59q0 -15 13.5 -30t42 -31.5t55 -30t72 -35
t73.5 -36.5q112 -58 174.5 -139.5t62.5 -169.5q0 -132 -138 -235q139 -103 139 -244q0 -139 -111 -235.5t-295 -96.5q-209 0 -319 92.5t-110 293.5h335q4 -125 93 -125q40 0 63 23t23 59zM573 681q41 54 41 99q0 69 -202 137q-50 -59 -50 -104q0 -37 53 -67.5t158 -64.5z
" />
    <glyph glyph-name="dieresis" unicode="&#xa8;" horiz-adv-x="976" 
d="M67 1591v298h358v-298h-358zM551 1591v298h358v-298h-358z" />
    <glyph glyph-name="copyright" unicode="&#xa9;" horiz-adv-x="1410" 
d="M274 1126q-67 -121 -67 -264t67 -264.5t181.5 -192.5t249.5 -71t249.5 71t181.5 192.5t67 264.5t-67 264.5t-181.5 192.5t-249.5 71t-249.5 -71t-181.5 -193zM136 532q-88 151 -88 330t88 330t239 239t330 88t330 -88t239 -239t88 -330t-88 -330t-239 -239t-330 -88
t-330 88t-239 239zM942 806v-163q0 -219 -243 -219q-102 0 -166 58t-64 166v401q0 129 56.5 192.5t177.5 63.5q103 0 169 -50.5t66 -149.5v-153h-189v101q0 77 -46 77q-27 0 -35.5 -17t-8.5 -47v-409q0 -26 12.5 -45.5t31.5 -19.5q46 0 46 65v149h193z" />
    <glyph glyph-name="ordfeminine" unicode="&#xaa;" horiz-adv-x="828" 
d="M43 744q0 158 47 238q41 68 141 115q51 24 227 84v2q0 26 -0.5 41.5t-1 35.5t-1 32t-2.5 26t-3.5 21.5t-5.5 17t-8 14t-9.5 8.5t-13 5.5t-16.5 1.5q-59 0 -59 -65v-80h-276q-1 14 -1 39q0 170 80.5 248.5t269.5 78.5h7q57 0 111 -16q57 -17 106.5 -51t79 -93.5
t29.5 -136.5v-907h-282v124q-14 -53 -65.5 -95.5t-111.5 -42.5q-43 0 -75.5 7.5t-65 30.5t-53.5 61.5t-34.5 103t-13.5 152.5zM333 855v-139q0 -105 64 -105q17 0 30 9.5t19 24.5t8.5 29.5t2.5 29.5v313q-73 -29 -98.5 -68.5t-25.5 -93.5z" />
    <glyph glyph-name="guillemotleft" unicode="&#xab;" horiz-adv-x="1218" 
d="M624 545v414l510 271v-359l-312 -122l312 -131v-358zM46 545v414l510 271v-359l-312 -122l312 -131v-358z" />
    <glyph glyph-name="logicalnot" unicode="&#xac;" horiz-adv-x="868" 
d="M52 979h729v-540h-311v362h-418v178z" />
    <glyph glyph-name="registered" unicode="&#xae;" horiz-adv-x="1410" 
d="M136 532q-88 151 -88 330t88 330t239 239t330 88t330 -88t239 -239t88 -330t-88 -330t-239 -239t-330 -88t-330 88t-239 239zM274 1126q-67 -121 -67 -264t67 -264.5t181.5 -192.5t249.5 -71t249.5 71t181.5 192.5t67 264.5t-67 264.5t-181.5 192.5t-249.5 71t-249.5 -71
t-181.5 -193zM673 818v-388h-190v852h289q44 0 75.5 -12t50 -31.5t29 -52t13.5 -65t3 -78.5q0 -30 -2 -49.5t-10 -46.5t-28.5 -45.5t-52.5 -28.5q79 -15 79 -122v-321h-184v332q0 20 -4 32t-15.5 17t-21.5 6t-31 1zM674 1124v-159h48q37 0 37 78q0 53 -16.5 67t-68.5 14z
" />
    <glyph glyph-name="macron" unicode="&#xaf;" horiz-adv-x="491" 
d="M-40 1592v248h570v-248h-570z" />
    <glyph glyph-name="degree" unicode="&#xb0;" horiz-adv-x="782" 
d="M285 1379q-36 -47 -36 -110t36.5 -110t105.5 -47t105.5 47t36.5 110t-36.5 110t-105.5 47t-106 -47zM131 1022q-94 91 -94 247t94.5 247t258.5 91t259 -91t95 -247t-95 -247t-259 -91t-259 91z" />
    <glyph glyph-name="plusminus" unicode="&#xb1;" horiz-adv-x="761" 
d="M60 622v232h208v208h232v-208h208v-232h-208v-208h-232v208h-208zM101 -1v232h516v-232h-516z" />
    <glyph glyph-name="uni00B2" unicode="&#xb2;" horiz-adv-x="646" 
d="M61 631v47q0 145 104 298q38 56 159 202q51 60 51 163q0 83 -53 83q-51 0 -51 -87v-119h-210l-2 60q0 172 57.5 250t207.5 78q122 0 192.5 -67t70.5 -195q0 -71 -20 -134t-54 -113.5t-69 -93.5t-74.5 -94t-62.5 -95h273v-183h-519z" />
    <glyph glyph-name="uni00B3" unicode="&#xb3;" horiz-adv-x="629" 
d="M302 635q-124 0 -186.5 64t-62.5 205v100h202v-101q0 -32 5.5 -52t16 -27t17.5 -9t18 -2q28 0 39.5 24t11.5 98q0 19 -0.5 28t-2 30.5t-7 33.5t-14.5 26.5t-24 21.5t-36 7q-13 0 -20 -1v173q51 0 78 21t27 74q0 81 -48 81q-24 0 -36 -11t-13.5 -27.5t-2 -36.5t-1.5 -38
h-204l-1 34q1 143 68 199t189 56q252 0 252 -255q0 -33 -3.5 -58t-12.5 -50.5t-28 -44t-48 -28.5q38 -17 55.5 -36t28.5 -65.5t11 -133.5q0 -146 -63 -223t-205 -77z" />
    <glyph glyph-name="acute" unicode="&#xb4;" horiz-adv-x="650" 
d="M1 1593v223l475 218v-347z" />
    <glyph glyph-name="uni00B5" unicode="&#xb5;" horiz-adv-x="1070" 
d="M619 1500h356v-1500h-358v160q-32 -82 -72.5 -121.5t-91.5 -49.5v-175h-360v1686h360v-1045q0 -114 13.5 -152.5t66.5 -38.5q20 0 35.5 7.5t24 23.5t14 31t7.5 39.5t2.5 38.5t0.5 39v12z" />
    <glyph glyph-name="paragraph" unicode="&#xb6;" horiz-adv-x="1080" 
d="M391 0v797q-101 11 -170 45t-107 89.5t-54 122t-16 156.5q0 86 26 151.5t72.5 109t116 71t151.5 39.5t185 12h375v-1593h-239v1287h-94v-1287h-246z" />
    <glyph glyph-name="glyph120" unicode="&#xb7;" horiz-adv-x="491" 
d="M67 723v298h358v-298h-358z" />
    <glyph glyph-name="cedilla" unicode="&#xb8;" horiz-adv-x="1015" 
d="M306 -591v223q66 -23 116 -23q53 0 84 27t31 85q0 56 -42.5 106.5t-117.5 66.5v106h211v-76q127 -17 195.5 -89t68.5 -165q0 -139 -100.5 -220t-247.5 -81q-102 0 -198 40z" />
    <glyph glyph-name="uni00B9" unicode="&#xb9;" horiz-adv-x="441" 
d="M200 1607h159v-951h-210v708q-59 -30 -123 -30q2 64 2 110q0 37 -2 43q42 0 108 35.5t66 84.5z" />
    <glyph glyph-name="ordmasculine" unicode="&#xba;" horiz-adv-x="844" 
d="M422 387q-356 0 -356 370v478q0 170 96 271q94 99 257 99h3q166 0 261 -99.5t95 -270.5v-478q0 -186 -90.5 -278t-265.5 -92zM355 1280v-581q0 -48 18.5 -70t48 -21.5t48 22t18.5 69.5v581q0 104 -66.5 104t-66.5 -104z" />
    <glyph glyph-name="guillemotright" unicode="&#xbb;" horiz-adv-x="1216" 
d="M593 545l-510 -285v358l312 131l-312 122v359l510 -271v-414zM1170 545l-510 -285v358l312 131l-312 122v359l510 -271v-414z" />
    <glyph glyph-name="onequarter" unicode="&#xbc;" horiz-adv-x="1435" 
d="M216 1607h159v-951h-210v708q-59 -30 -123 -30q2 64 2 110q0 37 -2 43q42 0 108 35.5t66 84.5zM616 0h-283l490 1767h284zM1379 322v-171h-39v-152h-207v152h-303v149l187 641h323v-619h39zM1023 322h110v405z" />
    <glyph glyph-name="onehalf" unicode="&#xbd;" horiz-adv-x="1601" 
d="M215 1607h159v-951h-210v708q-59 -30 -123 -30q2 64 2 110q0 37 -2 43q42 0 108 35.5t66 84.5zM673 0h-283l490 1767h284zM1019 -1v47q0 145 104 298q38 56 159 202q51 60 51 163q0 83 -53 83q-51 0 -51 -87v-119h-210l-2 60q0 172 57.5 250t207.5 78q122 0 192.5 -67
t70.5 -195q0 -71 -20 -134t-54 -113.5t-69 -93.5t-74.5 -94t-62.5 -95h273v-183h-519z" />
    <glyph glyph-name="threequarters" unicode="&#xbe;" horiz-adv-x="1546" 
d="M301 635q-124 0 -186.5 64t-62.5 205v100h202v-101q0 -32 5.5 -52t16 -27t17.5 -9t18 -2q28 0 39.5 24t11.5 98q0 19 -0.5 28t-2 30.5t-7 33.5t-14.5 26.5t-24 21.5t-36 7q-13 0 -20 -1v173q51 0 78 21t27 74q0 81 -48 81q-24 0 -36 -11t-13.5 -27.5t-2 -36.5t-1.5 -38
h-204l-1 34q1 143 68 199t189 56q252 0 252 -255q0 -33 -3.5 -58t-12.5 -50.5t-28 -44t-48 -28.5q38 -17 55.5 -36t28.5 -65.5t11 -133.5q0 -146 -63 -223t-205 -77zM762 0h-283l490 1767h284zM1497 324v-171h-39v-152h-207v152h-303v149l187 641h323v-619h39zM1141 324h110
v405z" />
    <glyph glyph-name="questiondown" unicode="&#xbf;" horiz-adv-x="1041" 
d="M519 -17q-86 0 -155.5 16t-118 43t-84.5 68.5t-57 86.5t-33.5 103.5t-17 112.5t-4.5 120q0 121 29 220t89 177t161.5 121t238.5 43v170h333v-416q-83 0 -146 -4t-112.5 -15t-83.5 -24.5t-58.5 -38.5t-38.5 -50.5t-22 -67.5t-10.5 -82t-2.5 -101q0 -76 19.5 -119.5
t73.5 -43.5q14 0 24 1.5t24.5 12t23.5 29t15.5 55t6.5 88.5v146h366v-254q0 -198 -125.5 -297.5t-334.5 -99.5zM911 1672v-298h-358v298h358z" />
    <glyph glyph-name="Agrave" unicode="&#xc0;" horiz-adv-x="947" 
d="M642 1732l-475 94v347l475 -218v-223zM750 1593l176 -1593h-340l-25 240h-178l-22 -240h-342l180 1593h551zM487 1294h-32l-47 -764h126z" />
    <glyph glyph-name="Aacute" unicode="&#xc1;" horiz-adv-x="947" 
d="M283 1732v223l475 218v-347zM750 1593l176 -1593h-340l-25 240h-178l-22 -240h-342l180 1593h551zM487 1294h-32l-47 -764h126z" />
    <glyph glyph-name="Acircumflex" unicode="&#xc2;" horiz-adv-x="947" 
d="M679 2135l241 -403h-359l-86 285l-86 -285h-359l241 403h408zM750 1593l176 -1593h-340l-25 240h-178l-22 -240h-342l180 1593h551zM487 1294h-32l-47 -764h126z" />
    <glyph glyph-name="Atilde" unicode="&#xc3;" horiz-adv-x="947" 
d="M348 1842q-32 0 -58 -89l-222 106q53 130 120.5 194.5t159.5 64.5q38 0 82 -27t86 -54t75 -27t59 79l232 -56q-55 -150 -126 -225.5t-166 -75.5q-35 0 -71 17t-60.5 38t-55 38t-55.5 17zM750 1593l176 -1593h-340l-25 240h-178l-22 -240h-342l180 1593h551zM487 1294h-32
l-47 -764h126z" />
    <glyph glyph-name="Adieresis" unicode="&#xc4;" horiz-adv-x="947" 
d="M53 1732v298h358v-298h-358zM537 1732v298h358v-298h-358zM750 1593l176 -1593h-340l-25 240h-178l-22 -240h-342l180 1593h551zM487 1294h-32l-47 -764h126z" />
    <glyph glyph-name="Aring" unicode="&#xc5;" horiz-adv-x="947" 
d="M333 2041q0 -63 36.5 -110t105.5 -47t105.5 47t36.5 110t-36.5 110t-105.5 47t-105.5 -47t-36.5 -110zM121 2041q0 156 94.5 247t258.5 91t259 -91t95 -247t-95 -247t-259 -91t-258.5 91t-94.5 247zM750 1593l176 -1593h-340l-25 240h-178l-22 -240h-342l180 1593h551z
M487 1294h-32l-47 -764h126z" />
    <glyph glyph-name="AE" unicode="&#xc6;" horiz-adv-x="1294" 
d="M579 0l-1 120v120h-208l-39 -240h-341l321 1593h912v-309h-286v-311h272v-299h-272v-363h309v-311h-667zM574 1294h-28l-130 -764h158v764z" />
    <glyph glyph-name="Ccedilla" unicode="&#xc7;" horiz-adv-x="994" 
d="M938 385q0 -208 -118 -305.5t-330 -97.5q-188 0 -306 107.5t-118 305.5v739q0 237 104.5 354.5t327.5 117.5q91 0 168 -22.5t136.5 -66.5t93.5 -115.5t34 -164.5v-281h-348v185q0 143 -84 143q-50 0 -66 -31.5t-16 -87.5v-753q0 -49 22.5 -85t59.5 -36q34 0 59 26.5
t25 94.5v274h356v-301zM229 -591v223q66 -23 116 -23q53 0 84 27t31 85q0 56 -42.5 106.5t-117.5 66.5v106h211v-76q127 -17 195.5 -89t68.5 -165q0 -139 -100.5 -220t-247.5 -81q-102 0 -198 40z" />
    <glyph glyph-name="Egrave" unicode="&#xc8;" horiz-adv-x="862" 
d="M563 1732l-475 94v347l475 -218v-223zM87 0v1593h704v-309h-346v-311h332v-299h-332v-363h369v-311h-727z" />
    <glyph glyph-name="Eacute" unicode="&#xc9;" horiz-adv-x="862" 
d="M315 1732v223l475 218v-347zM87 0v1593h704v-309h-346v-311h332v-299h-332v-363h369v-311h-727z" />
    <glyph glyph-name="Ecircumflex" unicode="&#xca;" horiz-adv-x="862" 
d="M643 2135l241 -403h-359l-86 285l-86 -285h-359l241 403h408zM87 0v1593h704v-309h-346v-311h332v-299h-332v-363h369v-311h-727z" />
    <glyph glyph-name="Edieresis" unicode="&#xcb;" horiz-adv-x="862" 
d="M18 1732v298h358v-298h-358zM502 1732v298h358v-298h-358zM87 0v1593h704v-309h-346v-311h332v-299h-332v-363h369v-311h-727z" />
    <glyph glyph-name="Igrave" unicode="&#xcc;" horiz-adv-x="514" 
d="M429 1732l-475 94v347l475 -218v-223zM87 0v1593h340v-1593h-340z" />
    <glyph glyph-name="Iacute" unicode="&#xcd;" horiz-adv-x="514" 
d="M81 1732v223l475 218v-347zM87 0v1593h340v-1593h-340z" />
    <glyph glyph-name="Icircumflex" unicode="&#xce;" horiz-adv-x="514" 
d="M461 2135l241 -403h-359l-86 285l-86 -285h-359l241 403h408zM87 0v1593h340v-1593h-340z" />
    <glyph glyph-name="Idieresis" unicode="&#xcf;" horiz-adv-x="514" 
d="M-164 1732v298h358v-298h-358zM320 1732v298h358v-298h-358zM87 0v1593h340v-1593h-340z" />
    <glyph glyph-name="Eth" unicode="&#xd0;" horiz-adv-x="1020" 
d="M87 0v762h-87v232h87v599h485q197 0 287.5 -100.5t91.5 -275.5l4 -744q0 -239 -93.5 -356t-301.5 -117h-473zM441 1311v-317h75v-232h-75v-471q3 1 12 1q6 0 22.5 -1t26.5 -1q101 0 101 85v786q0 87 -27.5 119.5t-95.5 32.5q-11 0 -39 -2z" />
    <glyph glyph-name="Ntilde" unicode="&#xd1;" horiz-adv-x="1038" 
d="M392 1842q-32 0 -58 -89l-222 106q53 130 120.5 194.5t159.5 64.5q38 0 82 -27t86 -54t75 -27t59 79l232 -56q-55 -150 -126 -225.5t-166 -75.5q-35 0 -71 17t-60.5 38t-55 38t-55.5 17zM951 1593v-1593h-344l-176 797v-797h-344v1593h362l162 -762v762h340z" />
    <glyph glyph-name="Ograve" unicode="&#xd2;" 
d="M677 1732l-475 94v347l475 -218v-223zM66 430v759q0 199 107.5 308.5t323.5 112.5q222 -3 329.5 -112.5t107.5 -308.5v-759q0 -97 -24.5 -176.5t-74.5 -141.5t-135.5 -96t-196.5 -31q-117 -3 -202.5 31t-135.5 96t-74.5 141.5t-24.5 176.5zM500 297q19 0 33.5 7.5t23 23
t13.5 29.5t7 37.5t2.5 36t0.5 34.5v8v640q0 6 0.5 24t0 27t-1 26.5t-3 27t-6 24t-9.5 22t-14 16t-20 12t-27 3.5q-21 0 -36.5 -7t-24.5 -22.5t-15 -28t-8 -37t-2 -35v-35.5v-7v-6v-640q0 -22 0.5 -35t2.5 -38t7.5 -40.5t14.5 -32.5t24.5 -25.5t36.5 -8.5z" />
    <glyph glyph-name="Oacute" unicode="&#xd3;" 
d="M309 1732v223l475 218v-347zM66 430v759q0 199 107.5 308.5t323.5 112.5q222 -3 329.5 -112.5t107.5 -308.5v-759q0 -97 -24.5 -176.5t-74.5 -141.5t-135.5 -96t-196.5 -31q-117 -3 -202.5 31t-135.5 96t-74.5 141.5t-24.5 176.5zM500 297q19 0 33.5 7.5t23 23t13.5 29.5
t7 37.5t2.5 36t0.5 34.5v8v640q0 6 0.5 24t0 27t-1 26.5t-3 27t-6 24t-9.5 22t-14 16t-20 12t-27 3.5q-21 0 -36.5 -7t-24.5 -22.5t-15 -28t-8 -37t-2 -35v-35.5v-7v-6v-640q0 -22 0.5 -35t2.5 -38t7.5 -40.5t14.5 -32.5t24.5 -25.5t36.5 -8.5z" />
    <glyph glyph-name="Ocircumflex" unicode="&#xd4;" 
d="M701 2135l241 -403h-359l-86 285l-86 -285h-359l241 403h408zM66 430v759q0 199 107.5 308.5t323.5 112.5q222 -3 329.5 -112.5t107.5 -308.5v-759q0 -97 -24.5 -176.5t-74.5 -141.5t-135.5 -96t-196.5 -31q-117 -3 -202.5 31t-135.5 96t-74.5 141.5t-24.5 176.5z
M500 297q19 0 33.5 7.5t23 23t13.5 29.5t7 37.5t2.5 36t0.5 34.5v8v640q0 6 0.5 24t0 27t-1 26.5t-3 27t-6 24t-9.5 22t-14 16t-20 12t-27 3.5q-21 0 -36.5 -7t-24.5 -22.5t-15 -28t-8 -37t-2 -35v-35.5v-7v-6v-640q0 -22 0.5 -35t2.5 -38t7.5 -40.5t14.5 -32.5t24.5 -25.5
t36.5 -8.5z" />
    <glyph glyph-name="Otilde" unicode="&#xd5;" 
d="M370 1842q-32 0 -58 -89l-222 106q53 130 120.5 194.5t159.5 64.5q38 0 82 -27t86 -54t75 -27t59 79l232 -56q-55 -150 -126 -225.5t-166 -75.5q-35 0 -71 17t-60.5 38t-55 38t-55.5 17zM66 430v759q0 199 107.5 308.5t323.5 112.5q222 -3 329.5 -112.5t107.5 -308.5
v-759q0 -97 -24.5 -176.5t-74.5 -141.5t-135.5 -96t-196.5 -31q-117 -3 -202.5 31t-135.5 96t-74.5 141.5t-24.5 176.5zM500 297q19 0 33.5 7.5t23 23t13.5 29.5t7 37.5t2.5 36t0.5 34.5v8v640q0 6 0.5 24t0 27t-1 26.5t-3 27t-6 24t-9.5 22t-14 16t-20 12t-27 3.5
q-21 0 -36.5 -7t-24.5 -22.5t-15 -28t-8 -37t-2 -35v-35.5v-7v-6v-640q0 -22 0.5 -35t2.5 -38t7.5 -40.5t14.5 -32.5t24.5 -25.5t36.5 -8.5z" />
    <glyph glyph-name="Odieresis" unicode="&#xd6;" 
d="M76 1732v298h358v-298h-358zM560 1732v298h358v-298h-358zM66 430v759q0 199 107.5 308.5t323.5 112.5q222 -3 329.5 -112.5t107.5 -308.5v-759q0 -97 -24.5 -176.5t-74.5 -141.5t-135.5 -96t-196.5 -31q-117 -3 -202.5 31t-135.5 96t-74.5 141.5t-24.5 176.5zM500 297
q19 0 33.5 7.5t23 23t13.5 29.5t7 37.5t2.5 36t0.5 34.5v8v640q0 6 0.5 24t0 27t-1 26.5t-3 27t-6 24t-9.5 22t-14 16t-20 12t-27 3.5q-21 0 -36.5 -7t-24.5 -22.5t-15 -28t-8 -37t-2 -35v-35.5v-7v-6v-640q0 -22 0.5 -35t2.5 -38t7.5 -40.5t14.5 -32.5t24.5 -25.5
t36.5 -8.5z" />
    <glyph glyph-name="multiply" unicode="&#xd7;" horiz-adv-x="720" 
d="M213 314l-164 164l147 147l-147 147l164 164l147 -147l147 147l164 -164l-147 -147l147 -147l-164 -164l-147 147z" />
    <glyph glyph-name="Oslash" unicode="&#xd8;" 
d="M500 -18q-84 0 -155 19l-34 -121l-100 28l37 134q-182 109 -182 388v759q0 199 107.5 308.5t326.5 109.5q98 0 176 -23l32 115l101 -28l-37 -131q162 -103 162 -351v-759q0 -97 -24.5 -176.5t-74.5 -141.5t-135.5 -96t-199.5 -34zM500 1295q-21 0 -36.5 -7t-24.5 -22.5
t-15 -28t-8 -37t-2 -35v-35.5v-7v-6v-478l162 583q-14 73 -76 73zM500 297q19 0 33.5 7.5t23 23t13.5 29.5t7 37.5t2.5 36t0.5 34.5v8v373l-143 -513q21 -36 63 -36z" />
    <glyph glyph-name="Ugrave" unicode="&#xd9;" horiz-adv-x="1020" 
d="M674 1732l-475 94v347l475 -218v-223zM82 422v1171h342v-1140v-7q0 -26 0.5 -41t5 -41t13 -41t25.5 -26.5t42 -11.5q21 0 36.5 7t24.5 21.5t14.5 28t7.5 36t2.5 34.5t0.5 34v7v1140h342v-1171q0 -216 -103.5 -328t-322.5 -111q-223 -1 -326.5 111t-103.5 328z" />
    <glyph glyph-name="Uacute" unicode="&#xda;" horiz-adv-x="1020" 
d="M338 1732v223l475 218v-347zM82 422v1171h342v-1140v-7q0 -26 0.5 -41t5 -41t13 -41t25.5 -26.5t42 -11.5q21 0 36.5 7t24.5 21.5t14.5 28t7.5 36t2.5 34.5t0.5 34v7v1140h342v-1171q0 -216 -103.5 -328t-322.5 -111q-223 -1 -326.5 111t-103.5 328z" />
    <glyph glyph-name="Ucircumflex" unicode="&#xdb;" horiz-adv-x="1020" 
d="M714 2135l241 -403h-359l-86 285l-86 -285h-359l241 403h408zM82 422v1171h342v-1140v-7q0 -26 0.5 -41t5 -41t13 -41t25.5 -26.5t42 -11.5q21 0 36.5 7t24.5 21.5t14.5 28t7.5 36t2.5 34.5t0.5 34v7v1140h342v-1171q0 -216 -103.5 -328t-322.5 -111q-223 -1 -326.5 111
t-103.5 328z" />
    <glyph glyph-name="Udieresis" unicode="&#xdc;" horiz-adv-x="1020" 
d="M89 1732v298h358v-298h-358zM573 1732v298h358v-298h-358zM82 422v1171h342v-1140v-7q0 -26 0.5 -41t5 -41t13 -41t25.5 -26.5t42 -11.5q21 0 36.5 7t24.5 21.5t14.5 28t7.5 36t2.5 34.5t0.5 34v7v1140h342v-1171q0 -216 -103.5 -328t-322.5 -111q-223 -1 -326.5 111
t-103.5 328z" />
    <glyph glyph-name="Yacute" unicode="&#xdd;" horiz-adv-x="859" 
d="M389 1732v223l475 218v-347zM596 0h-332v524l-281 1069h349l98 -540l98 540h348l-280 -1069v-524z" />
    <glyph glyph-name="Thorn" unicode="&#xde;" horiz-adv-x="972" 
d="M87 0v1593h345v-175h120q92 0 161 -26.5t122 -87t80.5 -168.5t27.5 -261q0 -104 -10 -183.5t-35 -148.5t-66 -113t-105.5 -69t-150.5 -25h-143v-336h-346zM433 1128v-505h20q34 0 50.5 2.5t38 15.5t30.5 39.5t16 76t7 124.5q0 140 -27.5 193.5t-95.5 53.5h-39z" />
    <glyph glyph-name="germandbls" unicode="&#xdf;" horiz-adv-x="1027" 
d="M505 1593q94 0 168.5 -19t134 -60t91.5 -113t32 -172v-15v-52t-3 -53t-8.5 -57.5t-16.5 -51.5t-26.5 -49t-40 -36.5t-55.5 -27.5q42 -10 75 -31.5t54.5 -47t37.5 -61t24 -66.5t12.5 -72t5.5 -68.5t1 -64.5q0 -117 -17.5 -200t-60.5 -147.5t-119.5 -96.5t-189.5 -32h-104
v281q143 0 143 118v199q0 79 -32 113t-115 34v248q29 0 47.5 11t25.5 32t9 36.5t2 39.5v158q0 76 -75 76t-75 -76v-1270h-350v1229q0 364 425 364z" />
    <glyph glyph-name="agrave" unicode="&#xe0;" horiz-adv-x="1004" 
d="M616 1640l-475 94v347l475 -218v-223zM41 430q0 199 59 299q51 86 177 145q64 30 286 106v3q0 32 -0.5 52t-1 45t-1.5 40t-3 33t-4.5 27.5t-7 21t-10 17.5t-12.5 11t-16.5 7t-20.5 2q-74 0 -74 -82v-101h-348q-1 17 -1 49q0 214 101.5 313.5t339.5 99.5q77 0 149 -21.5
t134 -64t99.5 -117.5t37.5 -172v-1143h-356v156q-18 -66 -83 -120t-140 -54q-54 0 -95 9.5t-82 38.5t-67.5 77.5t-43 130t-16.5 192.5zM406 570v-175q0 -133 80 -133q22 0 38 12t24 31t11 37t3 37v395q-92 -37 -124 -86.5t-32 -117.5z" />
    <glyph glyph-name="aacute" unicode="&#xe1;" horiz-adv-x="1004" 
d="M364 1640v223l475 218v-347zM41 430q0 199 59 299q51 86 177 145q64 30 286 106v3q0 32 -0.5 52t-1 45t-1.5 40t-3 33t-4.5 27.5t-7 21t-10 17.5t-12.5 11t-16.5 7t-20.5 2q-74 0 -74 -82v-101h-348q-1 17 -1 49q0 214 101.5 313.5t339.5 99.5q77 0 149 -21.5t134 -64
t99.5 -117.5t37.5 -172v-1143h-356v156q-18 -66 -83 -120t-140 -54q-54 0 -95 9.5t-82 38.5t-67.5 77.5t-43 130t-16.5 192.5zM406 570v-175q0 -133 80 -133q22 0 38 12t24 31t11 37t3 37v395q-92 -37 -124 -86.5t-32 -117.5z" />
    <glyph glyph-name="acircumflex" unicode="&#xe2;" horiz-adv-x="1004" 
d="M708 2043l241 -403h-359l-86 285l-86 -285h-359l241 403h408zM41 430q0 199 59 299q51 86 177 145q64 30 286 106v3q0 32 -0.5 52t-1 45t-1.5 40t-3 33t-4.5 27.5t-7 21t-10 17.5t-12.5 11t-16.5 7t-20.5 2q-74 0 -74 -82v-101h-348q-1 17 -1 49q0 214 101.5 313.5
t339.5 99.5q77 0 149 -21.5t134 -64t99.5 -117.5t37.5 -172v-1143h-356v156q-18 -66 -83 -120t-140 -54q-54 0 -95 9.5t-82 38.5t-67.5 77.5t-43 130t-16.5 192.5zM406 570v-175q0 -133 80 -133q22 0 38 12t24 31t11 37t3 37v395q-92 -37 -124 -86.5t-32 -117.5z" />
    <glyph glyph-name="atilde" unicode="&#xe3;" horiz-adv-x="1004" 
d="M377 1750q-32 0 -58 -89l-222 106q53 130 120.5 194.5t159.5 64.5q38 0 82 -27t86 -54t75 -27t59 79l232 -56q-55 -150 -126 -225.5t-166 -75.5q-35 0 -71 17t-60.5 38t-55 38t-55.5 17zM41 430q0 199 59 299q51 86 177 145q64 30 286 106v3q0 32 -0.5 52t-1 45t-1.5 40
t-3 33t-4.5 27.5t-7 21t-10 17.5t-12.5 11t-16.5 7t-20.5 2q-74 0 -74 -82v-101h-348q-1 17 -1 49q0 214 101.5 313.5t339.5 99.5q77 0 149 -21.5t134 -64t99.5 -117.5t37.5 -172v-1143h-356v156q-18 -66 -83 -120t-140 -54q-54 0 -95 9.5t-82 38.5t-67.5 77.5t-43 130
t-16.5 192.5zM406 570v-175q0 -133 80 -133q22 0 38 12t24 31t11 37t3 37v395q-92 -37 -124 -86.5t-32 -117.5z" />
    <glyph glyph-name="adieresis" unicode="&#xe4;" horiz-adv-x="1004" 
d="M83 1640v298h358v-298h-358zM567 1640v298h358v-298h-358zM41 430q0 199 59 299q51 86 177 145q64 30 286 106v3q0 32 -0.5 52t-1 45t-1.5 40t-3 33t-4.5 27.5t-7 21t-10 17.5t-12.5 11t-16.5 7t-20.5 2q-74 0 -74 -82v-101h-348q-1 17 -1 49q0 214 101.5 313.5
t339.5 99.5q77 0 149 -21.5t134 -64t99.5 -117.5t37.5 -172v-1143h-356v156q-18 -66 -83 -120t-140 -54q-54 0 -95 9.5t-82 38.5t-67.5 77.5t-43 130t-16.5 192.5zM406 570v-175q0 -133 80 -133q22 0 38 12t24 31t11 37t3 37v395q-92 -37 -124 -86.5t-32 -117.5z" />
    <glyph glyph-name="aring" unicode="&#xe5;" horiz-adv-x="1004" 
d="M363 1978q0 -63 36.5 -110t105.5 -47t105.5 47t36.5 110t-36.5 110t-105.5 47t-105.5 -47t-36.5 -110zM151 1978q0 156 94.5 247t258.5 91t259 -91t95 -247t-95 -247t-259 -91t-258.5 91t-94.5 247zM41 430q0 199 59 299q51 86 177 145q64 30 286 106v3q0 32 -0.5 52
t-1 45t-1.5 40t-3 33t-4.5 27.5t-7 21t-10 17.5t-12.5 11t-16.5 7t-20.5 2q-74 0 -74 -82v-101h-348q-1 17 -1 49q0 214 101.5 313.5t339.5 99.5q77 0 149 -21.5t134 -64t99.5 -117.5t37.5 -172v-1143h-356v156q-18 -66 -83 -120t-140 -54q-54 0 -95 9.5t-82 38.5
t-67.5 77.5t-43 130t-16.5 192.5zM406 570v-175q0 -133 80 -133q22 0 38 12t24 31t11 37t3 37v395q-92 -37 -124 -86.5t-32 -117.5z" />
    <glyph glyph-name="ae" unicode="&#xe6;" horiz-adv-x="1500" 
d="M1034 -18q-61 0 -113.5 18t-82.5 40t-53.5 50.5t-29.5 39.5t-9 18l-8 -17q-8 -17 -31 -41q-22 -24 -54 -49t-86.5 -42t-119.5 -17q-50 0 -99 9.5t-107.5 39t-102 76.5t-73 130.5t-29.5 192.5q0 200 59 299q51 86 177 145q64 30 286 106v3q0 32 -0.5 52t-1 45t-1.5 40
t-3 33t-4.5 27.5t-7 21t-10 17.5t-12.5 11t-16.5 7t-20.5 2q-74 0 -74 -82v-101h-348q-1 17 -1 49q0 214 101.5 313.5t339.5 99.5q164 0 246 -122q80 122 267 122q432 0 432 -426v-109q0 -203 -4 -279h-521v-210q0 -234 87 -234q19 0 34 9.5t24 28.5t14.5 38.5t8 48.5t3 49
t0.5 49q0 88 -2 96h356v-85q0 -99 -10 -173.5t-37.5 -141t-73 -108t-118 -65.5t-171.5 -24zM401 570v-175q0 -133 80 -133q22 0 38 12t24 31t11 37t3 37v395q-92 -37 -124 -86.5t-32 -117.5zM1008 1249q-51 0 -70 -40t-19 -157v-121h169v156q0 162 -80 162z" />
    <glyph glyph-name="ccedilla" unicode="&#xe7;" horiz-adv-x="1004" 
d="M60 954q0 304 105 434t353 130q193 0 314 -102t121 -281v-256h-365v237q0 56 -16.5 89.5t-63.5 33.5q-88 0 -88 -125v-727q0 -46 20 -84.5t66 -38.5q13 0 25.5 5t27 17t23 38.5t8.5 64.5l-2 225h365v-235q0 -185 -119.5 -291t-310.5 -106q-88 0 -159 17t-118.5 44.5
t-82.5 69.5t-54.5 84t-31 96.5t-14.5 99t-3 99.5v462zM233 -591v223q66 -23 116 -23q53 0 84 27t31 85q0 56 -42.5 106.5t-117.5 66.5v106h211v-76q127 -17 195.5 -89t68.5 -165q0 -139 -100.5 -220t-247.5 -81q-102 0 -198 40z" />
    <glyph glyph-name="egrave" unicode="&#xe8;" 
d="M722 1640l-475 94v347l475 -218v-223zM494 -18q-80 0 -145 16.5t-109.5 43t-77 67t-51.5 82.5t-30.5 96t-15 100t-3.5 102v603q0 207 118.5 316.5t331.5 109.5q432 0 432 -426v-109q0 -203 -4 -279h-520v-210q0 -10 -0.5 -32.5t-0.5 -34.5q0 -36 3 -61.5t11 -52t26.5 -40
t46.5 -13.5q29 0 47 20.5t25.5 59t9.5 68.5t2 75q0 88 -2 96h356v-85q0 -125 -19 -213t-67.5 -158.5t-138.5 -105.5t-225 -35zM508 1249q-28 0 -47 -14.5t-28 -43.5t-12 -59.5t-3 -74.5q0 -21 1 -63t1 -63h168v156q0 162 -80 162z" />
    <glyph glyph-name="eacute" unicode="&#xe9;" 
d="M334 1640v223l475 218v-347zM494 -18q-80 0 -145 16.5t-109.5 43t-77 67t-51.5 82.5t-30.5 96t-15 100t-3.5 102v603q0 207 118.5 316.5t331.5 109.5q432 0 432 -426v-109q0 -203 -4 -279h-520v-210q0 -10 -0.5 -32.5t-0.5 -34.5q0 -36 3 -61.5t11 -52t26.5 -40
t46.5 -13.5q29 0 47 20.5t25.5 59t9.5 68.5t2 75q0 88 -2 96h356v-85q0 -125 -19 -213t-67.5 -158.5t-138.5 -105.5t-225 -35zM508 1249q-28 0 -47 -14.5t-28 -43.5t-12 -59.5t-3 -74.5q0 -21 1 -63t1 -63h168v156q0 162 -80 162z" />
    <glyph glyph-name="ecircumflex" unicode="&#xea;" 
d="M716 2043l241 -403h-359l-86 285l-86 -285h-359l241 403h408zM494 -18q-80 0 -145 16.5t-109.5 43t-77 67t-51.5 82.5t-30.5 96t-15 100t-3.5 102v603q0 207 118.5 316.5t331.5 109.5q432 0 432 -426v-109q0 -203 -4 -279h-520v-210q0 -10 -0.5 -32.5t-0.5 -34.5
q0 -36 3 -61.5t11 -52t26.5 -40t46.5 -13.5q29 0 47 20.5t25.5 59t9.5 68.5t2 75q0 88 -2 96h356v-85q0 -125 -19 -213t-67.5 -158.5t-138.5 -105.5t-225 -35zM508 1249q-28 0 -47 -14.5t-28 -43.5t-12 -59.5t-3 -74.5q0 -21 1 -63t1 -63h168v156q0 162 -80 162z" />
    <glyph glyph-name="edieresis" unicode="&#xeb;" 
d="M91 1640v298h358v-298h-358zM575 1640v298h358v-298h-358zM494 -18q-80 0 -145 16.5t-109.5 43t-77 67t-51.5 82.5t-30.5 96t-15 100t-3.5 102v603q0 207 118.5 316.5t331.5 109.5q432 0 432 -426v-109q0 -203 -4 -279h-520v-210q0 -10 -0.5 -32.5t-0.5 -34.5
q0 -36 3 -61.5t11 -52t26.5 -40t46.5 -13.5q29 0 47 20.5t25.5 59t9.5 68.5t2 75q0 88 -2 96h356v-85q0 -125 -19 -213t-67.5 -158.5t-138.5 -105.5t-225 -35zM508 1249q-28 0 -47 -14.5t-28 -43.5t-12 -59.5t-3 -74.5q0 -21 1 -63t1 -63h168v156q0 162 -80 162z" />
    <glyph glyph-name="igrave" unicode="&#xec;" horiz-adv-x="526" 
d="M476 1640l-475 94v347l475 -218v-223zM84 0v1500h358v-1500h-358z" />
    <glyph glyph-name="iacute" unicode="&#xed;" horiz-adv-x="526" 
d="M50 1640v223l475 218v-347zM84 0v1500h358v-1500h-358z" />
    <glyph glyph-name="icircumflex" unicode="&#xee;" horiz-adv-x="526" 
d="M467 2043l241 -403h-359l-86 285l-86 -285h-359l241 403h408zM84 0v1500h358v-1500h-358z" />
    <glyph glyph-name="idieresis" unicode="&#xef;" horiz-adv-x="526" 
d="M-158 1640v298h358v-298h-358zM326 1640v298h358v-298h-358zM84 0v1500h358v-1500h-358z" />
    <glyph glyph-name="eth" unicode="&#xf0;" horiz-adv-x="1036" 
d="M64 477l4 576q0 72 19 136.5t56 116t97.5 82t136.5 30.5q143 0 217 -99v183h-105v172h105v93h358v-93h53v-172h-53v-1502h-358v159q-38 -101 -94.5 -139t-128.5 -38q-52 0 -94.5 9.5t-73 30t-54 45t-38.5 61.5t-24.5 72.5t-14.5 85t-6.5 92t-1.5 99.5zM422 983v-531
q0 -188 86 -188q16 0 28.5 6t21.5 18.5t15.5 24.5t10.5 33t6.5 35.5t3 39t1 36t0 35t-0.5 28.5v463q0 23 -2.5 45t-10.5 49.5t-26 44.5t-45 17q-28 0 -47 -14t-27 -39.5t-11 -48.5t-3 -54z" />
    <glyph glyph-name="ntilde" unicode="&#xf1;" horiz-adv-x="1045" 
d="M398 1750q-32 0 -58 -89l-222 106q53 130 120.5 194.5t159.5 64.5q38 0 82 -27t86 -54t75 -27t59 79l232 -56q-55 -150 -126 -225.5t-166 -75.5q-35 0 -71 17t-60.5 38t-55 38t-55.5 17zM84 0v1501h358v-172q22 97 81.5 143t144.5 46q141 0 219 -88.5t78 -272.5v-1157
h-353v1120q0 47 -19 83t-61 36q-26 0 -44 -14.5t-26.5 -33t-13.5 -48.5t-5.5 -46t-0.5 -42v-1055h-358z" />
    <glyph glyph-name="ograve" unicode="&#xf2;" horiz-adv-x="1018" 
d="M707 1640l-475 94v347l475 -218v-223zM509 -18q-448 0 -448 467v602q0 215 120 341t328 126q209 0 329 -126t120 -341v-602q0 -235 -114.5 -351t-334.5 -116zM425 1108v-733q0 -60 23.5 -87.5t60.5 -27.5t60.5 27.5t23.5 87.5v733q0 131 -84 131t-84 -131z" />
    <glyph glyph-name="oacute" unicode="&#xf3;" horiz-adv-x="1018" 
d="M322 1640v223l475 218v-347zM509 -18q-448 0 -448 467v602q0 215 120 341t328 126q209 0 329 -126t120 -341v-602q0 -235 -114.5 -351t-334.5 -116zM425 1108v-733q0 -60 23.5 -87.5t60.5 -27.5t60.5 27.5t23.5 87.5v733q0 131 -84 131t-84 -131z" />
    <glyph glyph-name="ocircumflex" unicode="&#xf4;" horiz-adv-x="1018" 
d="M713 2043l241 -403h-359l-86 285l-86 -285h-359l241 403h408zM509 -18q-448 0 -448 467v602q0 215 120 341t328 126q209 0 329 -126t120 -341v-602q0 -235 -114.5 -351t-334.5 -116zM425 1108v-733q0 -60 23.5 -87.5t60.5 -27.5t60.5 27.5t23.5 87.5v733q0 131 -84 131
t-84 -131z" />
    <glyph glyph-name="otilde" unicode="&#xf5;" horiz-adv-x="1018" 
d="M382 1750q-32 0 -58 -89l-222 106q53 130 120.5 194.5t159.5 64.5q38 0 82 -27t86 -54t75 -27t59 79l232 -56q-55 -150 -126 -225.5t-166 -75.5q-35 0 -71 17t-60.5 38t-55 38t-55.5 17zM509 -18q-448 0 -448 467v602q0 215 120 341t328 126q209 0 329 -126t120 -341
v-602q0 -235 -114.5 -351t-334.5 -116zM425 1108v-733q0 -60 23.5 -87.5t60.5 -27.5t60.5 27.5t23.5 87.5v733q0 131 -84 131t-84 -131z" />
    <glyph glyph-name="odieresis" unicode="&#xf6;" horiz-adv-x="1018" 
d="M88 1640v298h358v-298h-358zM572 1640v298h358v-298h-358zM509 -18q-448 0 -448 467v602q0 215 120 341t328 126q209 0 329 -126t120 -341v-602q0 -235 -114.5 -351t-334.5 -116zM425 1108v-733q0 -60 23.5 -87.5t60.5 -27.5t60.5 27.5t23.5 87.5v733q0 131 -84 131
t-84 -131z" />
    <glyph glyph-name="divide" unicode="&#xf7;" horiz-adv-x="721" 
d="M52 638v232h616v-232h-616zM211 237v298h298v-298h-298zM211 976v298h298v-298h-298z" />
    <glyph glyph-name="oslash" unicode="&#xf8;" horiz-adv-x="1018" 
d="M509 -18q-90 0 -167 20l-49 -175l-100 28l52 187q-184 109 -184 407v602q0 215 120 341t328 126q74 0 144 -19l49 173l101 -28l-52 -185q100 -57 153.5 -161.5t53.5 -246.5v-602q0 -235 -114.5 -351t-334.5 -116zM509 260q37 0 60.5 27.5t23.5 87.5v520l-161 -574
q18 -61 77 -61zM509 1239q-84 0 -84 -131v-425l146 523q-21 33 -62 33z" />
    <glyph glyph-name="ugrave" unicode="&#xf9;" horiz-adv-x="1046" 
d="M728 1640l-475 94v347l475 -218v-223zM606 1500h356v-1500h-358v160q-42 -106 -96.5 -142t-134.5 -36q-76 0 -131 22.5t-86 57t-48.5 90t-22.5 107.5t-5 124v1117h360v-1045q0 -114 13.5 -152.5t66.5 -38.5q20 0 35.5 7.5t24 23.5t14 31t7.5 39.5t2.5 38.5t0.5 39v12z
" />
    <glyph glyph-name="uacute" unicode="&#xfa;" horiz-adv-x="1046" 
d="M337 1640v223l475 218v-347zM606 1500h356v-1500h-358v160q-42 -106 -96.5 -142t-134.5 -36q-76 0 -131 22.5t-86 57t-48.5 90t-22.5 107.5t-5 124v1117h360v-1045q0 -114 13.5 -152.5t66.5 -38.5q20 0 35.5 7.5t24 23.5t14 31t7.5 39.5t2.5 38.5t0.5 39v12z" />
    <glyph glyph-name="ucircumflex" unicode="&#xfb;" horiz-adv-x="1046" 
d="M725 2043l241 -403h-359l-86 285l-86 -285h-359l241 403h408zM606 1500h356v-1500h-358v160q-42 -106 -96.5 -142t-134.5 -36q-76 0 -131 22.5t-86 57t-48.5 90t-22.5 107.5t-5 124v1117h360v-1045q0 -114 13.5 -152.5t66.5 -38.5q20 0 35.5 7.5t24 23.5t14 31t7.5 39.5
t2.5 38.5t0.5 39v12z" />
    <glyph glyph-name="udieresis" unicode="&#xfc;" horiz-adv-x="1046" 
d="M100 1640v298h358v-298h-358zM584 1640v298h358v-298h-358zM606 1500h356v-1500h-358v160q-42 -106 -96.5 -142t-134.5 -36q-76 0 -131 22.5t-86 57t-48.5 90t-22.5 107.5t-5 124v1117h360v-1045q0 -114 13.5 -152.5t66.5 -38.5q20 0 35.5 7.5t24 23.5t14 31t7.5 39.5
t2.5 38.5t0.5 39v12z" />
    <glyph glyph-name="yacute" unicode="&#xfd;" horiz-adv-x="905" 
d="M321 1640v223l475 218v-347zM31 -186v227h112q56 0 76.5 14t20.5 48q0 19 -5 52l-231 1346h353l66 -680l24 -332l28 332l80 680h355l-278 -1515q-4 -28 -11.5 -51t-15 -40t-20.5 -30t-23 -21.5t-28 -14.5t-29.5 -9t-34 -4.5t-35.5 -1.5h-39h-365z" />
    <glyph glyph-name="thorn" unicode="&#xfe;" horiz-adv-x="1043" 
d="M451 160v-345h-368v1954h368v-342q90 92 200 92q21 0 36.5 -0.5t43 -4.5t48 -11.5t47.5 -21.5t47 -34t41 -51t34 -70t21.5 -93.5t8.5 -118.5v-723q0 -79 -14 -143t-35.5 -105.5t-52.5 -73t-59 -47.5t-61 -25.5t-53.5 -12t-40.5 -2.5q-145 0 -211 178zM451 1085v-628
q0 -113 22.5 -153.5t67.5 -40.5q44 0 59 38t15 156v624q0 93 -19 125.5t-57 32.5q-39 0 -63.5 -32t-24.5 -122z" />
    <glyph glyph-name="ydieresis" unicode="&#xff;" horiz-adv-x="905" 
d="M36 1640v298h358v-298h-358zM520 1640v298h358v-298h-358zM31 -186v227h112q56 0 76.5 14t20.5 48q0 19 -5 52l-231 1346h353l66 -680l24 -332l28 332l80 680h355l-278 -1515q-4 -28 -11.5 -51t-15 -40t-20.5 -30t-23 -21.5t-28 -14.5t-29.5 -9t-34 -4.5t-35.5 -1.5h-39
h-365z" />
    <glyph glyph-name="Amacron" unicode="&#x100;" horiz-adv-x="947" 
d="M190 1732v248h570v-248h-570zM750 1593l176 -1593h-340l-25 240h-178l-22 -240h-342l180 1593h551zM487 1294h-32l-47 -764h126z" />
    <glyph glyph-name="amacron" unicode="&#x101;" horiz-adv-x="1004" 
d="M219 1640v248h570v-248h-570zM41 430q0 199 59 299q51 86 177 145q64 30 286 106v3q0 32 -0.5 52t-1 45t-1.5 40t-3 33t-4.5 27.5t-7 21t-10 17.5t-12.5 11t-16.5 7t-20.5 2q-74 0 -74 -82v-101h-348q-1 17 -1 49q0 214 101.5 313.5t339.5 99.5q77 0 149 -21.5t134 -64
t99.5 -117.5t37.5 -172v-1143h-356v156q-18 -66 -83 -120t-140 -54q-54 0 -95 9.5t-82 38.5t-67.5 77.5t-43 130t-16.5 192.5zM406 570v-175q0 -133 80 -133q22 0 38 12t24 31t11 37t3 37v395q-92 -37 -124 -86.5t-32 -117.5z" />
    <glyph glyph-name="Abreve" unicode="&#x102;" horiz-adv-x="947" 
d="M475 1972q53 0 84 27t31 85q0 1 316 1q2 -24 2 -35q0 -148 -114.5 -233t-320.5 -85q-202 0 -317 83.5t-115 227.5q0 21 3 42l316 -1q0 -58 31 -85t84 -27zM750 1593l176 -1593h-340l-25 240h-178l-22 -240h-342l180 1593h551zM487 1294h-32l-47 -764h126z" />
    <glyph glyph-name="abreve" unicode="&#x103;" horiz-adv-x="1004" 
d="M505 1880q53 0 84 27t31 85q0 1 316 1q2 -24 2 -35q0 -148 -114.5 -233t-320.5 -85q-202 0 -317 83.5t-115 227.5q0 21 3 42l316 -1q0 -58 31 -85t84 -27zM41 430q0 199 59 299q51 86 177 145q64 30 286 106v3q0 32 -0.5 52t-1 45t-1.5 40t-3 33t-4.5 27.5t-7 21
t-10 17.5t-12.5 11t-16.5 7t-20.5 2q-74 0 -74 -82v-101h-348q-1 17 -1 49q0 214 101.5 313.5t339.5 99.5q77 0 149 -21.5t134 -64t99.5 -117.5t37.5 -172v-1143h-356v156q-18 -66 -83 -120t-140 -54q-54 0 -95 9.5t-82 38.5t-67.5 77.5t-43 130t-16.5 192.5zM406 570v-175
q0 -133 80 -133q22 0 38 12t24 31t11 37t3 37v395q-92 -37 -124 -86.5t-32 -117.5z" />
    <glyph glyph-name="Aogonek" unicode="&#x104;" horiz-adv-x="947" 
d="M750 1593l176 -1593h-340l-25 240h-178l-22 -240h-342l180 1593h551zM487 1294h-32l-47 -764h126zM926 -591q-96 -40 -198 -40q-147 0 -247.5 81t-100.5 220q0 181 264 330h211q-84 -102 -122 -166t-38 -113q0 -58 31 -85t84 -27q50 0 116 23v-223z" />
    <glyph glyph-name="aogonek" unicode="&#x105;" horiz-adv-x="1004" 
d="M41 430q0 199 59 299q51 86 177 145q64 30 286 106v3q0 32 -0.5 52t-1 45t-1.5 40t-3 33t-4.5 27.5t-7 21t-10 17.5t-12.5 11t-16.5 7t-20.5 2q-74 0 -74 -82v-101h-348q-1 17 -1 49q0 214 101.5 313.5t339.5 99.5q77 0 149 -21.5t134 -64t99.5 -117.5t37.5 -172v-1143
h-356v156q-18 -66 -83 -120t-140 -54q-54 0 -95 9.5t-82 38.5t-67.5 77.5t-43 130t-16.5 192.5zM406 570v-175q0 -133 80 -133q22 0 38 12t24 31t11 37t3 37v395q-92 -37 -124 -86.5t-32 -117.5zM924 -591q-96 -40 -198 -40q-147 0 -247.5 81t-100.5 220q0 181 264 330h211
q-84 -102 -122 -166t-38 -113q0 -58 31 -85t84 -27q50 0 116 23v-223z" />
    <glyph glyph-name="Cacute" unicode="&#x106;" horiz-adv-x="993" 
d="M343 1732v223l475 218v-347zM937 686v-301q0 -208 -118 -305.5t-330 -97.5q-188 0 -306 107.5t-118 305.5v739q0 237 104.5 354.5t327.5 117.5q91 0 168 -22.5t136.5 -66.5t93.5 -115.5t34 -164.5v-281h-348v185q0 143 -84 143q-50 0 -66 -31.5t-16 -87.5v-753
q0 -49 22.5 -85t59.5 -36q34 0 59 26.5t25 94.5v274h356z" />
    <glyph glyph-name="cacute" unicode="&#x107;" horiz-adv-x="1004" 
d="M381 1640v223l475 218v-347zM59 492v462q0 304 105 434t353 130q193 0 314 -102t121 -281v-256h-365v237q0 56 -16.5 89.5t-63.5 33.5q-88 0 -88 -125v-727q0 -46 20 -84.5t66 -38.5q13 0 25.5 5t27 17t23 38.5t8.5 64.5l-2 225h365v-235q0 -185 -119.5 -291t-310.5 -106
q-88 0 -159 17t-118.5 44.5t-82.5 69.5t-54.5 84t-31 96.5t-14.5 99t-3 99.5z" />
    <glyph glyph-name="Ccircumflex" unicode="&#x108;" horiz-adv-x="993" 
d="M701 2135l241 -403h-359l-86 285l-86 -285h-359l241 403h408zM937 686v-301q0 -208 -118 -305.5t-330 -97.5q-188 0 -306 107.5t-118 305.5v739q0 237 104.5 354.5t327.5 117.5q91 0 168 -22.5t136.5 -66.5t93.5 -115.5t34 -164.5v-281h-348v185q0 143 -84 143
q-50 0 -66 -31.5t-16 -87.5v-753q0 -49 22.5 -85t59.5 -36q34 0 59 26.5t25 94.5v274h356z" />
    <glyph glyph-name="ccircumflex" unicode="&#x109;" horiz-adv-x="1004" 
d="M721 2043l241 -403h-359l-86 285l-86 -285h-359l241 403h408zM59 492v462q0 304 105 434t353 130q193 0 314 -102t121 -281v-256h-365v237q0 56 -16.5 89.5t-63.5 33.5q-88 0 -88 -125v-727q0 -46 20 -84.5t66 -38.5q13 0 25.5 5t27 17t23 38.5t8.5 64.5l-2 225h365v-235
q0 -185 -119.5 -291t-310.5 -106q-88 0 -159 17t-118.5 44.5t-82.5 69.5t-54.5 84t-31 96.5t-14.5 99t-3 99.5z" />
    <glyph glyph-name="Cdotaccent" unicode="&#x10a;" horiz-adv-x="993" 
d="M318 1732v298h358v-298h-358zM937 686v-301q0 -208 -118 -305.5t-330 -97.5q-188 0 -306 107.5t-118 305.5v739q0 237 104.5 354.5t327.5 117.5q91 0 168 -22.5t136.5 -66.5t93.5 -115.5t34 -164.5v-281h-348v185q0 143 -84 143q-50 0 -66 -31.5t-16 -87.5v-753
q0 -49 22.5 -85t59.5 -36q34 0 59 26.5t25 94.5v274h356z" />
    <glyph glyph-name="cdotaccent" unicode="&#x10b;" horiz-adv-x="1004" 
d="M338 1640v298h358v-298h-358zM59 492v462q0 304 105 434t353 130q193 0 314 -102t121 -281v-256h-365v237q0 56 -16.5 89.5t-63.5 33.5q-88 0 -88 -125v-727q0 -46 20 -84.5t66 -38.5q13 0 25.5 5t27 17t23 38.5t8.5 64.5l-2 225h365v-235q0 -185 -119.5 -291
t-310.5 -106q-88 0 -159 17t-118.5 44.5t-82.5 69.5t-54.5 84t-31 96.5t-14.5 99t-3 99.5z" />
    <glyph glyph-name="Ccaron" unicode="&#x10c;" horiz-adv-x="993" 
d="M701 1732h-408l-241 403h359l86 -285l86 285h359zM937 686v-301q0 -208 -118 -305.5t-330 -97.5q-188 0 -306 107.5t-118 305.5v739q0 237 104.5 354.5t327.5 117.5q91 0 168 -22.5t136.5 -66.5t93.5 -115.5t34 -164.5v-281h-348v185q0 143 -84 143q-50 0 -66 -31.5
t-16 -87.5v-753q0 -49 22.5 -85t59.5 -36q34 0 59 26.5t25 94.5v274h356z" />
    <glyph glyph-name="ccaron" unicode="&#x10d;" horiz-adv-x="1004" 
d="M721 1640h-408l-241 403h359l86 -285l86 285h359zM59 492v462q0 304 105 434t353 130q193 0 314 -102t121 -281v-256h-365v237q0 56 -16.5 89.5t-63.5 33.5q-88 0 -88 -125v-727q0 -46 20 -84.5t66 -38.5q13 0 25.5 5t27 17t23 38.5t8.5 64.5l-2 225h365v-235
q0 -185 -119.5 -291t-310.5 -106q-88 0 -159 17t-118.5 44.5t-82.5 69.5t-54.5 84t-31 96.5t-14.5 99t-3 99.5z" />
    <glyph glyph-name="Dcaron" unicode="&#x10e;" horiz-adv-x="1020" 
d="M725 1732h-408l-241 403h359l86 -285l86 285h359zM87 0v1593h485q197 0 287.5 -100.5t91.5 -275.5l4 -744q0 -239 -93.5 -356t-301.5 -117h-473zM441 1311v-1020q3 1 12 1q6 0 22.5 -1t26.5 -1q101 0 101 85v786q0 87 -27.5 119.5t-95.5 32.5q-11 0 -39 -2z" />
    <glyph glyph-name="dcaron" unicode="&#x10f;" horiz-adv-x="1513" 
d="M64 477l4 676q0 72 19 136.5t56 116t97.5 82t136.5 30.5q143 0 217 -99v348h358v-1767h-358v159q-38 -101 -94.5 -139t-128.5 -38q-52 0 -94.5 9.5t-73 30t-54 45t-38.5 61.5t-24.5 72.5t-14.5 85t-6.5 92t-1.5 99.5zM422 1083v-563v-26v-34v-4v-4q0 -188 86 -188
q16 0 28.5 6t21.5 18.5t15.5 24.5t10.5 33t6.5 35.5t3 39t1 36t0 35t-0.5 28.5v563q0 23 -2.5 45t-10.5 49.5t-26 44.5t-45 17q-28 0 -47 -14t-27 -39.5t-11 -48.5t-3 -54zM1088 1294v298h374v-289l-102 -245h-211l66 236h-127z" />
    <glyph glyph-name="Dcroat" unicode="&#x110;" horiz-adv-x="1020" 
d="M87 0v714h-87v248h87v631h485q197 0 287.5 -100.5t91.5 -275.5l4 -744q0 -239 -93.5 -356t-301.5 -117h-473zM441 1311v-349h129v-248h-129v-423q3 1 12 1q6 0 22.5 -1t26.5 -1q101 0 101 85v786q0 87 -27.5 119.5t-95.5 32.5q-11 0 -39 -2z" />
    <glyph glyph-name="dcroat" unicode="&#x111;" horiz-adv-x="1036" 
d="M64 477l4 576q0 72 19 136.5t56 116t97.5 82t136.5 30.5q143 0 217 -99v183h-105v172h105v93h358v-93h53v-172h-53v-1502h-358v159q-38 -101 -94.5 -139t-128.5 -38q-52 0 -94.5 9.5t-73 30t-54 45t-38.5 61.5t-24.5 72.5t-14.5 85t-6.5 92t-1.5 99.5zM422 983v-531
q0 -188 86 -188q16 0 28.5 6t21.5 18.5t15.5 24.5t10.5 33t6.5 35.5t3 39t1 36t0 35t-0.5 28.5v463q0 23 -2.5 45t-10.5 49.5t-26 44.5t-45 17q-28 0 -47 -14t-27 -39.5t-11 -48.5t-3 -54z" />
    <glyph glyph-name="Emacron" unicode="&#x112;" horiz-adv-x="862" 
d="M154 1732v248h570v-248h-570zM87 0v1593h704v-309h-346v-311h332v-299h-332v-363h369v-311h-727z" />
    <glyph glyph-name="emacron" unicode="&#x113;" 
d="M227 1640v248h570v-248h-570zM494 -18q-80 0 -145 16.5t-109.5 43t-77 67t-51.5 82.5t-30.5 96t-15 100t-3.5 102v603q0 207 118.5 316.5t331.5 109.5q432 0 432 -426v-109q0 -203 -4 -279h-520v-210q0 -10 -0.5 -32.5t-0.5 -34.5q0 -36 3 -61.5t11 -52t26.5 -40
t46.5 -13.5q29 0 47 20.5t25.5 59t9.5 68.5t2 75q0 88 -2 96h356v-85q0 -125 -19 -213t-67.5 -158.5t-138.5 -105.5t-225 -35zM508 1249q-28 0 -47 -14.5t-28 -43.5t-12 -59.5t-3 -74.5q0 -21 1 -63t1 -63h168v156q0 162 -80 162z" />
    <glyph glyph-name="Ebreve" unicode="&#x114;" horiz-adv-x="862" 
d="M439 1972q53 0 84 27t31 85q0 1 316 1q2 -24 2 -35q0 -148 -114.5 -233t-320.5 -85q-202 0 -317 83.5t-115 227.5q0 21 3 42l316 -1q0 -58 31 -85t84 -27zM87 0v1593h704v-309h-346v-311h332v-299h-332v-363h369v-311h-727z" />
    <glyph glyph-name="ebreve" unicode="&#x115;" 
d="M513 1880q53 0 84 27t31 85q0 1 316 1q2 -24 2 -35q0 -148 -114.5 -233t-320.5 -85q-202 0 -317 83.5t-115 227.5q0 21 3 42l316 -1q0 -58 31 -85t84 -27zM494 -18q-80 0 -145 16.5t-109.5 43t-77 67t-51.5 82.5t-30.5 96t-15 100t-3.5 102v603q0 207 118.5 316.5
t331.5 109.5q432 0 432 -426v-109q0 -203 -4 -279h-520v-210q0 -10 -0.5 -32.5t-0.5 -34.5q0 -36 3 -61.5t11 -52t26.5 -40t46.5 -13.5q29 0 47 20.5t25.5 59t9.5 68.5t2 75q0 88 -2 96h356v-85q0 -125 -19 -213t-67.5 -158.5t-138.5 -105.5t-225 -35zM508 1249
q-28 0 -47 -14.5t-28 -43.5t-12 -59.5t-3 -74.5q0 -21 1 -63t1 -63h168v156q0 162 -80 162z" />
    <glyph glyph-name="Edotaccent" unicode="&#x116;" horiz-adv-x="862" 
d="M260 1732v298h358v-298h-358zM87 0v1593h704v-309h-346v-311h332v-299h-332v-363h369v-311h-727z" />
    <glyph glyph-name="edotaccent" unicode="&#x117;" 
d="M333 1640v298h358v-298h-358zM494 -18q-80 0 -145 16.5t-109.5 43t-77 67t-51.5 82.5t-30.5 96t-15 100t-3.5 102v603q0 207 118.5 316.5t331.5 109.5q432 0 432 -426v-109q0 -203 -4 -279h-520v-210q0 -10 -0.5 -32.5t-0.5 -34.5q0 -36 3 -61.5t11 -52t26.5 -40
t46.5 -13.5q29 0 47 20.5t25.5 59t9.5 68.5t2 75q0 88 -2 96h356v-85q0 -125 -19 -213t-67.5 -158.5t-138.5 -105.5t-225 -35zM508 1249q-28 0 -47 -14.5t-28 -43.5t-12 -59.5t-3 -74.5q0 -21 1 -63t1 -63h168v156q0 162 -80 162z" />
    <glyph glyph-name="Eogonek" unicode="&#x118;" horiz-adv-x="862" 
d="M87 0v1593h704v-309h-346v-311h332v-299h-332v-363h369v-311h-727zM818 -591q-96 -40 -198 -40q-147 0 -247.5 81t-100.5 220q0 181 264 330h211q-84 -102 -122 -166t-38 -113q0 -58 31 -85t84 -27q50 0 116 23v-223z" />
    <glyph glyph-name="eogonek" unicode="&#x119;" 
d="M494 -18q-80 0 -145 16.5t-109.5 43t-77 67t-51.5 82.5t-30.5 96t-15 100t-3.5 102v603q0 207 118.5 316.5t331.5 109.5q432 0 432 -426v-109q0 -203 -4 -279h-520v-210q0 -10 -0.5 -32.5t-0.5 -34.5q0 -36 3 -61.5t11 -52t26.5 -40t46.5 -13.5q29 0 47 20.5t25.5 59
t9.5 68.5t2 75q0 88 -2 96h356v-85q0 -125 -19 -213t-67.5 -158.5t-138.5 -105.5t-225 -35zM508 1249q-28 0 -47 -14.5t-28 -43.5t-12 -59.5t-3 -74.5q0 -21 1 -63t1 -63h168v156q0 162 -80 162zM713 -591q-96 -40 -198 -40q-147 0 -247.5 81t-100.5 220q0 181 264 330h211
q-84 -102 -122 -166t-38 -113q0 -58 31 -85t84 -27q50 0 116 23v-223z" />
    <glyph glyph-name="Ecaron" unicode="&#x11a;" horiz-adv-x="862" 
d="M643 1732h-408l-241 403h359l86 -285l86 285h359zM87 0v1593h704v-309h-346v-311h332v-299h-332v-363h369v-311h-727z" />
    <glyph glyph-name="ecaron" unicode="&#x11b;" 
d="M716 1640h-408l-241 403h359l86 -285l86 285h359zM494 -18q-80 0 -145 16.5t-109.5 43t-77 67t-51.5 82.5t-30.5 96t-15 100t-3.5 102v603q0 207 118.5 316.5t331.5 109.5q432 0 432 -426v-109q0 -203 -4 -279h-520v-210q0 -10 -0.5 -32.5t-0.5 -34.5q0 -36 3 -61.5
t11 -52t26.5 -40t46.5 -13.5q29 0 47 20.5t25.5 59t9.5 68.5t2 75q0 88 -2 96h356v-85q0 -125 -19 -213t-67.5 -158.5t-138.5 -105.5t-225 -35zM508 1249q-28 0 -47 -14.5t-28 -43.5t-12 -59.5t-3 -74.5q0 -21 1 -63t1 -63h168v156q0 162 -80 162z" />
    <glyph glyph-name="Gcircumflex" unicode="&#x11c;" horiz-adv-x="1003" 
d="M705 2135l241 -403h-359l-86 285l-86 -285h-359l241 403h408zM796 0l-60 135q-94 -153 -290 -153q-381 0 -381 493v690q0 113 30 197t73.5 129.5t106.5 72.5t114.5 34.5t111.5 7.5q74 0 134 -10.5t103.5 -32.5t76.5 -49.5t54.5 -68t35 -80t20.5 -95t9.5 -103.5t2.5 -113
h-336v126q0 38 -8 63t-22.5 35.5t-26.5 14t-27 3.5q-30 0 -48.5 -8t-29 -20t-15.5 -43.5t-6 -59.5t-1 -88v-616q0 -35 2.5 -59t11.5 -52t29.5 -42.5t52.5 -14.5q53 0 70.5 41.5t17.5 134.5v184h-94v275h426v-928h-137z" />
    <glyph glyph-name="gcircumflex" unicode="&#x11d;" horiz-adv-x="1040" 
d="M724 2043l241 -403h-359l-86 285l-86 -285h-359l241 403h408zM470 -220q-147 0 -243.5 24.5t-186.5 99.5l121 207q131 -78 262 -78q82 0 126 52t44 146v83q-44 -154 -229 -154q-79 0 -138.5 31t-93.5 85t-50.5 121t-16.5 146v563q0 117 21 198.5t62 127.5t93.5 66
t122.5 20q36 0 68 -8t65 -27.5t58.5 -58t37.5 -93.5v169h365v-1246q0 -137 -31.5 -230t-96 -146t-151 -75.5t-209.5 -22.5zM505 1243q-27 0 -44.5 -12t-24 -35.5t-8 -38.5t-1.5 -41v-534q0 -28 2 -47.5t9 -47t25 -42.5t46 -15q84 0 84 152v534q0 43 -23.5 85t-64.5 42z" />
    <glyph glyph-name="Gbreve" unicode="&#x11e;" horiz-adv-x="1003" 
d="M501 1972q53 0 84 27t31 85q0 1 316 1q2 -24 2 -35q0 -148 -114.5 -233t-320.5 -85q-202 0 -317 83.5t-115 227.5q0 21 3 42l316 -1q0 -58 31 -85t84 -27zM796 0l-60 135q-94 -153 -290 -153q-381 0 -381 493v690q0 113 30 197t73.5 129.5t106.5 72.5t114.5 34.5
t111.5 7.5q74 0 134 -10.5t103.5 -32.5t76.5 -49.5t54.5 -68t35 -80t20.5 -95t9.5 -103.5t2.5 -113h-336v126q0 38 -8 63t-22.5 35.5t-26.5 14t-27 3.5q-30 0 -48.5 -8t-29 -20t-15.5 -43.5t-6 -59.5t-1 -88v-616q0 -35 2.5 -59t11.5 -52t29.5 -42.5t52.5 -14.5
q53 0 70.5 41.5t17.5 134.5v184h-94v275h426v-928h-137z" />
    <glyph glyph-name="gbreve" unicode="&#x11f;" horiz-adv-x="1040" 
d="M523 1880q53 0 84 27t31 85q0 1 316 1q2 -24 2 -35q0 -148 -114.5 -233t-320.5 -85q-202 0 -317 83.5t-115 227.5q0 21 3 42l316 -1q0 -58 31 -85t84 -27zM470 -220q-147 0 -243.5 24.5t-186.5 99.5l121 207q131 -78 262 -78q82 0 126 52t44 146v83q-44 -154 -229 -154
q-79 0 -138.5 31t-93.5 85t-50.5 121t-16.5 146v563q0 117 21 198.5t62 127.5t93.5 66t122.5 20q36 0 68 -8t65 -27.5t58.5 -58t37.5 -93.5v169h365v-1246q0 -137 -31.5 -230t-96 -146t-151 -75.5t-209.5 -22.5zM505 1243q-27 0 -44.5 -12t-24 -35.5t-8 -38.5t-1.5 -41v-534
q0 -28 2 -47.5t9 -47t25 -42.5t46 -15q84 0 84 152v534q0 43 -23.5 85t-64.5 42z" />
    <glyph glyph-name="Gdotaccent" unicode="&#x120;" horiz-adv-x="1003" 
d="M322 1732v298h358v-298h-358zM796 0l-60 135q-94 -153 -290 -153q-381 0 -381 493v690q0 113 30 197t73.5 129.5t106.5 72.5t114.5 34.5t111.5 7.5q74 0 134 -10.5t103.5 -32.5t76.5 -49.5t54.5 -68t35 -80t20.5 -95t9.5 -103.5t2.5 -113h-336v126q0 38 -8 63t-22.5 35.5
t-26.5 14t-27 3.5q-30 0 -48.5 -8t-29 -20t-15.5 -43.5t-6 -59.5t-1 -88v-616q0 -35 2.5 -59t11.5 -52t29.5 -42.5t52.5 -14.5q53 0 70.5 41.5t17.5 134.5v184h-94v275h426v-928h-137z" />
    <glyph glyph-name="gdotaccent" unicode="&#x121;" horiz-adv-x="1040" 
d="M350 1640v298h358v-298h-358zM470 -220q-147 0 -243.5 24.5t-186.5 99.5l121 207q131 -78 262 -78q82 0 126 52t44 146v83q-44 -154 -229 -154q-79 0 -138.5 31t-93.5 85t-50.5 121t-16.5 146v563q0 117 21 198.5t62 127.5t93.5 66t122.5 20q36 0 68 -8t65 -27.5
t58.5 -58t37.5 -93.5v169h365v-1246q0 -137 -31.5 -230t-96 -146t-151 -75.5t-209.5 -22.5zM505 1243q-27 0 -44.5 -12t-24 -35.5t-8 -38.5t-1.5 -41v-534q0 -28 2 -47.5t9 -47t25 -42.5t46 -15q84 0 84 152v534q0 43 -23.5 85t-64.5 42z" />
    <glyph glyph-name="Gcommaaccent" unicode="&#x122;" horiz-adv-x="1003" 
d="M292 -438v298h374v-289l-102 -245h-211l66 236h-127zM796 0l-60 135q-94 -153 -290 -153q-381 0 -381 493v690q0 113 30 197t73.5 129.5t106.5 72.5t114.5 34.5t111.5 7.5q74 0 134 -10.5t103.5 -32.5t76.5 -49.5t54.5 -68t35 -80t20.5 -95t9.5 -103.5t2.5 -113h-336v126
q0 38 -8 63t-22.5 35.5t-26.5 14t-27 3.5q-30 0 -48.5 -8t-29 -20t-15.5 -43.5t-6 -59.5t-1 -88v-616q0 -35 2.5 -59t11.5 -52t29.5 -42.5t52.5 -14.5q53 0 70.5 41.5t17.5 134.5v184h-94v275h426v-928h-137z" />
    <glyph glyph-name="gcommaaccent" unicode="&#x123;" horiz-adv-x="1040" 
d="M470 -220q-147 0 -243.5 24.5t-186.5 99.5l121 207q131 -78 262 -78q82 0 126 52t44 146v83q-44 -154 -229 -154q-79 0 -138.5 31t-93.5 85t-50.5 121t-16.5 146v563q0 117 21 198.5t62 127.5t93.5 66t122.5 20q36 0 68 -8t65 -27.5t58.5 -58t37.5 -93.5v169h365v-1246
q0 -137 -31.5 -230t-96 -146t-151 -75.5t-209.5 -22.5zM505 1243q-27 0 -44.5 -12t-24 -35.5t-8 -38.5t-1.5 -41v-534q0 -28 2 -47.5t9 -47t25 -42.5t46 -15q84 0 84 152v534q0 43 -23.5 85t-64.5 42zM769 1936v-298h-374v289l102 245h211l-66 -236h127z" />
    <glyph glyph-name="Hcircumflex" unicode="&#x124;" horiz-adv-x="1040" 
d="M724 2135l241 -403h-359l-86 285l-86 -285h-359l241 403h408zM437 723v-723h-350v1593h350v-569h166v569h350v-1593h-350v723h-166z" />
    <glyph glyph-name="hcircumflex" unicode="&#x125;" horiz-adv-x="1059" 
d="M735 2292l241 -403h-359l-86 285l-86 -285h-359l241 403h408zM84 0v1767h368v-416q58 168 219 168q142 0 225 -91.5t83 -272.5v-1155h-359v1034q0 6 0.5 23.5t0.5 27.5q0 158 -89 158q-26 0 -53 -25.5t-27 -82.5v-1135h-368z" />
    <glyph glyph-name="Hbar" unicode="&#x126;" horiz-adv-x="1040" 
d="M437 723v-723h-350v1187h-88v218h88v188h350v-188h166v188h350v-188h88v-218h-88v-1187h-350v723h-166zM603 1024v163h-166v-163h166z" />
    <glyph glyph-name="hbar" unicode="&#x127;" horiz-adv-x="1059" 
d="M84 0v1416h-84v176h84v175h368v-175h118v-176h-118v-303q58 168 219 168q142 0 225 -91.5t83 -272.5v-917h-359v796q0 6 0.5 23.5t0.5 27.5q0 158 -89 158q-26 0 -53 -25.5t-27 -82.5v-897h-368z" />
    <glyph glyph-name="Itilde" unicode="&#x128;" horiz-adv-x="514" 
d="M130 1842q-32 0 -58 -89l-222 106q53 130 120.5 194.5t159.5 64.5q38 0 82 -27t86 -54t75 -27t59 79l232 -56q-55 -150 -126 -225.5t-166 -75.5q-35 0 -71 17t-60.5 38t-55 38t-55.5 17zM87 0v1593h340v-1593h-340z" />
    <glyph glyph-name="itilde" unicode="&#x129;" horiz-adv-x="526" 
d="M136 1750q-32 0 -58 -89l-222 106q53 130 120.5 194.5t159.5 64.5q38 0 82 -27t86 -54t75 -27t59 79l232 -56q-55 -150 -126 -225.5t-166 -75.5q-35 0 -71 17t-60.5 38t-55 38t-55.5 17zM84 0v1500h358v-1500h-358z" />
    <glyph glyph-name="Imacron" unicode="&#x12a;" horiz-adv-x="514" 
d="M-28 1732v248h570v-248h-570zM87 0v1593h340v-1593h-340z" />
    <glyph glyph-name="imacron" unicode="&#x12b;" horiz-adv-x="526" 
d="M-22 1640v248h570v-248h-570zM84 0v1500h358v-1500h-358z" />
    <glyph glyph-name="Ibreve" unicode="&#x12c;" horiz-adv-x="514" 
d="M257 1972q53 0 84 27t31 85q0 1 316 1q2 -24 2 -35q0 -148 -114.5 -233t-320.5 -85q-202 0 -317 83.5t-115 227.5q0 21 3 42l316 -1q0 -58 31 -85t84 -27zM87 0v1593h340v-1593h-340z" />
    <glyph glyph-name="ibreve" unicode="&#x12d;" horiz-adv-x="526" 
d="M263 1880q53 0 84 27t31 85q0 1 316 1q2 -24 2 -35q0 -148 -114.5 -233t-320.5 -85q-202 0 -317 83.5t-115 227.5q0 21 3 42l316 -1q0 -58 31 -85t84 -27zM84 0v1500h358v-1500h-358z" />
    <glyph glyph-name="Iogonek" unicode="&#x12e;" horiz-adv-x="514" 
d="M434 -570q-96 -40 -198 -40q-147 0 -247.5 81t-100.5 220q0 181 264 330h211q-84 -102 -122 -166t-38 -113q0 -58 31 -85t84 -27q50 0 116 23v-223zM87 0v1593h340v-1593h-340z" />
    <glyph glyph-name="iogonek" unicode="&#x12f;" horiz-adv-x="526" 
d="M440 -570q-96 -40 -198 -40q-147 0 -247.5 81t-100.5 220q0 181 264 330h211q-84 -102 -122 -166t-38 -113q0 -58 31 -85t84 -27q50 0 116 23v-223zM84 0v1501h358v-1501h-358zM84 1593v176h358v-176h-358z" />
    <glyph glyph-name="Idotaccent" unicode="&#x130;" horiz-adv-x="514" 
d="M87 0v1593h340v-1593h-340zM78 1684v298h358v-298h-358z" />
    <glyph glyph-name="dotlessi" unicode="&#x131;" horiz-adv-x="526" 
d="M84 0v1500h358v-1500h-358z" />
    <glyph glyph-name="Jcircumflex" unicode="&#x134;" horiz-adv-x="965" 
d="M911 2135l241 -403h-359l-86 285l-86 -285h-359l241 403h408zM454 -18q-84 0 -160.5 24t-137 69t-96.5 117t-36 160v400h348v-349q0 -43 19 -70.5t59 -27.5q80 0 80 139q0 11 -0.5 28.5t-0.5 23.5v1097h355v-1194q0 -192 -121 -304.5t-309 -112.5z" />
    <glyph glyph-name="jcircumflex" unicode="&#x135;" horiz-adv-x="550" 
d="M113 1500h358v-1334q0 -169 -67.5 -255.5t-214.5 -86.5q-115 0 -152 26v240q16 -5 33 -5q25 0 34 17.5t9 53.5v1344zM483 2008l241 -403h-359l-86 285l-86 -285h-359l241 403h408z" />
    <glyph glyph-name="Kcommaaccent" unicode="&#x136;" horiz-adv-x="982" 
d="M354 -420v298h374v-289l-102 -245h-211l66 236h-127zM599 1593h354l-197 -729l238 -864h-365l-192 772v-772h-350v1593h348v-637z" />
    <glyph glyph-name="kcommaaccent" unicode="&#x137;" horiz-adv-x="1017" 
d="M376 -420v298h374v-289l-102 -245h-211l66 236h-127zM84 0v1769h354v-786l172 517h371l-225 -652l286 -848h-381l-223 707v-707h-354z" />
    <glyph glyph-name="Lacute" unicode="&#x139;" horiz-adv-x="809" 
d="M290 1732v223l475 218v-347zM87 0v1593h352v-1282h362v-311h-714z" />
    <glyph glyph-name="lacute" unicode="&#x13a;" horiz-adv-x="532" 
d="M85 1889v223l475 218v-347zM448 0h-364v1767h364v-1767z" />
    <glyph glyph-name="Lcommaaccent" unicode="&#x13b;" horiz-adv-x="809" 
d="M257 -420v298h374v-289l-102 -245h-211l66 236h-127zM87 0v1593h352v-1282h362v-311h-714z" />
    <glyph glyph-name="lcommaaccent" unicode="&#x13c;" horiz-adv-x="532" 
d="M79 -420v298h374v-289l-102 -245h-211l66 236h-127zM448 0h-364v1767h364v-1767z" />
    <glyph glyph-name="Lcaron" unicode="&#x13d;" horiz-adv-x="809" 
d="M87 0v1593h352v-1282h362v-311h-714zM557 1386v298h374v-289l-102 -245h-211l66 236h-127z" />
    <glyph glyph-name="lcaron" unicode="&#x13e;" horiz-adv-x="1009" 
d="M448 0h-364v1767h364v-1767zM584 1294v298h374v-289l-102 -245h-211l66 236h-127z" />
    <glyph glyph-name="Ldot" unicode="&#x13f;" horiz-adv-x="809" 
d="M87 0v1593h352v-1282h362v-311h-714zM564 723v298h358v-298h-358z" />
    <glyph glyph-name="ldot" unicode="&#x140;" horiz-adv-x="905" 
d="M448 0h-364v1767h364v-1767zM549 723v298h358v-298h-358z" />
    <glyph glyph-name="Lslash" unicode="&#x141;" horiz-adv-x="813" 
d="M91 0v1593h352v-1282h362v-311h-714zM21 509v232l687 232v-232z" />
    <glyph glyph-name="lslash" unicode="&#x142;" horiz-adv-x="547" 
d="M455 0h-364v1767h364v-1767zM16 509v232l516 232v-232z" />
    <glyph glyph-name="Nacute" unicode="&#x143;" horiz-adv-x="1038" 
d="M332 1732v223l475 218v-347zM951 1593v-1593h-344l-176 797v-797h-344v1593h362l162 -762v762h340z" />
    <glyph glyph-name="nacute" unicode="&#x144;" horiz-adv-x="1045" 
d="M380 1640v223l475 218v-347zM84 0v1501h358v-172q22 97 81.5 143t144.5 46q141 0 219 -88.5t78 -272.5v-1157h-353v1120q0 47 -19 83t-61 36q-26 0 -44 -14.5t-26.5 -33t-13.5 -48.5t-5.5 -46t-0.5 -42v-1055h-358z" />
    <glyph glyph-name="Ncommaaccent" unicode="&#x145;" horiz-adv-x="1038" 
d="M332 -420v298h374v-289l-102 -245h-211l66 236h-127zM951 1593v-1593h-344l-176 797v-797h-344v1593h362l162 -762v762h340z" />
    <glyph glyph-name="ncommaaccent" unicode="&#x146;" horiz-adv-x="1045" 
d="M338 -420v298h374v-289l-102 -245h-211l66 236h-127zM84 0v1501h358v-172q22 97 81.5 143t144.5 46q141 0 219 -88.5t78 -272.5v-1157h-353v1120q0 47 -19 83t-61 36q-26 0 -44 -14.5t-26.5 -33t-13.5 -48.5t-5.5 -46t-0.5 -42v-1055h-358z" />
    <glyph glyph-name="Ncaron" unicode="&#x147;" horiz-adv-x="1038" 
d="M723 1732h-408l-241 403h359l86 -285l86 285h359zM951 1593v-1593h-344l-176 797v-797h-344v1593h362l162 -762v762h340z" />
    <glyph glyph-name="ncaron" unicode="&#x148;" horiz-adv-x="1045" 
d="M729 1640h-408l-241 403h359l86 -285l86 285h359zM84 0v1501h358v-172q22 97 81.5 143t144.5 46q141 0 219 -88.5t78 -272.5v-1157h-353v1120q0 47 -19 83t-61 36q-26 0 -44 -14.5t-26.5 -33t-13.5 -48.5t-5.5 -46t-0.5 -42v-1055h-358z" />
    <glyph glyph-name="napostrophe" unicode="&#x149;" horiz-adv-x="1045" 
d="M74 1786v298h374v-289l-102 -245h-211l66 236h-127zM84 0v1501h358v-172q22 97 81.5 143t144.5 46q141 0 219 -88.5t78 -272.5v-1157h-353v1120q0 47 -19 83t-61 36q-26 0 -44 -14.5t-26.5 -33t-13.5 -48.5t-5.5 -46t-0.5 -42v-1055h-358z" />
    <glyph glyph-name="Eng" unicode="&#x14a;" horiz-adv-x="1038" 
d="M439 -144q0 -43 19 -70.5t59 -27.5q80 0 79 139v153l-165 747v-797h-344v1593h362l162 -762v762h340v-1741q0 -96 -32.5 -173t-90 -131.5t-136 -83.5t-171.5 -29q-84 0 -161.5 24t-137.5 70.5t-95.5 115.5t-35.5 160v51h348z" />
    <glyph glyph-name="eng" unicode="&#x14b;" horiz-adv-x="1045" 
d="M84 0v1501h358v-172q22 97 81.5 143t144.5 46q141 0 219 -88.5t78 -272.5v-1001q2 -169 -65.5 -255.5t-214.5 -86.5q-115 0 -152 26v240q16 -5 33 -5q25 0 34 17.5t12 53.5v974q0 47 -19 83t-61 36q-26 0 -44 -14.5t-26.5 -33t-13.5 -48.5t-5.5 -46t-0.5 -42v-1055h-358z
" />
    <glyph glyph-name="Omacron" unicode="&#x14c;" 
d="M212 1732v248h570v-248h-570zM66 430v759q0 199 107.5 308.5t323.5 112.5q222 -3 329.5 -112.5t107.5 -308.5v-759q0 -97 -24.5 -176.5t-74.5 -141.5t-135.5 -96t-196.5 -31q-117 -3 -202.5 31t-135.5 96t-74.5 141.5t-24.5 176.5zM500 297q19 0 33.5 7.5t23 23
t13.5 29.5t7 37.5t2.5 36t0.5 34.5v8v640q0 6 0.5 24t0 27t-1 26.5t-3 27t-6 24t-9.5 22t-14 16t-20 12t-27 3.5q-21 0 -36.5 -7t-24.5 -22.5t-15 -28t-8 -37t-2 -35v-35.5v-7v-6v-640q0 -22 0.5 -35t2.5 -38t7.5 -40.5t14.5 -32.5t24.5 -25.5t36.5 -8.5z" />
    <glyph glyph-name="omacron" unicode="&#x14d;" horiz-adv-x="1018" 
d="M224 1640v248h570v-248h-570zM509 -18q-448 0 -448 467v602q0 215 120 341t328 126q209 0 329 -126t120 -341v-602q0 -235 -114.5 -351t-334.5 -116zM425 1108v-733q0 -60 23.5 -87.5t60.5 -27.5t60.5 27.5t23.5 87.5v733q0 131 -84 131t-84 -131z" />
    <glyph glyph-name="Obreve" unicode="&#x14e;" 
d="M497 1972q53 0 84 27t31 85q0 1 316 1q2 -24 2 -35q0 -148 -114.5 -233t-320.5 -85q-202 0 -317 83.5t-115 227.5q0 21 3 42l316 -1q0 -58 31 -85t84 -27zM66 430v759q0 199 107.5 308.5t323.5 112.5q222 -3 329.5 -112.5t107.5 -308.5v-759q0 -97 -24.5 -176.5
t-74.5 -141.5t-135.5 -96t-196.5 -31q-117 -3 -202.5 31t-135.5 96t-74.5 141.5t-24.5 176.5zM500 297q19 0 33.5 7.5t23 23t13.5 29.5t7 37.5t2.5 36t0.5 34.5v8v640q0 6 0.5 24t0 27t-1 26.5t-3 27t-6 24t-9.5 22t-14 16t-20 12t-27 3.5q-21 0 -36.5 -7t-24.5 -22.5
t-15 -28t-8 -37t-2 -35v-35.5v-7v-6v-640q0 -22 0.5 -35t2.5 -38t7.5 -40.5t14.5 -32.5t24.5 -25.5t36.5 -8.5z" />
    <glyph glyph-name="obreve" unicode="&#x14f;" horiz-adv-x="1018" 
d="M509 1880q53 0 84 27t31 85q0 1 316 1q2 -24 2 -35q0 -148 -114.5 -233t-320.5 -85q-202 0 -317 83.5t-115 227.5q0 21 3 42l316 -1q0 -58 31 -85t84 -27zM509 -18q-448 0 -448 467v602q0 215 120 341t328 126q209 0 329 -126t120 -341v-602q0 -235 -114.5 -351
t-334.5 -116zM425 1108v-733q0 -60 23.5 -87.5t60.5 -27.5t60.5 27.5t23.5 87.5v733q0 131 -84 131t-84 -131z" />
    <glyph glyph-name="Ohungarumlaut" unicode="&#x150;" 
d="M346 1732l-166 58l184 479l230 -108zM648 1732l-166 58l221 479l234 -108zM66 430v759q0 199 107.5 308.5t323.5 112.5q222 -3 329.5 -112.5t107.5 -308.5v-759q0 -97 -24.5 -176.5t-74.5 -141.5t-135.5 -96t-196.5 -31q-117 -3 -202.5 31t-135.5 96t-74.5 141.5
t-24.5 176.5zM500 297q19 0 33.5 7.5t23 23t13.5 29.5t7 37.5t2.5 36t0.5 34.5v8v640q0 6 0.5 24t0 27t-1 26.5t-3 27t-6 24t-9.5 22t-14 16t-20 12t-27 3.5q-21 0 -36.5 -7t-24.5 -22.5t-15 -28t-8 -37t-2 -35v-35.5v-7v-6v-640q0 -22 0.5 -35t2.5 -38t7.5 -40.5
t14.5 -32.5t24.5 -25.5t36.5 -8.5z" />
    <glyph glyph-name="ohungarumlaut" unicode="&#x151;" horiz-adv-x="1018" 
d="M358 1640l-166 58l184 479l230 -108zM660 1640l-166 58l221 479l234 -108zM509 -18q-448 0 -448 467v602q0 215 120 341t328 126q209 0 329 -126t120 -341v-602q0 -235 -114.5 -351t-334.5 -116zM425 1108v-733q0 -60 23.5 -87.5t60.5 -27.5t60.5 27.5t23.5 87.5v733
q0 131 -84 131t-84 -131z" />
    <glyph glyph-name="OE" unicode="&#x152;" horiz-adv-x="1352" 
d="M1304 0h-685q-556 0 -556 430v759q0 214 140 309t408 95h670v-309h-337v-311h323v-299h-323v-363h360v-311zM411 477q0 -86 32.5 -127.5t82.5 -41.5q30 0 61 14v958q-27 9 -55 9q-52 0 -86.5 -35t-34.5 -107v-670z" />
    <glyph glyph-name="oe" unicode="&#x153;" horiz-adv-x="1531" 
d="M509 -18q-448 0 -448 467v602q0 215 120 341t328 126q153 0 265 -96q102 96 269 96q432 0 432 -426v-109q0 -203 -4 -279h-520v-210q0 -10 -0.5 -32.5t-0.5 -34.5q0 -36 3 -61.5t11 -52t26.5 -40t46.5 -13.5q29 0 47 20.5t25.5 59t9.5 68.5t2 75q0 88 -2 96h356v-85
q0 -125 -19 -213t-67.5 -158.5t-138.5 -105.5t-225 -35q-151 0 -246 87q-105 -87 -270 -87zM425 1108v-733q0 -60 23.5 -87.5t60.5 -27.5t60.5 27.5t23.5 87.5v733q0 131 -84 131t-84 -131zM1039 1249q-28 0 -47 -14.5t-28 -43.5t-12 -59.5t-3 -74.5q0 -21 1 -63t1 -63h168
v156q0 162 -80 162z" />
    <glyph glyph-name="Racute" unicode="&#x154;" horiz-adv-x="997" 
d="M317 1732v223l475 218v-347zM443 725v-725h-356v1593h540q83 0 142 -22.5t93 -59t53.5 -97t25.5 -121t6 -146.5q0 -45 -1.5 -73.5t-11 -72t-26.5 -72.5t-51.5 -57t-83.5 -43q49 -9 81 -33.5t46 -60.5t19 -66.5t5 -68.5q0 -395 -4 -600h-344v621q0 37 -7.5 59t-28 31.5
t-39.5 11.5t-58 2zM445 1298v-297h88q70 0 70 146q0 97 -27.5 124t-111.5 27h-19z" />
    <glyph glyph-name="racute" unicode="&#x155;" horiz-adv-x="945" 
d="M309 1640v223l475 218v-347zM84 0v1500h358v-167q30 103 84 144t137 41q100 0 176 -61.5t76 -178.5v-502h-350v359q0 27 -2.5 45.5t-16 35.5t-38.5 17q-26 0 -46 -23t-20 -63v-1147h-358z" />
    <glyph glyph-name="Rcommaaccent" unicode="&#x156;" horiz-adv-x="997" 
d="M316 -420v298h374v-289l-102 -245h-211l66 236h-127zM443 725v-725h-356v1593h540q83 0 142 -22.5t93 -59t53.5 -97t25.5 -121t6 -146.5q0 -45 -1.5 -73.5t-11 -72t-26.5 -72.5t-51.5 -57t-83.5 -43q49 -9 81 -33.5t46 -60.5t19 -66.5t5 -68.5q0 -395 -4 -600h-344v621
q0 37 -7.5 59t-28 31.5t-39.5 11.5t-58 2zM445 1298v-297h88q70 0 70 146q0 97 -27.5 124t-111.5 27h-19z" />
    <glyph glyph-name="rcommaaccent" unicode="&#x157;" horiz-adv-x="945" 
d="M76 -420v298h374v-289l-102 -245h-211l66 236h-127zM84 0v1500h358v-167q30 103 84 144t137 41q100 0 176 -61.5t76 -178.5v-502h-350v359q0 27 -2.5 45.5t-16 35.5t-38.5 17q-26 0 -46 -23t-20 -63v-1147h-358z" />
    <glyph glyph-name="Rcaron" unicode="&#x158;" horiz-adv-x="997" 
d="M681 1732h-408l-241 403h359l86 -285l86 285h359zM443 725v-725h-356v1593h540q83 0 142 -22.5t93 -59t53.5 -97t25.5 -121t6 -146.5q0 -45 -1.5 -73.5t-11 -72t-26.5 -72.5t-51.5 -57t-83.5 -43q49 -9 81 -33.5t46 -60.5t19 -66.5t5 -68.5q0 -395 -4 -600h-344v621
q0 37 -7.5 59t-28 31.5t-39.5 11.5t-58 2zM445 1298v-297h88q70 0 70 146q0 97 -27.5 124t-111.5 27h-19z" />
    <glyph glyph-name="rcaron" unicode="&#x159;" horiz-adv-x="945" 
d="M703 1640h-408l-241 403h359l86 -285l86 285h359zM84 0v1500h358v-167q30 103 84 144t137 41q100 0 176 -61.5t76 -178.5v-502h-350v359q0 27 -2.5 45.5t-16 35.5t-38.5 17q-26 0 -46 -23t-20 -63v-1147h-358z" />
    <glyph glyph-name="Sacute" unicode="&#x15a;" horiz-adv-x="951" 
d="M329 1732v223l475 218v-347zM502 -18q-245 0 -349.5 112t-104.5 346v156h348v-143q0 -154 84 -154q39 0 61.5 30t22.5 79q0 64 -17.5 108t-53 83.5t-116.5 109.5l-149 129q-180 155 -180 350q0 212 108.5 315.5t298.5 103.5h9h53t126 -22.5t137 -75t90 -146t30 -228.5
h-357l-2 96q-1 27 -23 48t-49 21q-35 0 -59.5 -21.5t-24.5 -55.5q0 -68 99 -148l213 -172q52 -42 90.5 -85.5t61 -86t36.5 -77t19.5 -75t6.5 -61t1 -53.5q0 -84 -11 -152.5t-39 -132t-73.5 -106t-118 -67.5t-168.5 -25z" />
    <glyph glyph-name="sacute" unicode="&#x15b;" horiz-adv-x="974" 
d="M322 1640v223l475 218v-347zM559 1053l-2 57q0 20 -3 40t-11 41.5t-24 34.5t-38 13q-37 0 -56.5 -21t-19.5 -59q0 -80 64 -127l221 -162q66 -49 114 -103t72.5 -98.5t39 -95.5t17.5 -83t3 -72q0 -215 -121.5 -325.5t-329.5 -110.5q-444 0 -444 452l2 119h358l2 -176
q0 -36 8.5 -59.5t23.5 -33.5t27.5 -13t28.5 -3q72 0 72 117q0 30 -1 43.5t-7.5 40t-21 46.5t-42 49t-69.5 61l-191 147q-62 48 -100.5 93.5t-56 96t-22.5 91t-5 104.5q0 115 66 199t164.5 123t213.5 39q211 0 323.5 -107t112.5 -330v-28h-368z" />
    <glyph glyph-name="Scircumflex" unicode="&#x15c;" horiz-adv-x="951" 
d="M690 2135l241 -403h-359l-86 285l-86 -285h-359l241 403h408zM502 -18q-245 0 -349.5 112t-104.5 346v156h348v-143q0 -154 84 -154q39 0 61.5 30t22.5 79q0 64 -17.5 108t-53 83.5t-116.5 109.5l-149 129q-180 155 -180 350q0 212 108.5 315.5t298.5 103.5h9h53
t126 -22.5t137 -75t90 -146t30 -228.5h-357l-2 96q-1 27 -23 48t-49 21q-35 0 -59.5 -21.5t-24.5 -55.5q0 -68 99 -148l213 -172q52 -42 90.5 -85.5t61 -86t36.5 -77t19.5 -75t6.5 -61t1 -53.5q0 -84 -11 -152.5t-39 -132t-73.5 -106t-118 -67.5t-168.5 -25z" />
    <glyph glyph-name="scircumflex" unicode="&#x15d;" horiz-adv-x="974" 
d="M695 2043l241 -403h-359l-86 285l-86 -285h-359l241 403h408zM559 1053l-2 57q0 20 -3 40t-11 41.5t-24 34.5t-38 13q-37 0 -56.5 -21t-19.5 -59q0 -80 64 -127l221 -162q66 -49 114 -103t72.5 -98.5t39 -95.5t17.5 -83t3 -72q0 -215 -121.5 -325.5t-329.5 -110.5
q-444 0 -444 452l2 119h358l2 -176q0 -36 8.5 -59.5t23.5 -33.5t27.5 -13t28.5 -3q72 0 72 117q0 30 -1 43.5t-7.5 40t-21 46.5t-42 49t-69.5 61l-191 147q-62 48 -100.5 93.5t-56 96t-22.5 91t-5 104.5q0 115 66 199t164.5 123t213.5 39q211 0 323.5 -107t112.5 -330v-28
h-368z" />
    <glyph glyph-name="Scedilla" unicode="&#x15e;" horiz-adv-x="951" 
d="M502 -18q-245 0 -349.5 112t-104.5 346v156h348v-143q0 -154 84 -154q39 0 61.5 30t22.5 79q0 64 -17.5 108t-53 83.5t-116.5 109.5l-149 129q-180 155 -180 350q0 212 108.5 315.5t298.5 103.5h9h53t126 -22.5t137 -75t90 -146t30 -228.5h-357l-2 96q-1 27 -23 48
t-49 21q-35 0 -59.5 -21.5t-24.5 -55.5q0 -68 99 -148l213 -172q52 -42 90.5 -85.5t61 -86t36.5 -77t19.5 -75t6.5 -61t1 -53.5q0 -84 -11 -152.5t-39 -132t-73.5 -106t-118 -67.5t-168.5 -25zM306 -591v223q66 -23 116 -23q53 0 84 27t31 85q0 56 -42.5 106.5t-117.5 66.5
v106h211v-76q127 -17 195.5 -89t68.5 -165q0 -139 -100.5 -220t-247.5 -81q-102 0 -198 40z" />
    <glyph glyph-name="scedilla" unicode="&#x15f;" horiz-adv-x="974" 
d="M559 1053l-2 57q0 20 -3 40t-11 41.5t-24 34.5t-38 13q-37 0 -56.5 -21t-19.5 -59q0 -80 64 -127l221 -162q66 -49 114 -103t72.5 -98.5t39 -95.5t17.5 -83t3 -72q0 -215 -121.5 -325.5t-329.5 -110.5q-444 0 -444 452l2 119h358l2 -176q0 -36 8.5 -59.5t23.5 -33.5
t27.5 -13t28.5 -3q72 0 72 117q0 30 -1 43.5t-7.5 40t-21 46.5t-42 49t-69.5 61l-191 147q-62 48 -100.5 93.5t-56 96t-22.5 91t-5 104.5q0 115 66 199t164.5 123t213.5 39q211 0 323.5 -107t112.5 -330v-28h-368zM296 -591v223q66 -23 116 -23q53 0 84 27t31 85
q0 56 -42.5 106.5t-117.5 66.5v106h211v-76q127 -17 195.5 -89t68.5 -165q0 -139 -100.5 -220t-247.5 -81q-102 0 -198 40z" />
    <glyph glyph-name="Scaron" unicode="&#x160;" horiz-adv-x="951" 
d="M690 1732h-408l-241 403h359l86 -285l86 285h359zM502 -18q-245 0 -349.5 112t-104.5 346v156h348v-143q0 -154 84 -154q39 0 61.5 30t22.5 79q0 64 -17.5 108t-53 83.5t-116.5 109.5l-149 129q-180 155 -180 350q0 212 108.5 315.5t298.5 103.5h9h53t126 -22.5t137 -75
t90 -146t30 -228.5h-357l-2 96q-1 27 -23 48t-49 21q-35 0 -59.5 -21.5t-24.5 -55.5q0 -68 99 -148l213 -172q52 -42 90.5 -85.5t61 -86t36.5 -77t19.5 -75t6.5 -61t1 -53.5q0 -84 -11 -152.5t-39 -132t-73.5 -106t-118 -67.5t-168.5 -25z" />
    <glyph glyph-name="scaron" unicode="&#x161;" horiz-adv-x="974" 
d="M695 1640h-408l-241 403h359l86 -285l86 285h359zM559 1053l-2 57q0 20 -3 40t-11 41.5t-24 34.5t-38 13q-37 0 -56.5 -21t-19.5 -59q0 -80 64 -127l221 -162q66 -49 114 -103t72.5 -98.5t39 -95.5t17.5 -83t3 -72q0 -215 -121.5 -325.5t-329.5 -110.5q-444 0 -444 452
l2 119h358l2 -176q0 -36 8.5 -59.5t23.5 -33.5t27.5 -13t28.5 -3q72 0 72 117q0 30 -1 43.5t-7.5 40t-21 46.5t-42 49t-69.5 61l-191 147q-62 48 -100.5 93.5t-56 96t-22.5 91t-5 104.5q0 115 66 199t164.5 123t213.5 39q211 0 323.5 -107t112.5 -330v-28h-368z" />
    <glyph glyph-name="Tcommaaccent" unicode="&#x162;" horiz-adv-x="811" 
d="M20 1593h770v-307h-209v-1286h-352v1286h-209v307zM218 -420v298h374v-289l-102 -245h-211l66 236h-127z" />
    <glyph glyph-name="tcommaaccent" unicode="&#x163;" horiz-adv-x="569" 
d="M101 1761h348v-319h64v-273h-64v-844q0 -19 1 -30t4 -23.5t11.5 -18t21.5 -5.5t26 4v-244q-76 -26 -191 -26q-58 0 -99.5 15.5t-64.5 38t-36.5 58t-17 66.5t-3.5 71v938h-55v273h55v319zM135 -438v298h374v-289l-102 -245h-211l66 236h-127z" />
    <glyph glyph-name="Tcaron" unicode="&#x164;" horiz-adv-x="811" 
d="M609 1732h-408l-241 403h359l86 -285l86 285h359zM20 1593h770v-307h-209v-1286h-352v1286h-209v307z" />
    <glyph glyph-name="tcaron" unicode="&#x165;" horiz-adv-x="1046" 
d="M101 1761h348v-319h64v-273h-64v-844q0 -19 1 -30t4 -23.5t11.5 -18t21.5 -5.5t26 4v-244q-76 -26 -191 -26q-58 0 -99.5 15.5t-64.5 38t-36.5 58t-17 66.5t-3.5 71v938h-55v273h55v319zM621 1294v298h374v-289l-102 -245h-211l66 236h-127z" />
    <glyph glyph-name="Tbar" unicode="&#x166;" horiz-adv-x="811" 
d="M20 1593h770v-307h-209v-375h109v-248h-109v-663h-352v663h-109v248h109v375h-209v307z" />
    <glyph glyph-name="tbar" unicode="&#x167;" horiz-adv-x="569" 
d="M101 1761h348v-319h64v-273h-64v-232h120v-248h-120v-364q0 -19 1 -30t4 -23.5t11.5 -18t21.5 -5.5t26 4v-244q-76 -26 -191 -26q-58 0 -99.5 15.5t-64.5 38t-36.5 58t-17 66.5t-3.5 71v458h-102v248h102v232h-55v273h55v319z" />
    <glyph glyph-name="Utilde" unicode="&#x168;" horiz-adv-x="1020" 
d="M383 1842q-32 0 -58 -89l-222 106q53 130 120.5 194.5t159.5 64.5q38 0 82 -27t86 -54t75 -27t59 79l232 -56q-55 -150 -126 -225.5t-166 -75.5q-35 0 -71 17t-60.5 38t-55 38t-55.5 17zM82 422v1171h342v-1140v-7q0 -26 0.5 -41t5 -41t13 -41t25.5 -26.5t42 -11.5
q21 0 36.5 7t24.5 21.5t14.5 28t7.5 36t2.5 34.5t0.5 34v7v1140h342v-1171q0 -216 -103.5 -328t-322.5 -111q-223 -1 -326.5 111t-103.5 328z" />
    <glyph glyph-name="utilde" unicode="&#x169;" horiz-adv-x="1046" 
d="M394 1750q-32 0 -58 -89l-222 106q53 130 120.5 194.5t159.5 64.5q38 0 82 -27t86 -54t75 -27t59 79l232 -56q-55 -150 -126 -225.5t-166 -75.5q-35 0 -71 17t-60.5 38t-55 38t-55.5 17zM606 1500h356v-1500h-358v160q-42 -106 -96.5 -142t-134.5 -36q-76 0 -131 22.5
t-86 57t-48.5 90t-22.5 107.5t-5 124v1117h360v-1045q0 -114 13.5 -152.5t66.5 -38.5q20 0 35.5 7.5t24 23.5t14 31t7.5 39.5t2.5 38.5t0.5 39v12z" />
    <glyph glyph-name="Umacron" unicode="&#x16a;" horiz-adv-x="1020" 
d="M225 1732v248h570v-248h-570zM82 422v1171h342v-1140v-7q0 -26 0.5 -41t5 -41t13 -41t25.5 -26.5t42 -11.5q21 0 36.5 7t24.5 21.5t14.5 28t7.5 36t2.5 34.5t0.5 34v7v1140h342v-1171q0 -216 -103.5 -328t-322.5 -111q-223 -1 -326.5 111t-103.5 328z" />
    <glyph glyph-name="umacron" unicode="&#x16b;" horiz-adv-x="1046" 
d="M236 1640v248h570v-248h-570zM606 1500h356v-1500h-358v160q-42 -106 -96.5 -142t-134.5 -36q-76 0 -131 22.5t-86 57t-48.5 90t-22.5 107.5t-5 124v1117h360v-1045q0 -114 13.5 -152.5t66.5 -38.5q20 0 35.5 7.5t24 23.5t14 31t7.5 39.5t2.5 38.5t0.5 39v12z" />
    <glyph glyph-name="Ubreve" unicode="&#x16c;" horiz-adv-x="1020" 
d="M511 1972q53 0 84 27t31 85q0 1 316 1q2 -24 2 -35q0 -148 -114.5 -233t-320.5 -85q-202 0 -317 83.5t-115 227.5q0 21 3 42l316 -1q0 -58 31 -85t84 -27zM82 422v1171h342v-1140v-7q0 -26 0.5 -41t5 -41t13 -41t25.5 -26.5t42 -11.5q21 0 36.5 7t24.5 21.5t14.5 28
t7.5 36t2.5 34.5t0.5 34v7v1140h342v-1171q0 -216 -103.5 -328t-322.5 -111q-223 -1 -326.5 111t-103.5 328z" />
    <glyph glyph-name="ubreve" unicode="&#x16d;" horiz-adv-x="1046" 
d="M521 1880q53 0 84 27t31 85q0 1 316 1q2 -24 2 -35q0 -148 -114.5 -233t-320.5 -85q-202 0 -317 83.5t-115 227.5q0 21 3 42l316 -1q0 -58 31 -85t84 -27zM606 1500h356v-1500h-358v160q-42 -106 -96.5 -142t-134.5 -36q-76 0 -131 22.5t-86 57t-48.5 90t-22.5 107.5
t-5 124v1117h360v-1045q0 -114 13.5 -152.5t66.5 -38.5q20 0 35.5 7.5t24 23.5t14 31t7.5 39.5t2.5 38.5t0.5 39v12z" />
    <glyph glyph-name="Uring" unicode="&#x16e;" horiz-adv-x="1020" 
d="M369 2070q0 -63 36.5 -110t105.5 -47t105.5 47t36.5 110t-36.5 110t-105.5 47t-105.5 -47t-36.5 -110zM157 2070q0 156 94.5 247t258.5 91t259 -91t95 -247t-95 -247t-259 -91t-258.5 91t-94.5 247zM82 422v1171h342v-1140v-7q0 -26 0.5 -41t5 -41t13 -41t25.5 -26.5
t42 -11.5q21 0 36.5 7t24.5 21.5t14.5 28t7.5 36t2.5 34.5t0.5 34v7v1140h342v-1171q0 -216 -103.5 -328t-322.5 -111q-223 -1 -326.5 111t-103.5 328z" />
    <glyph glyph-name="uring" unicode="&#x16f;" horiz-adv-x="1046" 
d="M379 1978q0 -63 36.5 -110t105.5 -47t105.5 47t36.5 110t-36.5 110t-105.5 47t-105.5 -47t-36.5 -110zM167 1978q0 156 94.5 247t258.5 91t259 -91t95 -247t-95 -247t-259 -91t-258.5 91t-94.5 247zM606 1500h356v-1500h-358v160q-42 -106 -96.5 -142t-134.5 -36
q-76 0 -131 22.5t-86 57t-48.5 90t-22.5 107.5t-5 124v1117h360v-1045q0 -114 13.5 -152.5t66.5 -38.5q20 0 35.5 7.5t24 23.5t14 31t7.5 39.5t2.5 38.5t0.5 39v12z" />
    <glyph glyph-name="Uhungarumlaut" unicode="&#x170;" horiz-adv-x="1020" 
d="M359 1732l-166 58l184 479l230 -108zM661 1732l-166 58l221 479l234 -108zM82 422v1171h342v-1140v-7q0 -26 0.5 -41t5 -41t13 -41t25.5 -26.5t42 -11.5q21 0 36.5 7t24.5 21.5t14.5 28t7.5 36t2.5 34.5t0.5 34v7v1140h342v-1171q0 -216 -103.5 -328t-322.5 -111
q-223 -1 -326.5 111t-103.5 328z" />
    <glyph glyph-name="uhungarumlaut" unicode="&#x171;" horiz-adv-x="1046" 
d="M370 1640l-166 58l184 479l230 -108zM672 1640l-166 58l221 479l234 -108zM606 1500h356v-1500h-358v160q-42 -106 -96.5 -142t-134.5 -36q-76 0 -131 22.5t-86 57t-48.5 90t-22.5 107.5t-5 124v1117h360v-1045q0 -114 13.5 -152.5t66.5 -38.5q20 0 35.5 7.5t24 23.5
t14 31t7.5 39.5t2.5 38.5t0.5 39v12z" />
    <glyph glyph-name="Uogonek" unicode="&#x172;" horiz-adv-x="1020" 
d="M82 422v1171h342v-1140v-7q0 -26 0.5 -41t5 -41t13 -41t25.5 -26.5t42 -11.5q21 0 36.5 7t24.5 21.5t14.5 28t7.5 36t2.5 34.5t0.5 34v7v1140h342v-1171q0 -216 -103.5 -328t-322.5 -111q-223 -1 -326.5 111t-103.5 328zM728 -591q-96 -40 -198 -40q-147 0 -247.5 81
t-100.5 220q0 181 264 330h211q-84 -102 -122 -166t-38 -113q0 -58 31 -85t84 -27q50 0 116 23v-223z" />
    <glyph glyph-name="uogonek" unicode="&#x173;" horiz-adv-x="1046" 
d="M606 1500h356v-1500h-358v160q-42 -106 -96.5 -142t-134.5 -36q-76 0 -131 22.5t-86 57t-48.5 90t-22.5 107.5t-5 124v1117h360v-1045q0 -114 13.5 -152.5t66.5 -38.5q20 0 35.5 7.5t24 23.5t14 31t7.5 39.5t2.5 38.5t0.5 39v12zM962 -591q-96 -40 -198 -40
q-147 0 -247.5 81t-100.5 220q0 181 264 330h211q-84 -102 -122 -166t-38 -113q0 -58 31 -85t84 -27q50 0 116 23v-223z" />
    <glyph glyph-name="Wcircumflex" unicode="&#x174;" horiz-adv-x="1431" 
d="M920 2135l241 -403h-359l-86 285l-86 -285h-359l241 403h408zM455 588l99 1005h328l94 -1005l94 1005h348l-192 -1593h-422l-88 768l-84 -768h-429l-189 1593h344z" />
    <glyph glyph-name="wcircumflex" unicode="&#x175;" horiz-adv-x="1444" 
d="M926 2043l241 -403h-359l-86 285l-86 -285h-359l241 403h408zM902 1500l84 -917l92 917h357l-216 -1500h-406l-93 921l-89 -921h-406l-216 1500h357l89 -917l87 917h360z" />
    <glyph glyph-name="Ycircumflex" unicode="&#x176;" horiz-adv-x="859" 
d="M633 2135l241 -403h-359l-86 285l-86 -285h-359l241 403h408zM596 0h-332v524l-281 1069h349l98 -540l98 540h348l-280 -1069v-524z" />
    <glyph glyph-name="ycircumflex" unicode="&#x177;" horiz-adv-x="905" 
d="M661 2043l241 -403h-359l-86 285l-86 -285h-359l241 403h408zM31 -186v227h112q56 0 76.5 14t20.5 48q0 19 -5 52l-231 1346h353l66 -680l24 -332l28 332l80 680h355l-278 -1515q-4 -28 -11.5 -51t-15 -40t-20.5 -30t-23 -21.5t-28 -14.5t-29.5 -9t-34 -4.5t-35.5 -1.5
h-39h-365z" />
    <glyph glyph-name="Ydieresis" unicode="&#x178;" horiz-adv-x="859" 
d="M9 1732v298h358v-298h-358zM493 1732v298h358v-298h-358zM596 0h-332v524l-281 1069h349l98 -540l98 540h348l-280 -1069v-524z" />
    <glyph glyph-name="Zacute" unicode="&#x179;" horiz-adv-x="886" 
d="M309 1732v223l475 218v-347zM34 0v303l422 981h-383v309h774v-297l-430 -989h413v-307h-796z" />
    <glyph glyph-name="zacute" unicode="&#x17a;" horiz-adv-x="878" 
d="M290 1640v223l475 218v-347zM32 0v272l413 922h-374v306h770v-306l-402 -893h377v-301h-784z" />
    <glyph glyph-name="Zdotaccent" unicode="&#x17b;" horiz-adv-x="886" 
d="M281 1732v298h358v-298h-358zM34 0v303l422 981h-383v309h774v-297l-430 -989h413v-307h-796z" />
    <glyph glyph-name="zdotaccent" unicode="&#x17c;" horiz-adv-x="878" 
d="M277 1640v298h358v-298h-358zM32 0v272l413 922h-374v306h770v-306l-402 -893h377v-301h-784z" />
    <glyph glyph-name="Zcaron" unicode="&#x17d;" horiz-adv-x="886" 
d="M664 1732h-408l-241 403h359l86 -285l86 285h359zM34 0v303l422 981h-383v309h774v-297l-430 -989h413v-307h-796z" />
    <glyph glyph-name="zcaron" unicode="&#x17e;" horiz-adv-x="878" 
d="M660 1640h-408l-241 403h359l86 -285l86 285h359zM32 0v272l413 922h-374v306h770v-306l-402 -893h377v-301h-784z" />
    <glyph glyph-name="florin" unicode="&#x192;" horiz-adv-x="623" 
d="M488 986v-791q0 -242 -242 -242q-127 0 -204 29v221q28 -5 43 -5q34 0 44.5 19.5t10.5 61.5v18l-7 689h-85v277h85v102q0 242 242 242q127 0 204 -29v-221q-28 5 -43 5q-34 0 -44.5 -19.5t-10.5 -61.5v-18h98v-277h-91z" />
    <glyph glyph-name="uni01D3" unicode="&#x1d3;" horiz-adv-x="1020" 
d="M714 1732h-408l-241 403h359l86 -285l86 285h359zM82 422v1171h342v-1140v-7q0 -26 0.5 -41t5 -41t13 -41t25.5 -26.5t42 -11.5q21 0 36.5 7t24.5 21.5t14.5 28t7.5 36t2.5 34.5t0.5 34v7v1140h342v-1171q0 -216 -103.5 -328t-322.5 -111q-223 -1 -326.5 111t-103.5 328z
" />
    <glyph glyph-name="uni01D4" unicode="&#x1d4;" horiz-adv-x="1046" 
d="M725 1640h-408l-241 403h359l86 -285l86 285h359zM606 1500h356v-1500h-358v160q-42 -106 -96.5 -142t-134.5 -36q-76 0 -131 22.5t-86 57t-48.5 90t-22.5 107.5t-5 124v1117h360v-1045q0 -114 13.5 -152.5t66.5 -38.5q20 0 35.5 7.5t24 23.5t14 31t7.5 39.5t2.5 38.5
t0.5 39v12z" />
    <glyph glyph-name="uni01E2" unicode="&#x1e2;" horiz-adv-x="1294" 
d="M482 1732v248h570v-248h-570zM579 0l-1 120v120h-208l-39 -240h-341l321 1593h912v-309h-286v-311h272v-299h-272v-363h309v-311h-667zM574 1294h-28l-130 -764h158v764z" />
    <glyph glyph-name="uni01E3" unicode="&#x1e3;" horiz-adv-x="1500" 
d="M470 1640v248h570v-248h-570zM1034 -18q-61 0 -113.5 18t-82.5 40t-53.5 50.5t-29.5 39.5t-9 18l-8 -17q-8 -17 -31 -41q-22 -24 -54 -49t-86.5 -42t-119.5 -17q-50 0 -99 9.5t-107.5 39t-102 76.5t-73 130.5t-29.5 192.5q0 200 59 299q51 86 177 145q64 30 286 106v3
q0 32 -0.5 52t-1 45t-1.5 40t-3 33t-4.5 27.5t-7 21t-10 17.5t-12.5 11t-16.5 7t-20.5 2q-74 0 -74 -82v-101h-348q-1 17 -1 49q0 214 101.5 313.5t339.5 99.5q164 0 246 -122q80 122 267 122q432 0 432 -426v-109q0 -203 -4 -279h-521v-210q0 -234 87 -234q19 0 34 9.5
t24 28.5t14.5 38.5t8 48.5t3 49t0.5 49q0 88 -2 96h356v-85q0 -99 -10 -173.5t-37.5 -141t-73 -108t-118 -65.5t-171.5 -24zM401 570v-175q0 -133 80 -133q22 0 38 12t24 31t11 37t3 37v395q-92 -37 -124 -86.5t-32 -117.5zM1008 1249q-51 0 -70 -40t-19 -157v-121h169v156
q0 162 -80 162z" />
    <glyph glyph-name="AEacute" unicode="&#x1fc;" horiz-adv-x="1294" 
d="M727 1732v223l475 218v-347zM579 0l-1 120v120h-208l-39 -240h-341l321 1593h912v-309h-286v-311h272v-299h-272v-363h309v-311h-667zM574 1294h-28l-130 -764h158v764z" />
    <glyph glyph-name="aeacute" unicode="&#x1fd;" horiz-adv-x="1500" 
d="M715 1640v223l475 218v-347zM1034 -18q-61 0 -113.5 18t-82.5 40t-53.5 50.5t-29.5 39.5t-9 18l-8 -17q-8 -17 -31 -41q-22 -24 -54 -49t-86.5 -42t-119.5 -17q-50 0 -99 9.5t-107.5 39t-102 76.5t-73 130.5t-29.5 192.5q0 200 59 299q51 86 177 145q64 30 286 106v3
q0 32 -0.5 52t-1 45t-1.5 40t-3 33t-4.5 27.5t-7 21t-10 17.5t-12.5 11t-16.5 7t-20.5 2q-74 0 -74 -82v-101h-348q-1 17 -1 49q0 214 101.5 313.5t339.5 99.5q164 0 246 -122q80 122 267 122q432 0 432 -426v-109q0 -203 -4 -279h-521v-210q0 -234 87 -234q19 0 34 9.5
t24 28.5t14.5 38.5t8 48.5t3 49t0.5 49q0 88 -2 96h356v-85q0 -99 -10 -173.5t-37.5 -141t-73 -108t-118 -65.5t-171.5 -24zM401 570v-175q0 -133 80 -133q22 0 38 12t24 31t11 37t3 37v395q-92 -37 -124 -86.5t-32 -117.5zM1008 1249q-51 0 -70 -40t-19 -157v-121h169v156
q0 162 -80 162z" />
    <glyph glyph-name="Oslashacute" unicode="&#x1fe;" 
d="M460 1821v223l475 218v-347zM500 -18q-84 0 -155 19l-34 -121l-100 28l37 134q-182 109 -182 388v759q0 199 107.5 308.5t326.5 109.5q98 0 176 -23l32 115l101 -28l-37 -131q162 -103 162 -351v-759q0 -97 -24.5 -176.5t-74.5 -141.5t-135.5 -96t-199.5 -34zM500 1295
q-21 0 -36.5 -7t-24.5 -22.5t-15 -28t-8 -37t-2 -35v-35.5v-7v-6v-478l162 583q-14 73 -76 73zM500 297q19 0 33.5 7.5t23 23t13.5 29.5t7 37.5t2.5 36t0.5 34.5v8v373l-143 -513q21 -36 63 -36z" />
    <glyph glyph-name="oslashacute" unicode="&#x1ff;" horiz-adv-x="1018" 
d="M469 1794v223l475 218v-347zM509 -18q-90 0 -167 20l-49 -175l-100 28l52 187q-184 109 -184 407v602q0 215 120 341t328 126q74 0 144 -19l49 173l101 -28l-52 -185q100 -57 153.5 -161.5t53.5 -246.5v-602q0 -235 -114.5 -351t-334.5 -116zM509 260q37 0 60.5 27.5
t23.5 87.5v520l-161 -574q18 -61 77 -61zM509 1239q-84 0 -84 -131v-425l146 523q-21 33 -62 33z" />
    <glyph glyph-name="uni0200" unicode="&#x200;" horiz-adv-x="947" 
d="M625 1732l-248 429l230 108l184 -479zM323 1732l-289 429l234 108l221 -479zM750 1593l176 -1593h-340l-25 240h-178l-22 -240h-342l180 1593h551zM487 1294h-32l-47 -764h126z" />
    <glyph glyph-name="uni0201" unicode="&#x201;" horiz-adv-x="1004" 
d="M655 1640l-248 429l230 108l184 -479zM353 1640l-289 429l234 108l221 -479zM41 430q0 199 59 299q51 86 177 145q64 30 286 106v3q0 32 -0.5 52t-1 45t-1.5 40t-3 33t-4.5 27.5t-7 21t-10 17.5t-12.5 11t-16.5 7t-20.5 2q-74 0 -74 -82v-101h-348q-1 17 -1 49
q0 214 101.5 313.5t339.5 99.5q77 0 149 -21.5t134 -64t99.5 -117.5t37.5 -172v-1143h-356v156q-18 -66 -83 -120t-140 -54q-54 0 -95 9.5t-82 38.5t-67.5 77.5t-43 130t-16.5 192.5zM406 570v-175q0 -133 80 -133q22 0 38 12t24 31t11 37t3 37v395q-92 -37 -124 -86.5
t-32 -117.5z" />
    <glyph glyph-name="uni0202" unicode="&#x202;" horiz-adv-x="947" 
d="M475 1845q53 0 84 -27t31 -85q0 -1 316 -1q2 24 2 35q0 148 -114.5 233t-320.5 85q-202 0 -317 -83.5t-115 -227.5q0 -21 3 -42l316 1q0 58 31 85t84 27zM750 1593l176 -1593h-340l-25 240h-178l-22 -240h-342l180 1593h551zM487 1294h-32l-47 -764h126z" />
    <glyph glyph-name="uni0203" unicode="&#x203;" horiz-adv-x="1004" 
d="M505 1753q53 0 84 -27t31 -85q0 -1 316 -1q2 24 2 35q0 148 -114.5 233t-320.5 85q-202 0 -317 -83.5t-115 -227.5q0 -21 3 -42l316 1q0 58 31 85t84 27zM41 430q0 199 59 299q51 86 177 145q64 30 286 106v3q0 32 -0.5 52t-1 45t-1.5 40t-3 33t-4.5 27.5t-7 21t-10 17.5
t-12.5 11t-16.5 7t-20.5 2q-74 0 -74 -82v-101h-348q-1 17 -1 49q0 214 101.5 313.5t339.5 99.5q77 0 149 -21.5t134 -64t99.5 -117.5t37.5 -172v-1143h-356v156q-18 -66 -83 -120t-140 -54q-54 0 -95 9.5t-82 38.5t-67.5 77.5t-43 130t-16.5 192.5zM406 570v-175
q0 -133 80 -133q22 0 38 12t24 31t11 37t3 37v395q-92 -37 -124 -86.5t-32 -117.5z" />
    <glyph glyph-name="uni0204" unicode="&#x204;" horiz-adv-x="862" 
d="M590 1732l-248 429l230 108l184 -479zM288 1732l-289 429l234 108l221 -479zM87 0v1593h704v-309h-346v-311h332v-299h-332v-363h369v-311h-727z" />
    <glyph glyph-name="uni0205" unicode="&#x205;" 
d="M663 1640l-248 429l230 108l184 -479zM361 1640l-289 429l234 108l221 -479zM494 -18q-80 0 -145 16.5t-109.5 43t-77 67t-51.5 82.5t-30.5 96t-15 100t-3.5 102v603q0 207 118.5 316.5t331.5 109.5q432 0 432 -426v-109q0 -203 -4 -279h-520v-210q0 -10 -0.5 -32.5
t-0.5 -34.5q0 -36 3 -61.5t11 -52t26.5 -40t46.5 -13.5q29 0 47 20.5t25.5 59t9.5 68.5t2 75q0 88 -2 96h356v-85q0 -125 -19 -213t-67.5 -158.5t-138.5 -105.5t-225 -35zM508 1249q-28 0 -47 -14.5t-28 -43.5t-12 -59.5t-3 -74.5q0 -21 1 -63t1 -63h168v156q0 162 -80 162z
" />
    <glyph glyph-name="uni0206" unicode="&#x206;" horiz-adv-x="862" 
d="M439 1845q53 0 84 -27t31 -85q0 -1 316 -1q2 24 2 35q0 148 -114.5 233t-320.5 85q-202 0 -317 -83.5t-115 -227.5q0 -21 3 -42l316 1q0 58 31 85t84 27zM87 0v1593h704v-309h-346v-311h332v-299h-332v-363h369v-311h-727z" />
    <glyph glyph-name="uni0207" unicode="&#x207;" 
d="M513 1753q53 0 84 -27t31 -85q0 -1 316 -1q2 24 2 35q0 148 -114.5 233t-320.5 85q-202 0 -317 -83.5t-115 -227.5q0 -21 3 -42l316 1q0 58 31 85t84 27zM494 -18q-80 0 -145 16.5t-109.5 43t-77 67t-51.5 82.5t-30.5 96t-15 100t-3.5 102v603q0 207 118.5 316.5
t331.5 109.5q432 0 432 -426v-109q0 -203 -4 -279h-520v-210q0 -10 -0.5 -32.5t-0.5 -34.5q0 -36 3 -61.5t11 -52t26.5 -40t46.5 -13.5q29 0 47 20.5t25.5 59t9.5 68.5t2 75q0 88 -2 96h356v-85q0 -125 -19 -213t-67.5 -158.5t-138.5 -105.5t-225 -35zM508 1249
q-28 0 -47 -14.5t-28 -43.5t-12 -59.5t-3 -74.5q0 -21 1 -63t1 -63h168v156q0 162 -80 162z" />
    <glyph glyph-name="uni0208" unicode="&#x208;" horiz-adv-x="514" 
d="M408 1732l-248 429l230 108l184 -479zM106 1732l-289 429l234 108l221 -479zM87 0v1593h340v-1593h-340z" />
    <glyph glyph-name="uni0209" unicode="&#x209;" horiz-adv-x="526" 
d="M414 1640l-248 429l230 108l184 -479zM112 1640l-289 429l234 108l221 -479zM84 0v1500h358v-1500h-358z" />
    <glyph glyph-name="uni020A" unicode="&#x20a;" horiz-adv-x="514" 
d="M257 1845q53 0 84 -27t31 -85q0 -1 316 -1q2 24 2 35q0 148 -114.5 233t-320.5 85q-202 0 -317 -83.5t-115 -227.5q0 -21 3 -42l316 1q0 58 31 85t84 27zM87 0v1593h340v-1593h-340z" />
    <glyph glyph-name="uni020B" unicode="&#x20b;" horiz-adv-x="526" 
d="M263 1753q53 0 84 -27t31 -85q0 -1 316 -1q2 24 2 35q0 148 -114.5 233t-320.5 85q-202 0 -317 -83.5t-115 -227.5q0 -21 3 -42l316 1q0 58 31 85t84 27zM84 0v1500h358v-1500h-358z" />
    <glyph glyph-name="uni020C" unicode="&#x20c;" 
d="M648 1732l-248 429l230 108l184 -479zM346 1732l-289 429l234 108l221 -479zM66 430v759q0 199 107.5 308.5t323.5 112.5q222 -3 329.5 -112.5t107.5 -308.5v-759q0 -97 -24.5 -176.5t-74.5 -141.5t-135.5 -96t-196.5 -31q-117 -3 -202.5 31t-135.5 96t-74.5 141.5
t-24.5 176.5zM500 297q19 0 33.5 7.5t23 23t13.5 29.5t7 37.5t2.5 36t0.5 34.5v8v640q0 6 0.5 24t0 27t-1 26.5t-3 27t-6 24t-9.5 22t-14 16t-20 12t-27 3.5q-21 0 -36.5 -7t-24.5 -22.5t-15 -28t-8 -37t-2 -35v-35.5v-7v-6v-640q0 -22 0.5 -35t2.5 -38t7.5 -40.5
t14.5 -32.5t24.5 -25.5t36.5 -8.5z" />
    <glyph glyph-name="uni020D" unicode="&#x20d;" horiz-adv-x="1018" 
d="M660 1640l-248 429l230 108l184 -479zM358 1640l-289 429l234 108l221 -479zM509 -18q-448 0 -448 467v602q0 215 120 341t328 126q209 0 329 -126t120 -341v-602q0 -235 -114.5 -351t-334.5 -116zM425 1108v-733q0 -60 23.5 -87.5t60.5 -27.5t60.5 27.5t23.5 87.5v733
q0 131 -84 131t-84 -131z" />
    <glyph glyph-name="uni020E" unicode="&#x20e;" 
d="M497 1845q53 0 84 -27t31 -85q0 -1 316 -1q2 24 2 35q0 148 -114.5 233t-320.5 85q-202 0 -317 -83.5t-115 -227.5q0 -21 3 -42l316 1q0 58 31 85t84 27zM66 430v759q0 199 107.5 308.5t323.5 112.5q222 -3 329.5 -112.5t107.5 -308.5v-759q0 -97 -24.5 -176.5
t-74.5 -141.5t-135.5 -96t-196.5 -31q-117 -3 -202.5 31t-135.5 96t-74.5 141.5t-24.5 176.5zM500 297q19 0 33.5 7.5t23 23t13.5 29.5t7 37.5t2.5 36t0.5 34.5v8v640q0 6 0.5 24t0 27t-1 26.5t-3 27t-6 24t-9.5 22t-14 16t-20 12t-27 3.5q-21 0 -36.5 -7t-24.5 -22.5
t-15 -28t-8 -37t-2 -35v-35.5v-7v-6v-640q0 -22 0.5 -35t2.5 -38t7.5 -40.5t14.5 -32.5t24.5 -25.5t36.5 -8.5z" />
    <glyph glyph-name="uni020F" unicode="&#x20f;" horiz-adv-x="1018" 
d="M509 1753q53 0 84 -27t31 -85q0 -1 316 -1q2 24 2 35q0 148 -114.5 233t-320.5 85q-202 0 -317 -83.5t-115 -227.5q0 -21 3 -42l316 1q0 58 31 85t84 27zM509 -18q-448 0 -448 467v602q0 215 120 341t328 126q209 0 329 -126t120 -341v-602q0 -235 -114.5 -351
t-334.5 -116zM425 1108v-733q0 -60 23.5 -87.5t60.5 -27.5t60.5 27.5t23.5 87.5v733q0 131 -84 131t-84 -131z" />
    <glyph glyph-name="uni0210" unicode="&#x210;" horiz-adv-x="997" 
d="M508 1732l-248 429l230 108l184 -479zM206 1732l-289 429l234 108l221 -479zM443 725v-725h-356v1593h540q83 0 142 -22.5t93 -59t53.5 -97t25.5 -121t6 -146.5q0 -45 -1.5 -73.5t-11 -72t-26.5 -72.5t-51.5 -57t-83.5 -43q49 -9 81 -33.5t46 -60.5t19 -66.5t5 -68.5
q0 -395 -4 -600h-344v621q0 37 -7.5 59t-28 31.5t-39.5 11.5t-58 2zM445 1298v-297h88q70 0 70 146q0 97 -27.5 124t-111.5 27h-19z" />
    <glyph glyph-name="uni0211" unicode="&#x211;" horiz-adv-x="945" 
d="M651 1640l-248 429l230 108l184 -479zM349 1640l-289 429l234 108l221 -479zM84 0v1500h358v-167q30 103 84 144t137 41q100 0 176 -61.5t76 -178.5v-502h-350v359q0 27 -2.5 45.5t-16 35.5t-38.5 17q-26 0 -46 -23t-20 -63v-1147h-358z" />
    <glyph glyph-name="uni0212" unicode="&#x212;" horiz-adv-x="997" 
d="M357 1845q53 0 84 -27t31 -85q0 -1 316 -1q2 24 2 35q0 148 -114.5 233t-320.5 85q-202 0 -317 -83.5t-115 -227.5q0 -21 3 -42l316 1q0 58 31 85t84 27zM443 725v-725h-356v1593h540q83 0 142 -22.5t93 -59t53.5 -97t25.5 -121t6 -146.5q0 -45 -1.5 -73.5t-11 -72
t-26.5 -72.5t-51.5 -57t-83.5 -43q49 -9 81 -33.5t46 -60.5t19 -66.5t5 -68.5q0 -395 -4 -600h-344v621q0 37 -7.5 59t-28 31.5t-39.5 11.5t-58 2zM445 1298v-297h88q70 0 70 146q0 97 -27.5 124t-111.5 27h-19z" />
    <glyph glyph-name="uni0213" unicode="&#x213;" horiz-adv-x="945" 
d="M500 1753q53 0 84 -27t31 -85q0 -1 316 -1q2 24 2 35q0 148 -114.5 233t-320.5 85q-202 0 -317 -83.5t-115 -227.5q0 -21 3 -42l316 1q0 58 31 85t84 27zM84 0v1500h358v-167q30 103 84 144t137 41q100 0 176 -61.5t76 -178.5v-502h-350v359q0 27 -2.5 45.5t-16 35.5
t-38.5 17q-26 0 -46 -23t-20 -63v-1147h-358z" />
    <glyph glyph-name="uni0214" unicode="&#x214;" horiz-adv-x="1020" 
d="M661 1732l-248 429l230 108l184 -479zM359 1732l-289 429l234 108l221 -479zM82 422v1171h342v-1140v-7q0 -26 0.5 -41t5 -41t13 -41t25.5 -26.5t42 -11.5q21 0 36.5 7t24.5 21.5t14.5 28t7.5 36t2.5 34.5t0.5 34v7v1140h342v-1171q0 -216 -103.5 -328t-322.5 -111
q-223 -1 -326.5 111t-103.5 328z" />
    <glyph glyph-name="uni0215" unicode="&#x215;" horiz-adv-x="1046" 
d="M672 1640l-248 429l230 108l184 -479zM370 1640l-289 429l234 108l221 -479zM606 1500h356v-1500h-358v160q-42 -106 -96.5 -142t-134.5 -36q-76 0 -131 22.5t-86 57t-48.5 90t-22.5 107.5t-5 124v1117h360v-1045q0 -114 13.5 -152.5t66.5 -38.5q20 0 35.5 7.5t24 23.5
t14 31t7.5 39.5t2.5 38.5t0.5 39v12z" />
    <glyph glyph-name="uni0216" unicode="&#x216;" horiz-adv-x="1020" 
d="M511 1845q53 0 84 -27t31 -85q0 -1 316 -1q2 24 2 35q0 148 -114.5 233t-320.5 85q-202 0 -317 -83.5t-115 -227.5q0 -21 3 -42l316 1q0 58 31 85t84 27zM82 422v1171h342v-1140v-7q0 -26 0.5 -41t5 -41t13 -41t25.5 -26.5t42 -11.5q21 0 36.5 7t24.5 21.5t14.5 28
t7.5 36t2.5 34.5t0.5 34v7v1140h342v-1171q0 -216 -103.5 -328t-322.5 -111q-223 -1 -326.5 111t-103.5 328z" />
    <glyph glyph-name="uni0217" unicode="&#x217;" horiz-adv-x="1046" 
d="M521 1753q53 0 84 -27t31 -85q0 -1 316 -1q2 24 2 35q0 148 -114.5 233t-320.5 85q-202 0 -317 -83.5t-115 -227.5q0 -21 3 -42l316 1q0 58 31 85t84 27zM606 1500h356v-1500h-358v160q-42 -106 -96.5 -142t-134.5 -36q-76 0 -131 22.5t-86 57t-48.5 90t-22.5 107.5
t-5 124v1117h360v-1045q0 -114 13.5 -152.5t66.5 -38.5q20 0 35.5 7.5t24 23.5t14 31t7.5 39.5t2.5 38.5t0.5 39v12z" />
    <glyph glyph-name="Scommaaccent" unicode="&#x218;" horiz-adv-x="951" 
d="M315 -438v298h374v-289l-102 -245h-211l66 236h-127zM502 -18q-245 0 -349.5 112t-104.5 346v156h348v-143q0 -154 84 -154q39 0 61.5 30t22.5 79q0 64 -17.5 108t-53 83.5t-116.5 109.5l-149 129q-180 155 -180 350q0 212 108.5 315.5t298.5 103.5h9h53t126 -22.5
t137 -75t90 -146t30 -228.5h-357l-2 96q-1 27 -23 48t-49 21q-35 0 -59.5 -21.5t-24.5 -55.5q0 -68 99 -148l213 -172q52 -42 90.5 -85.5t61 -86t36.5 -77t19.5 -75t6.5 -61t1 -53.5q0 -84 -11 -152.5t-39 -132t-73.5 -106t-118 -67.5t-168.5 -25z" />
    <glyph glyph-name="scommaaccent" unicode="&#x219;" horiz-adv-x="974" 
d="M298 -438v298h374v-289l-102 -245h-211l66 236h-127zM559 1053l-2 57q0 20 -3 40t-11 41.5t-24 34.5t-38 13q-37 0 -56.5 -21t-19.5 -59q0 -80 64 -127l221 -162q66 -49 114 -103t72.5 -98.5t39 -95.5t17.5 -83t3 -72q0 -215 -121.5 -325.5t-329.5 -110.5
q-444 0 -444 452l2 119h358l2 -176q0 -36 8.5 -59.5t23.5 -33.5t27.5 -13t28.5 -3q72 0 72 117q0 30 -1 43.5t-7.5 40t-21 46.5t-42 49t-69.5 61l-191 147q-62 48 -100.5 93.5t-56 96t-22.5 91t-5 104.5q0 115 66 199t164.5 123t213.5 39q211 0 323.5 -107t112.5 -330v-28
h-368z" />
    <glyph glyph-name="uni021A" unicode="&#x21a;" horiz-adv-x="811" 
d="M218 -420v298h374v-289l-102 -245h-211l66 236h-127zM20 1593h770v-307h-209v-1286h-352v1286h-209v307z" />
    <glyph glyph-name="uni021B" unicode="&#x21b;" horiz-adv-x="569" 
d="M135 -438v298h374v-289l-102 -245h-211l66 236h-127zM101 1761h348v-319h64v-273h-64v-844q0 -19 1 -30t4 -23.5t11.5 -18t21.5 -5.5t26 4v-244q-76 -26 -191 -26q-58 0 -99.5 15.5t-64.5 38t-36.5 58t-17 66.5t-3.5 71v938h-55v273h55v319z" />
    <glyph glyph-name="uni0237" unicode="&#x237;" horiz-adv-x="550" 
d="M113 1500h358v-1334q0 -169 -67.5 -255.5t-214.5 -86.5q-115 0 -152 26v240q16 -5 33 -5q25 0 34 17.5t9 53.5v1344zM113 1567v202h358v-202h-358z" />
    <glyph glyph-name="circumflex" unicode="&#x2c6;" horiz-adv-x="970" 
d="M689 1994l241 -403h-359l-86 285l-86 -285h-359l241 403h408z" />
    <glyph glyph-name="caron" unicode="&#x2c7;" horiz-adv-x="970" 
d="M689 1591h-408l-241 403h359l86 -285l86 285h359z" />
    <glyph glyph-name="breve" unicode="&#x2d8;" horiz-adv-x="1015" 
d="M503 1832q53 0 84 27t31 85q0 1 316 1q2 -24 2 -35q0 -148 -114.5 -233t-320.5 -85q-202 0 -317 83.5t-115 227.5q0 21 3 42l316 -1q0 -58 31 -85t84 -27z" />
    <glyph glyph-name="dotaccent" unicode="&#x2d9;" horiz-adv-x="491" 
d="M67 1592v298h358v-298h-358z" />
    <glyph glyph-name="ring" unicode="&#x2da;" horiz-adv-x="804" 
d="M261 450q0 -63 36.5 -110t105.5 -47t105.5 47t36.5 110t-36.5 110t-105.5 47t-105.5 -47t-36.5 -110zM49 450q0 156 94.5 247t258.5 91t259 -91t95 -247t-95 -247t-259 -91t-258.5 91t-94.5 247z" />
    <glyph glyph-name="ogonek" unicode="&#x2db;" horiz-adv-x="1015" 
d="M852 -591q-96 -40 -198 -40q-147 0 -247.5 81t-100.5 220q0 181 264 330h211q-84 -102 -122 -166t-38 -113q0 -58 31 -85t84 -27q50 0 116 23v-223z" />
    <glyph glyph-name="tilde" unicode="&#x2dc;" horiz-adv-x="1015" 
d="M370 1712q-32 0 -58 -89l-222 106q53 130 120.5 194.5t159.5 64.5q38 0 82 -27t86 -54t75 -27t59 79l232 -56q-55 -150 -126 -225.5t-166 -75.5q-35 0 -71 17t-60.5 38t-55 38t-55.5 17z" />
    <glyph glyph-name="hungarumlaut" unicode="&#x2dd;" horiz-adv-x="1300" 
d="M423 1236l-166 58l184 479l230 -108zM725 1236l-166 58l221 479l234 -108z" />
    <glyph glyph-name="uni030F" unicode="&#x30f;" horiz-adv-x="1300" 
d="M825 1236l-248 429l230 108l184 -479zM523 1236l-289 429l234 108l221 -479z" />
    <glyph glyph-name="Sigma" unicode="&#x3a3;" horiz-adv-x="884" 
d="M272 751l-210 478v272h764v-301h-392l213 -449l-213 -450h392v-301h-764v272z" />
    <glyph glyph-name="Omega" unicode="&#x3a9;" horiz-adv-x="1010" 
d="M929 1189v-479q0 -316 -97 -464h122v-246h-416v247l6 3q23 12 30.5 30t11.5 81t4 220v630q0 36 -5 60.5t-25 44t-55 19.5t-55 -19.5t-25 -44t-5 -60.5v-630q0 -88 1 -139q2 -145 19 -171q6 -10 32 -24v-247h-416v246h122q-97 148 -97 464v479q0 199 105 308.5t319 109.5
t319 -109.5t105 -308.5z" />
    <glyph glyph-name="pi" unicode="&#x3c0;" horiz-adv-x="546" 
d="M94 0v1500h358v-1500h-358z" />
    <glyph glyph-name="uni1E46" unicode="&#x1e46;" horiz-adv-x="1038" 
d="M340 -420v298h358v-298h-358zM951 1593v-1593h-344l-176 797v-797h-344v1593h362l162 -762v762h340z" />
    <glyph glyph-name="uni1E47" unicode="&#x1e47;" horiz-adv-x="1045" 
d="M345 -420v298h358v-298h-358zM84 0v1501h358v-172q22 97 81.5 143t144.5 46q141 0 219 -88.5t78 -272.5v-1157h-353v1120q0 47 -19 83t-61 36q-26 0 -44 -14.5t-26.5 -33t-13.5 -48.5t-5.5 -46t-0.5 -42v-1055h-358z" />
    <glyph glyph-name="uni1E62" unicode="&#x1e62;" horiz-adv-x="951" 
d="M323 -438v298h358v-298h-358zM502 -18q-245 0 -349.5 112t-104.5 346v156h348v-143q0 -154 84 -154q39 0 61.5 30t22.5 79q0 64 -17.5 108t-53 83.5t-116.5 109.5l-149 129q-180 155 -180 350q0 212 108.5 315.5t298.5 103.5h9h53t126 -22.5t137 -75t90 -146t30 -228.5
h-357l-2 96q-1 27 -23 48t-49 21q-35 0 -59.5 -21.5t-24.5 -55.5q0 -68 99 -148l213 -172q52 -42 90.5 -85.5t61 -86t36.5 -77t19.5 -75t6.5 -61t1 -53.5q0 -84 -11 -152.5t-39 -132t-73.5 -106t-118 -67.5t-168.5 -25z" />
    <glyph glyph-name="uni1E63" unicode="&#x1e63;" horiz-adv-x="974" 
d="M306 -438v298h358v-298h-358zM559 1053l-2 57q0 20 -3 40t-11 41.5t-24 34.5t-38 13q-37 0 -56.5 -21t-19.5 -59q0 -80 64 -127l221 -162q66 -49 114 -103t72.5 -98.5t39 -95.5t17.5 -83t3 -72q0 -215 -121.5 -325.5t-329.5 -110.5q-444 0 -444 452l2 119h358l2 -176
q0 -36 8.5 -59.5t23.5 -33.5t27.5 -13t28.5 -3q72 0 72 117q0 30 -1 43.5t-7.5 40t-21 46.5t-42 49t-69.5 61l-191 147q-62 48 -100.5 93.5t-56 96t-22.5 91t-5 104.5q0 115 66 199t164.5 123t213.5 39q211 0 323.5 -107t112.5 -330v-28h-368z" />
    <glyph glyph-name="Wgrave" unicode="&#x1e80;" horiz-adv-x="1431" 
d="M716 1732l-475 94v347l475 -218v-223zM455 588l99 1005h328l94 -1005l94 1005h348l-192 -1593h-422l-88 768l-84 -768h-429l-189 1593h344z" />
    <glyph glyph-name="wgrave" unicode="&#x1e81;" horiz-adv-x="1444" 
d="M722 1640l-475 94v347l475 -218v-223zM902 1500l84 -917l92 917h357l-216 -1500h-406l-93 921l-89 -921h-406l-216 1500h357l89 -917l87 917h360z" />
    <glyph glyph-name="Wacute" unicode="&#x1e82;" horiz-adv-x="1431" 
d="M716 1732v223l475 218v-347zM455 588l99 1005h328l94 -1005l94 1005h348l-192 -1593h-422l-88 768l-84 -768h-429l-189 1593h344z" />
    <glyph glyph-name="wacute" unicode="&#x1e83;" horiz-adv-x="1444" 
d="M722 1640v223l475 218v-347zM902 1500l84 -917l92 917h357l-216 -1500h-406l-93 921l-89 -921h-406l-216 1500h357l89 -917l87 917h360z" />
    <glyph glyph-name="Wdieresis" unicode="&#x1e84;" horiz-adv-x="1431" 
d="M295 1732v298h358v-298h-358zM779 1732v298h358v-298h-358zM455 588l99 1005h328l94 -1005l94 1005h348l-192 -1593h-422l-88 768l-84 -768h-429l-189 1593h344z" />
    <glyph glyph-name="wdieresis" unicode="&#x1e85;" horiz-adv-x="1444" 
d="M301 1640v298h358v-298h-358zM785 1640v298h358v-298h-358zM902 1500l84 -917l92 917h357l-216 -1500h-406l-93 921l-89 -921h-406l-216 1500h357l89 -917l87 917h360z" />
    <glyph glyph-name="uni1EBC" unicode="&#x1ebc;" horiz-adv-x="862" 
d="M312 1842q-32 0 -58 -89l-222 106q53 130 120.5 194.5t159.5 64.5q38 0 82 -27t86 -54t75 -27t59 79l232 -56q-55 -150 -126 -225.5t-166 -75.5q-35 0 -71 17t-60.5 38t-55 38t-55.5 17zM87 0v1593h704v-309h-346v-311h332v-299h-332v-363h369v-311h-727z" />
    <glyph glyph-name="uni1EBD" unicode="&#x1ebd;" 
d="M385 1750q-32 0 -58 -89l-222 106q53 130 120.5 194.5t159.5 64.5q38 0 82 -27t86 -54t75 -27t59 79l232 -56q-55 -150 -126 -225.5t-166 -75.5q-35 0 -71 17t-60.5 38t-55 38t-55.5 17zM494 -18q-80 0 -145 16.5t-109.5 43t-77 67t-51.5 82.5t-30.5 96t-15 100t-3.5 102
v603q0 207 118.5 316.5t331.5 109.5q432 0 432 -426v-109q0 -203 -4 -279h-520v-210q0 -10 -0.5 -32.5t-0.5 -34.5q0 -36 3 -61.5t11 -52t26.5 -40t46.5 -13.5q29 0 47 20.5t25.5 59t9.5 68.5t2 75q0 88 -2 96h356v-85q0 -125 -19 -213t-67.5 -158.5t-138.5 -105.5t-225 -35
zM508 1249q-28 0 -47 -14.5t-28 -43.5t-12 -59.5t-3 -74.5q0 -21 1 -63t1 -63h168v156q0 162 -80 162z" />
    <glyph glyph-name="Ygrave" unicode="&#x1ef2;" horiz-adv-x="859" 
d="M430 1732l-475 94v347l475 -218v-223zM596 0h-332v524l-281 1069h349l98 -540l98 540h348l-280 -1069v-524z" />
    <glyph glyph-name="ygrave" unicode="&#x1ef3;" horiz-adv-x="905" 
d="M457 1640l-475 94v347l475 -218v-223zM31 -186v227h112q56 0 76.5 14t20.5 48q0 19 -5 52l-231 1346h353l66 -680l24 -332l28 332l80 680h355l-278 -1515q-4 -28 -11.5 -51t-15 -40t-20.5 -30t-23 -21.5t-28 -14.5t-29.5 -9t-34 -4.5t-35.5 -1.5h-39h-365z" />
    <glyph glyph-name="endash" unicode="&#x2013;" horiz-adv-x="646" 
d="M65 509v232h516v-232h-516z" />
    <glyph glyph-name="emdash" unicode="&#x2014;" horiz-adv-x="1162" 
d="M65 741h1032v-232h-1032v232z" />
    <glyph glyph-name="quoteleft" unicode="&#x2018;" horiz-adv-x="487" 
d="M431 1356v-298h-374v289l102 245h211l-66 -236h127z" />
    <glyph glyph-name="quoteright" unicode="&#x2019;" horiz-adv-x="477" 
d="M52 1294v298h374v-289l-102 -245h-211l66 236h-127z" />
    <glyph glyph-name="quotesinglbase" unicode="&#x201a;" horiz-adv-x="495" 
d="M60 0v298h374v-289l-102 -245h-211l66 236h-127z" />
    <glyph glyph-name="quotedblleft" unicode="&#x201c;" horiz-adv-x="956" 
d="M900 1356v-298h-374v289l102 245h211l-66 -236h127zM431 1356v-298h-374v289l102 245h211l-66 -236h127z" />
    <glyph glyph-name="quotedblright" unicode="&#x201d;" horiz-adv-x="951" 
d="M525 1294v298h374v-289l-102 -245h-211l66 236h-127zM52 1294v298h374v-289l-102 -245h-211l66 236h-127z" />
    <glyph glyph-name="quotedblbase" unicode="&#x201e;" horiz-adv-x="967" 
d="M533 0v298h374v-289l-102 -245h-211l66 236h-127zM60 0v298h374v-289l-102 -245h-211l66 236h-127z" />
    <glyph glyph-name="dagger" unicode="&#x2020;" horiz-adv-x="822" 
d="M594 0h-364v996h-183v296h183v300h364v-300h180v-296h-180v-996z" />
    <glyph glyph-name="daggerdbl" unicode="&#x2021;" horiz-adv-x="843" 
d="M605 1592v-356h180v-296h-180v-294h180v-296h-180v-350h-364v350h-183v296h183v294h-183v296h183v356h364z" />
    <glyph glyph-name="bullet" unicode="&#x2022;" horiz-adv-x="709" 
d="M124 494q-83 91 -83 247t83.5 247t229.5 91t230 -91t84 -247t-84 -247t-230 -91t-230 91z" />
    <glyph glyph-name="ellipsis" unicode="&#x2026;" horiz-adv-x="1457" 
d="M59 1v298h358v-298h-358zM550 1v298h358v-298h-358zM1041 1v298h358v-298h-358z" />
    <glyph glyph-name="perthousand" unicode="&#x2030;" horiz-adv-x="3053" 
d="M2608 -18q-75 0 -142.5 24t-124.5 72t-90.5 131.5t-33.5 192.5v363q0 209 100 313.5t291 104.5t291.5 -104.5t100.5 -313.5v-363q0 -109 -33.5 -192.5t-90.5 -131.5t-124.5 -72t-143.5 -24zM2701 343v486q0 23 -0.5 35t-5.5 32.5t-14 31.5t-27.5 19.5t-45.5 8.5
q-26 0 -44.5 -8.5t-28 -19.5t-14.5 -31t-5.5 -33t-0.5 -35v-486q0 -47 29.5 -73t63.5 -26t63.5 26t29.5 73zM994 0h-323l540 1767h324zM444 528q-75 0 -142.5 24t-124.5 72t-90.5 131.5t-33.5 192.5v363q0 209 100 313.5t291 104.5t291.5 -104.5t100.5 -313.5v-363
q0 -109 -33.5 -192.5t-90.5 -131.5t-124.5 -72t-143.5 -24zM537 889v486q0 23 -0.5 35t-5.5 32.5t-14 31.5t-27.5 19.5t-45.5 8.5q-26 0 -44.5 -8.5t-28 -19.5t-14.5 -31t-5.5 -33t-0.5 -35v-486q0 -47 29.5 -73t63.5 -26t63.5 26t29.5 73zM1741 -18q-75 0 -142.5 24
t-124.5 72t-90.5 131.5t-33.5 192.5v363q0 209 100 313.5t291 104.5t291.5 -104.5t100.5 -313.5v-363q0 -109 -33.5 -192.5t-90.5 -131.5t-124.5 -72t-143.5 -24zM1834 343v486q0 23 -0.5 35t-5.5 32.5t-14 31.5t-27.5 19.5t-45.5 8.5q-26 0 -44.5 -8.5t-28 -19.5t-14.5 -31
t-5.5 -33t-0.5 -35v-486q0 -47 29.5 -73t63.5 -26t63.5 26t29.5 73z" />
    <glyph glyph-name="guilsinglleft" unicode="&#x2039;" horiz-adv-x="640" 
d="M46 545v414l510 271v-359l-312 -122l312 -131v-358z" />
    <glyph glyph-name="guilsinglright" unicode="&#x203a;" horiz-adv-x="639" 
d="M593 545l-510 -285v358l312 131l-312 122v359l510 -271v-414z" />
    <glyph glyph-name="fraction" unicode="&#x2044;" horiz-adv-x="710" 
d="M272 0h-283l490 1767h284z" />
    <glyph glyph-name="uni2074" unicode="&#x2074;" horiz-adv-x="638" 
d="M582 973v-171h-39v-152h-207v152h-303v149l187 641h323v-619h39zM226 973h110v405z" />
    <glyph glyph-name="Euro" unicode="&#x20ac;" horiz-adv-x="1108" 
d="M54 942v224h100v65q0 249 119 373.5t347 124.5q211 0 321.5 -121t114.5 -363l-349 1v27q0 26 -0.5 41.5t-5.5 39t-13.5 37t-25.5 23.5t-42 10t-42 -10t-25.5 -23.5t-13.5 -37t-5.5 -39t-0.5 -41.5v-107h315v-224h-315v-151h315v-232h-315v-112q0 -56 27.5 -86.5
t59.5 -30.5t59.5 30.5t27.5 86.5v22l349 6q-1 -128 -39 -226t-101 -154.5t-138 -84.5t-158 -28q-71 0 -136.5 17t-126 55.5t-105.5 95t-71.5 142t-26.5 190.5v77h-100v232h100v151h-100z" />
    <glyph glyph-name="trademark" unicode="&#x2122;" horiz-adv-x="1910" 
d="M67 1593h584v-232h-159v-975h-267v975h-158v232zM1403 386h-240l-147 871v-871h-256v1207h406l113 -630l112 630h409v-1207h-259v871z" />
    <glyph glyph-name="partialdiff" unicode="&#x2202;" horiz-adv-x="1102" 
d="M295 1376l-54 231q231 74 390 74q219 0 315 -133t96 -389q0 -95 -50 -592q-8 -78 -17.5 -137.5t-28.5 -123.5t-44.5 -110t-65.5 -89t-92 -69.5t-124.5 -42.5t-161.5 -16q-95 0 -167 22t-117.5 59.5t-74 94t-39.5 119t-11 139.5q0 69 7 137.5t22.5 147.5t46.5 146
t74 122.5t109.5 87.5t148.5 32q94 0 209 -39q11 69 11 117q0 137 -45.5 194t-112.5 57q-64 0 -126.5 -12.5t-97.5 -26.5zM603 419l31 340q-49 35 -88 35q-79 0 -94 -149l-17 -170q-6 -54 -6 -84q0 -46 15.5 -72t57.5 -26q40 0 67.5 30.5t33.5 95.5z" />
    <glyph glyph-name="uni2206" unicode="&#x2206;" horiz-adv-x="946" 
d="M720 1353l179 -1353h-853l183 1353h491zM487 1044h-32l-67 -814h166z" />
    <glyph glyph-name="product" unicode="&#x220f;" horiz-adv-x="1060" 
d="M963 1593v-1593h-350v1292h-166v-1292h-350v1593h866z" />
    <glyph glyph-name="summation" unicode="&#x2211;" horiz-adv-x="884" 
d="M272 751l-210 478v272h764v-301h-392l213 -449l-213 -450h392v-301h-764v272z" />
    <glyph glyph-name="minus" unicode="&#x2212;" horiz-adv-x="654" 
d="M69 509v232h516v-232h-516z" />
    <glyph glyph-name="radical" unicode="&#x221a;" horiz-adv-x="1367" 
d="M522 1501h831v-232h-524l-206 -1269h-404l-219 741h269l114 -403l137 1162z" />
    <glyph glyph-name="infinity" unicode="&#x221e;" horiz-adv-x="1181" 
d="M584 885q126 156 273 156q31 0 62.5 -5.5t70.5 -25t68 -50t49 -86.5t20 -130q0 -76 -20 -133.5t-49 -89t-68 -51t-70.5 -25.5t-62.5 -6q-87 0 -156 42.5t-117 103.5q-48 -54 -120 -93.5t-149 -39.5q-31 0 -61.5 5.5t-68.5 24t-66 48.5t-47 85.5t-19 128.5
q0 71 19.5 124.5t47.5 83t65.5 47.5t68 23.5t61.5 5.5q142 0 269 -143zM798 669q95 0 95 71t-95 71q-76 0 -152 -71q71 -71 152 -71zM522 740q-72 70 -144 70q-89 0 -89 -70q0 -71 89 -71q70 0 144 71z" />
    <glyph glyph-name="integral" unicode="&#x222b;" horiz-adv-x="605" 
d="M474 195q0 -50 -9 -88.5t-32.5 -75.5t-72.5 -57.5t-121 -20.5q-127 0 -204 29v221q28 -5 43 -5q18 0 28 5t14.5 18.5t5 23.5t0.5 34v1086q0 53 10.5 92.5t35 75.5t74.5 55t122 19q127 0 204 -29v-221q-28 5 -43 5q-34 0 -44.5 -19.5t-10.5 -61.5v-1086z" />
    <glyph glyph-name="approxequal" unicode="&#x2248;" horiz-adv-x="1015" 
d="M360 886q-44 0 -78 -79l-242 116q121 299 330 299q45 0 96.5 -27t100 -54t86.5 -27q44 0 79 79l242 -116q-123 -301 -332 -301q-41 0 -82.5 17t-70.5 38t-64.5 38t-64.5 17z" />
    <glyph glyph-name="notequal" unicode="&#x2260;" horiz-adv-x="690" 
d="M88 509v232h514v-232h-514zM88 892v224h514v-224h-514z" />
    <glyph glyph-name="lessequal" unicode="&#x2264;" horiz-adv-x="707" 
d="M57 637v414l570 341v-359l-342 -192l342 -191v-358zM84 0v232h516v-232h-516z" />
    <glyph glyph-name="greaterequal" unicode="&#x2265;" horiz-adv-x="707" 
d="M650 637l-570 -345v358l342 191l-342 192v359l570 -341v-414zM107 0v232h516v-232h-516z" />
    <glyph glyph-name="lozenge" unicode="&#x25ca;" horiz-adv-x="945" 
d="M320 713l134 -534h32l134 534l-134 534h-32zM45 713l183 723h491l179 -723l-179 -713h-491z" />
    <glyph glyph-name="uniF8FF" unicode="&#xf8ff;" horiz-adv-x="327" 
 />
    <glyph glyph-name="uniFB01" unicode="&#xfb01;" horiz-adv-x="1112" 
d="M107 0v1161h-65q0 47 4 273h61v102q0 242 242 242q115 0 184 -29v-221q-22 5 -33 5q-28 0 -36.5 -19t-8.5 -61v-19h78v-277h-71v-1157h-355zM670 0v1500h358v-1500h-358zM670 1567v202h358v-202h-358z" />
    <glyph glyph-name="uniFB02" unicode="&#xfb02;" horiz-adv-x="1125" 
d="M107 0v1161h-65q0 47 4 273h61v102q0 242 242 242q115 0 184 -29v-221q-22 5 -33 5q-28 0 -36.5 -19t-8.5 -61v-19h78v-277h-71v-1157h-355zM1041 0h-364v1767h364v-1767z" />
    <glyph glyph-name="NULL" horiz-adv-x="0" 
 />
    <glyph glyph-name="Ymacron" horiz-adv-x="0" 
 />
    <glyph glyph-name="ymacron" horiz-adv-x="905" 
d="M31 -186v227h112q56 0 76.5 14t20.5 48q0 19 -5 52l-231 1346h353l66 -680l24 -332l28 332l80 680h355l-278 -1515q-4 -28 -11.5 -51t-15 -40t-20.5 -30t-23 -21.5t-28 -14.5t-29.5 -9t-34 -4.5t-35.5 -1.5h-39h-365zM165 1592v248h570v-248h-570z" />
    <glyph glyph-name="Delta" horiz-adv-x="945" 
d="M320 457h300l-134 790h-32zM15 267l213 1169h491l209 -1169h-913z" />
    <glyph glyph-name="periodcentered" horiz-adv-x="491" 
d="M67 723v298h358v-298h-358z" />
    </font>
</defs>
</svg>
